%TF.GenerationSoftware,KiCad,Pcbnew,7.0.3*%
%TF.CreationDate,2023-06-20T13:58:59-06:00*%
%TF.ProjectId,macropad,6d616372-6f70-4616-942e-6b696361645f,rev?*%
%TF.SameCoordinates,Original*%
%TF.FileFunction,Copper,L2,Bot*%
%TF.FilePolarity,Positive*%
%FSLAX46Y46*%
G04 Gerber Fmt 4.6, Leading zero omitted, Abs format (unit mm)*
G04 Created by KiCad (PCBNEW 7.0.3) date 2023-06-20 13:58:59*
%MOMM*%
%LPD*%
G01*
G04 APERTURE LIST*
G04 Aperture macros list*
%AMRoundRect*
0 Rectangle with rounded corners*
0 $1 Rounding radius*
0 $2 $3 $4 $5 $6 $7 $8 $9 X,Y pos of 4 corners*
0 Add a 4 corners polygon primitive as box body*
4,1,4,$2,$3,$4,$5,$6,$7,$8,$9,$2,$3,0*
0 Add four circle primitives for the rounded corners*
1,1,$1+$1,$2,$3*
1,1,$1+$1,$4,$5*
1,1,$1+$1,$6,$7*
1,1,$1+$1,$8,$9*
0 Add four rect primitives between the rounded corners*
20,1,$1+$1,$2,$3,$4,$5,0*
20,1,$1+$1,$4,$5,$6,$7,0*
20,1,$1+$1,$6,$7,$8,$9,0*
20,1,$1+$1,$8,$9,$2,$3,0*%
G04 Aperture macros list end*
%TA.AperFunction,SMDPad,CuDef*%
%ADD10RoundRect,0.225000X-0.225000X-0.375000X0.225000X-0.375000X0.225000X0.375000X-0.225000X0.375000X0*%
%TD*%
%TA.AperFunction,ComponentPad*%
%ADD11C,2.200000*%
%TD*%
%TA.AperFunction,ComponentPad*%
%ADD12R,1.600000X1.600000*%
%TD*%
%TA.AperFunction,ComponentPad*%
%ADD13C,1.600000*%
%TD*%
%TA.AperFunction,Conductor*%
%ADD14C,0.500000*%
%TD*%
G04 APERTURE END LIST*
D10*
%TO.P,D2,1,K*%
%TO.N,Net-(D1-Pad1)*%
X143986000Y-118050000D03*
%TO.P,D2,2,A*%
%TO.N,Net-(D2-Pad2)*%
X147286000Y-118050000D03*
%TD*%
%TO.P,D3,1,K*%
%TO.N,Net-(D1-Pad1)*%
X162598000Y-118352000D03*
%TO.P,D3,2,A*%
%TO.N,Net-(D3-Pad2)*%
X165898000Y-118352000D03*
%TD*%
%TO.P,D1,1,K*%
%TO.N,Net-(D1-Pad1)*%
X124844000Y-118086000D03*
%TO.P,D1,2,A*%
%TO.N,Net-(D1-Pad2)*%
X128144000Y-118086000D03*
%TD*%
%TO.P,D5,1,K*%
%TO.N,Net-(D4-Pad1)*%
X144091000Y-98746000D03*
%TO.P,D5,2,A*%
%TO.N,Net-(D5-Pad2)*%
X147391000Y-98746000D03*
%TD*%
%TO.P,D6,1,K*%
%TO.N,Net-(D4-Pad1)*%
X162909000Y-98969000D03*
%TO.P,D6,2,A*%
%TO.N,Net-(D6-Pad2)*%
X166209000Y-98969000D03*
%TD*%
%TO.P,D8,1,K*%
%TO.N,Net-(D7-Pad1)*%
X163198000Y-80331000D03*
%TO.P,D8,2,A*%
%TO.N,Net-(D8-Pad2)*%
X166498000Y-80331000D03*
%TD*%
%TO.P,D4,1,K*%
%TO.N,Net-(D4-Pad1)*%
X125006000Y-98619000D03*
%TO.P,D4,2,A*%
%TO.N,Net-(D4-Pad2)*%
X128306000Y-98619000D03*
%TD*%
%TO.P,D7,1,K*%
%TO.N,Net-(D7-Pad1)*%
X143986000Y-79871000D03*
%TO.P,D7,2,A*%
%TO.N,Net-(D7-Pad2)*%
X147286000Y-79871000D03*
%TD*%
D11*
%TO.P,SW4,1,1*%
%TO.N,Net-(D4-Pad2)*%
X129083000Y-87300000D03*
%TO.P,SW4,2,2*%
%TO.N,Net-(SW1-Pad2)*%
X122733000Y-89840000D03*
%TD*%
%TO.P,SW1,1,1*%
%TO.N,Net-(D1-Pad2)*%
X129083000Y-106350000D03*
%TO.P,SW1,2,2*%
%TO.N,Net-(SW1-Pad2)*%
X122733000Y-108890000D03*
%TD*%
%TO.P,SW3,1,1*%
%TO.N,Net-(D3-Pad2)*%
X167183000Y-106350000D03*
%TO.P,SW3,2,2*%
%TO.N,Net-(SW3-Pad2)*%
X160833000Y-108890000D03*
%TD*%
%TO.P,SW7,1,1*%
%TO.N,Net-(D7-Pad2)*%
X148133000Y-68250000D03*
%TO.P,SW7,2,2*%
%TO.N,Net-(SW1-Pad2)*%
X141783000Y-70790000D03*
%TD*%
%TO.P,SW5,1,1*%
%TO.N,Net-(D5-Pad2)*%
X148133000Y-87300000D03*
%TO.P,SW5,2,2*%
%TO.N,Net-(SW2-Pad2)*%
X141783000Y-89840000D03*
%TD*%
D12*
%TO.P,U1,1,PA02_A0_D0*%
%TO.N,unconnected-(U1-Pad1)*%
X116321000Y-64038000D03*
D13*
%TO.P,U1,2,PA4_A1_D1*%
%TO.N,Net-(D4-Pad1)*%
X116321000Y-66578000D03*
%TO.P,U1,3,PA10_A2_D2*%
%TO.N,Net-(D1-Pad1)*%
X116321000Y-69118000D03*
%TO.P,U1,4,PA11_A3_D3*%
%TO.N,Net-(SW3-Pad2)*%
X116321000Y-71658000D03*
%TO.P,U1,5,PA8_A4_D4_SDA*%
%TO.N,Net-(SW2-Pad2)*%
X116321000Y-74198000D03*
%TO.P,U1,6,PA9_A5_D5_SCL*%
%TO.N,unconnected-(U1-Pad6)*%
X116321000Y-76738000D03*
%TO.P,U1,7,PB08_A6_D6_TX*%
%TO.N,unconnected-(U1-Pad7)*%
X116321000Y-79278000D03*
%TO.P,U1,8,PB09_A7_D7_RX*%
%TO.N,unconnected-(U1-Pad8)*%
X131561000Y-79278000D03*
%TO.P,U1,9,PA7_A8_D8_SCK*%
%TO.N,unconnected-(U1-Pad9)*%
X131561000Y-76738000D03*
%TO.P,U1,10,PA5_A9_D9_MISO*%
%TO.N,Net-(SW1-Pad2)*%
X131561000Y-74198000D03*
%TO.P,U1,11,PA6_A10_D10_MOSI*%
%TO.N,Net-(D7-Pad1)*%
X131561000Y-71658000D03*
%TO.P,U1,12,3V3*%
%TO.N,unconnected-(U1-Pad12)*%
X131561000Y-69118000D03*
%TO.P,U1,13,GND*%
%TO.N,unconnected-(U1-Pad13)*%
X131561000Y-66578000D03*
%TO.P,U1,14,5V*%
%TO.N,unconnected-(U1-Pad14)*%
X131561000Y-64038000D03*
%TD*%
D11*
%TO.P,SW6,1,1*%
%TO.N,Net-(D6-Pad2)*%
X167183000Y-87300000D03*
%TO.P,SW6,2,2*%
%TO.N,Net-(SW3-Pad2)*%
X160833000Y-89840000D03*
%TD*%
%TO.P,SW8,1,1*%
%TO.N,Net-(D8-Pad2)*%
X167183000Y-68250000D03*
%TO.P,SW8,2,2*%
%TO.N,Net-(SW2-Pad2)*%
X160833000Y-70790000D03*
%TD*%
%TO.P,SW2,1,1*%
%TO.N,Net-(D2-Pad2)*%
X148133000Y-106350000D03*
%TO.P,SW2,2,2*%
%TO.N,Net-(SW2-Pad2)*%
X141783000Y-108890000D03*
%TD*%
D14*
%TO.N,Net-(D1-Pad1)*%
X145336000Y-119400000D02*
X161550000Y-119400000D01*
X124844000Y-118086000D02*
X120626000Y-118086000D01*
X161550000Y-119400000D02*
X162598000Y-118352000D01*
X124844000Y-118086000D02*
X126194000Y-119436000D01*
X143986000Y-118050000D02*
X145336000Y-119400000D01*
X118893000Y-68080000D02*
X117855000Y-69118000D01*
X125693000Y-68080000D02*
X118893000Y-68080000D01*
X128493000Y-79787000D02*
X128493000Y-70880000D01*
X117855000Y-69118000D02*
X116321000Y-69118000D01*
X126194000Y-119436000D02*
X142600000Y-119436000D01*
X142600000Y-119436000D02*
X143986000Y-118050000D01*
X118110000Y-90170000D02*
X128493000Y-79787000D01*
X118110000Y-115570000D02*
X118110000Y-90170000D01*
X128493000Y-70880000D02*
X125693000Y-68080000D01*
X120626000Y-118086000D02*
X118110000Y-115570000D01*
%TO.N,Net-(D1-Pad2)*%
X129540000Y-109220000D02*
X129540000Y-116690000D01*
X129540000Y-116690000D02*
X128144000Y-118086000D01*
X129083000Y-108763000D02*
X129540000Y-109220000D01*
X129083000Y-106350000D02*
X129083000Y-108763000D01*
%TO.N,Net-(D2-Pad2)*%
X148590000Y-116746000D02*
X147286000Y-118050000D01*
X148133000Y-106350000D02*
X148133000Y-108763000D01*
X148133000Y-108763000D02*
X148590000Y-109220000D01*
X148590000Y-109220000D02*
X148590000Y-116746000D01*
%TO.N,Net-(D3-Pad2)*%
X167640000Y-116610000D02*
X165898000Y-118352000D01*
X167183000Y-106350000D02*
X167183000Y-108763000D01*
X167640000Y-109220000D02*
X167640000Y-116610000D01*
X167183000Y-108763000D02*
X167640000Y-109220000D01*
%TO.N,Net-(D4-Pad1)*%
X142868000Y-99969000D02*
X126356000Y-99969000D01*
X119380000Y-96520000D02*
X119380000Y-90576704D01*
X125006000Y-98619000D02*
X121479000Y-98619000D01*
X145441000Y-100096000D02*
X161782000Y-100096000D01*
X121479000Y-98619000D02*
X119380000Y-96520000D01*
X161782000Y-100096000D02*
X162909000Y-98969000D01*
X126356000Y-99969000D02*
X125006000Y-98619000D01*
X129540000Y-80416704D02*
X129540000Y-69327000D01*
X129540000Y-69327000D02*
X126791000Y-66578000D01*
X144091000Y-98746000D02*
X142868000Y-99969000D01*
X126791000Y-66578000D02*
X116321000Y-66578000D01*
X119380000Y-90576704D02*
X129540000Y-80416704D01*
X144091000Y-98746000D02*
X145441000Y-100096000D01*
%TO.N,Net-(D4-Pad2)*%
X129540000Y-90170000D02*
X129540000Y-97385000D01*
X129083000Y-89713000D02*
X129540000Y-90170000D01*
X129083000Y-87300000D02*
X129083000Y-89713000D01*
X129540000Y-97385000D02*
X128306000Y-98619000D01*
%TO.N,Net-(D5-Pad2)*%
X148133000Y-87300000D02*
X148133000Y-89713000D01*
X148590000Y-97547000D02*
X147391000Y-98746000D01*
X148590000Y-90170000D02*
X148590000Y-97547000D01*
X148133000Y-89713000D02*
X148590000Y-90170000D01*
%TO.N,Net-(D6-Pad2)*%
X167183000Y-87300000D02*
X167183000Y-89713000D01*
X167640000Y-97538000D02*
X166209000Y-98969000D01*
X167640000Y-90170000D02*
X167640000Y-97538000D01*
X167183000Y-89713000D02*
X167640000Y-90170000D01*
%TO.N,Net-(D7-Pad1)*%
X145336000Y-81221000D02*
X143986000Y-79871000D01*
X163198000Y-80331000D02*
X162308000Y-81221000D01*
X139753000Y-65380000D02*
X137173000Y-67960000D01*
X136859000Y-67960000D02*
X133161000Y-71658000D01*
X154881000Y-81221000D02*
X154881000Y-68521000D01*
X137173000Y-67960000D02*
X136859000Y-67960000D01*
X162308000Y-81221000D02*
X154881000Y-81221000D01*
X133161000Y-71658000D02*
X131561000Y-71658000D01*
X151740000Y-65380000D02*
X139753000Y-65380000D01*
X154881000Y-68521000D02*
X151740000Y-65380000D01*
X154881000Y-81221000D02*
X145336000Y-81221000D01*
%TO.N,Net-(D7-Pad2)*%
X148590000Y-71120000D02*
X148590000Y-78567000D01*
X148590000Y-78567000D02*
X147286000Y-79871000D01*
X148133000Y-70663000D02*
X148590000Y-71120000D01*
X148133000Y-68250000D02*
X148133000Y-70663000D01*
%TO.N,Net-(D8-Pad2)*%
X167183000Y-70663000D02*
X167640000Y-71120000D01*
X167640000Y-71120000D02*
X167640000Y-79189000D01*
X167183000Y-68250000D02*
X167183000Y-70663000D01*
X167640000Y-79189000D02*
X166498000Y-80331000D01*
%TO.N,Net-(SW1-Pad2)*%
X141863001Y-70870001D02*
X141863001Y-80386999D01*
X137160000Y-85090000D02*
X127483000Y-85090000D01*
X141783000Y-70790000D02*
X136569000Y-70790000D01*
X136569000Y-70790000D02*
X133161000Y-74198000D01*
X141863001Y-80386999D02*
X137160000Y-85090000D01*
X141783000Y-70790000D02*
X141863001Y-70870001D01*
X127483000Y-85090000D02*
X122733000Y-89840000D01*
X133161000Y-74198000D02*
X131561000Y-74198000D01*
%TO.N,Net-(SW2-Pad2)*%
X161290000Y-71247000D02*
X160833000Y-70790000D01*
X164314500Y-82550000D02*
X165100000Y-81764500D01*
X141783000Y-89840000D02*
X149073000Y-82550000D01*
X149073000Y-82550000D02*
X164314500Y-82550000D01*
X165100000Y-78105000D02*
X161290000Y-74295000D01*
X161290000Y-74295000D02*
X161290000Y-71247000D01*
X165100000Y-81764500D02*
X165100000Y-78105000D01*
%TD*%
%TA.AperFunction,NonConductor*%
G36*
X132594627Y-59380585D02*
G01*
X132678844Y-59384999D01*
X132916711Y-59398854D01*
X132922883Y-59399521D01*
X133061095Y-59421411D01*
X133244399Y-59453733D01*
X133249742Y-59454918D01*
X133394015Y-59493576D01*
X133395772Y-59494074D01*
X133564122Y-59544474D01*
X133568604Y-59546003D01*
X133688307Y-59591952D01*
X133711535Y-59600869D01*
X133713911Y-59601837D01*
X133739661Y-59612944D01*
X133872105Y-59670075D01*
X133875720Y-59671774D01*
X134013423Y-59741937D01*
X134016232Y-59743463D01*
X134164652Y-59829153D01*
X134167450Y-59830868D01*
X134297057Y-59915034D01*
X134300308Y-59917298D01*
X134438495Y-60020174D01*
X134440522Y-60021748D01*
X134559499Y-60118094D01*
X134563086Y-60121231D01*
X134690888Y-60241805D01*
X134692202Y-60243082D01*
X134797824Y-60348704D01*
X134801529Y-60352747D01*
X134921187Y-60495352D01*
X135009221Y-60604064D01*
X135012899Y-60609095D01*
X135143838Y-60808178D01*
X135189155Y-60877961D01*
X135190863Y-60880748D01*
X135269223Y-61016457D01*
X135390170Y-61182912D01*
X135391831Y-61185314D01*
X135431763Y-61246043D01*
X135443845Y-61256784D01*
X135454088Y-61270880D01*
X135454091Y-61270883D01*
X135454093Y-61270886D01*
X135595825Y-61428284D01*
X135630430Y-61466713D01*
X135631873Y-61468373D01*
X135659653Y-61501477D01*
X135661609Y-61502871D01*
X135662091Y-61502389D01*
X135662213Y-61502268D01*
X135664529Y-61504584D01*
X135898275Y-61715038D01*
X135902013Y-61717754D01*
X135903478Y-61718969D01*
X135904126Y-61719289D01*
X136152705Y-61899883D01*
X136152708Y-61899885D01*
X136160579Y-61904429D01*
X136175757Y-61913192D01*
X136401813Y-62043700D01*
X136401823Y-62043705D01*
X136425076Y-62057130D01*
X136705778Y-62182103D01*
X136706150Y-62182419D01*
X136708167Y-62183167D01*
X136711129Y-62184485D01*
X136712388Y-62185046D01*
X137011495Y-62282231D01*
X137011498Y-62282231D01*
X137014688Y-62283087D01*
X137014381Y-62284229D01*
X137015141Y-62284639D01*
X137059150Y-62292400D01*
X137061309Y-62292820D01*
X137133796Y-62308227D01*
X137319123Y-62347621D01*
X137336471Y-62349444D01*
X137348316Y-62354317D01*
X137424273Y-62358743D01*
X137427196Y-62358981D01*
X137449823Y-62361359D01*
X137631900Y-62380498D01*
X137763987Y-62380498D01*
X137763992Y-62380500D01*
X137789051Y-62380500D01*
X137789150Y-62380500D01*
X137789650Y-62380500D01*
X137795912Y-62380500D01*
X137799577Y-62380607D01*
X137816577Y-62381597D01*
X137822390Y-62380500D01*
X170591628Y-62380500D01*
X170594372Y-62380559D01*
X170684547Y-62384496D01*
X170956066Y-62397836D01*
X170961127Y-62398292D01*
X171115984Y-62418679D01*
X171324328Y-62449585D01*
X171328676Y-62450388D01*
X171491891Y-62486572D01*
X171493456Y-62486941D01*
X171686510Y-62535298D01*
X171690097Y-62536312D01*
X171853380Y-62587795D01*
X171855586Y-62588537D01*
X172039685Y-62654409D01*
X172042487Y-62655489D01*
X172201661Y-62721421D01*
X172204449Y-62722657D01*
X172340723Y-62787110D01*
X172381163Y-62806237D01*
X172383265Y-62807280D01*
X172535154Y-62886348D01*
X172538379Y-62888153D01*
X172629865Y-62942987D01*
X172709035Y-62990441D01*
X172710496Y-62991344D01*
X172851426Y-63081126D01*
X172855090Y-63083646D01*
X173024311Y-63209149D01*
X173148124Y-63304154D01*
X173152086Y-63307460D01*
X173357693Y-63493849D01*
X173419386Y-63550379D01*
X173421372Y-63552280D01*
X174420680Y-64551587D01*
X174422581Y-64553573D01*
X174482968Y-64619474D01*
X174600679Y-64749347D01*
X174665514Y-64820881D01*
X174668810Y-64824832D01*
X174689761Y-64852136D01*
X174762707Y-64947201D01*
X174763904Y-64948760D01*
X174864358Y-65084207D01*
X174889328Y-65117875D01*
X174891860Y-65121556D01*
X174981680Y-65262545D01*
X174982583Y-65264006D01*
X175084824Y-65434583D01*
X175086652Y-65437850D01*
X175156383Y-65571802D01*
X175165707Y-65589713D01*
X175166777Y-65591867D01*
X175250322Y-65768509D01*
X175251575Y-65771336D01*
X175317497Y-65930485D01*
X175318611Y-65933371D01*
X175384444Y-66117364D01*
X175385211Y-66119644D01*
X175436682Y-66282891D01*
X175437710Y-66286528D01*
X175486031Y-66479436D01*
X175486425Y-66481108D01*
X175522606Y-66644305D01*
X175523417Y-66648698D01*
X175554315Y-66856990D01*
X175574702Y-67011846D01*
X175575166Y-67016980D01*
X175588495Y-67288308D01*
X175592440Y-67378645D01*
X175592500Y-67381394D01*
X175592500Y-117378626D01*
X175592440Y-117381375D01*
X175588504Y-117471498D01*
X175575165Y-117743031D01*
X175574702Y-117748164D01*
X175554325Y-117902948D01*
X175523415Y-118111314D01*
X175522604Y-118115707D01*
X175486434Y-118278855D01*
X175486040Y-118280527D01*
X175437706Y-118473486D01*
X175436678Y-118477123D01*
X175385221Y-118640326D01*
X175384454Y-118642606D01*
X175318605Y-118826644D01*
X175317492Y-118829530D01*
X175251583Y-118988646D01*
X175250330Y-118991473D01*
X175166761Y-119168163D01*
X175165692Y-119170317D01*
X175135152Y-119228985D01*
X175094913Y-119306285D01*
X175086682Y-119322096D01*
X175084836Y-119325395D01*
X174982557Y-119496035D01*
X174981654Y-119497496D01*
X174891872Y-119638426D01*
X174889340Y-119642107D01*
X174763846Y-119811317D01*
X174668849Y-119935118D01*
X174665543Y-119939080D01*
X174479148Y-120144694D01*
X174422595Y-120206412D01*
X174420693Y-120208398D01*
X173421400Y-121207691D01*
X173419414Y-121209592D01*
X173353523Y-121269969D01*
X173152124Y-121452508D01*
X173148166Y-121455811D01*
X173024209Y-121550925D01*
X172855119Y-121676331D01*
X172851439Y-121678863D01*
X172710472Y-121768669D01*
X172709011Y-121769572D01*
X172538409Y-121871827D01*
X172535110Y-121873673D01*
X172383289Y-121952705D01*
X172381135Y-121953774D01*
X172204489Y-122037322D01*
X172201662Y-122038575D01*
X172042513Y-122104497D01*
X172039627Y-122105611D01*
X171855634Y-122171444D01*
X171853354Y-122172211D01*
X171690107Y-122223682D01*
X171686470Y-122224710D01*
X171493562Y-122273031D01*
X171491890Y-122273425D01*
X171328693Y-122309606D01*
X171324300Y-122310417D01*
X171116008Y-122341315D01*
X170961152Y-122361702D01*
X170956018Y-122362166D01*
X170684690Y-122375495D01*
X170605728Y-122378943D01*
X170594348Y-122379440D01*
X170591605Y-122379500D01*
X120594374Y-122379500D01*
X120591626Y-122379440D01*
X120589024Y-122379326D01*
X120501500Y-122375504D01*
X120229967Y-122362165D01*
X120224834Y-122361702D01*
X120070078Y-122341328D01*
X120010565Y-122332500D01*
X119861684Y-122310415D01*
X119857291Y-122309604D01*
X119694143Y-122273434D01*
X119692471Y-122273040D01*
X119499512Y-122224706D01*
X119495875Y-122223678D01*
X119332672Y-122172221D01*
X119330392Y-122171454D01*
X119146354Y-122105605D01*
X119143468Y-122104492D01*
X118984352Y-122038583D01*
X118981525Y-122037330D01*
X118804835Y-121953761D01*
X118802693Y-121952698D01*
X118650868Y-121873663D01*
X118647603Y-121871836D01*
X118476963Y-121769557D01*
X118475502Y-121768654D01*
X118334572Y-121678872D01*
X118330898Y-121676345D01*
X118161703Y-121550862D01*
X118037874Y-121455844D01*
X118033912Y-121452538D01*
X117828318Y-121266161D01*
X117766599Y-121209607D01*
X117764613Y-121207706D01*
X117764598Y-121207691D01*
X116765283Y-120208375D01*
X116763405Y-120206413D01*
X116754032Y-120196184D01*
X116703048Y-120140544D01*
X116617462Y-120046115D01*
X116520481Y-119939114D01*
X116517200Y-119935182D01*
X116452995Y-119851509D01*
X116422073Y-119811209D01*
X116296656Y-119642103D01*
X116294143Y-119638450D01*
X116204315Y-119497449D01*
X116203426Y-119496011D01*
X116175989Y-119450236D01*
X116101163Y-119325395D01*
X116099348Y-119322152D01*
X116020271Y-119170246D01*
X116019224Y-119168135D01*
X115971381Y-119066981D01*
X115935669Y-118991473D01*
X115934423Y-118988662D01*
X115868492Y-118829492D01*
X115867394Y-118826644D01*
X115801547Y-118642613D01*
X115800805Y-118640410D01*
X115749308Y-118477081D01*
X115748293Y-118473486D01*
X115699954Y-118280507D01*
X115699573Y-118278890D01*
X115663386Y-118115665D01*
X115662581Y-118111300D01*
X115631686Y-117903025D01*
X115611294Y-117748131D01*
X115610835Y-117743062D01*
X115597502Y-117471646D01*
X115593558Y-117381307D01*
X115593500Y-117378626D01*
X115593500Y-87628347D01*
X115593505Y-87628329D01*
X115593505Y-87610044D01*
X115594729Y-87605874D01*
X115593612Y-87586686D01*
X115593505Y-87583021D01*
X115593505Y-87576150D01*
X115593506Y-87576150D01*
X115593509Y-87418900D01*
X115571998Y-87214217D01*
X115571761Y-87211308D01*
X115567539Y-87138782D01*
X115562463Y-87123480D01*
X115560639Y-87106122D01*
X115505845Y-86848325D01*
X115505425Y-86846166D01*
X115497927Y-86803641D01*
X115496933Y-86801461D01*
X115496108Y-86801683D01*
X115495252Y-86798488D01*
X115398075Y-86499403D01*
X115398073Y-86499399D01*
X115398069Y-86499385D01*
X115396189Y-86495164D01*
X115395527Y-86493375D01*
X115395124Y-86492771D01*
X115332281Y-86351624D01*
X115270150Y-86212074D01*
X115112900Y-85939709D01*
X114932285Y-85691117D01*
X114932121Y-85690658D01*
X114930751Y-85689005D01*
X114929927Y-85687872D01*
X114928040Y-85685274D01*
X114928038Y-85685271D01*
X114717584Y-85451545D01*
X114715261Y-85449222D01*
X114716095Y-85448387D01*
X114715637Y-85447643D01*
X114681389Y-85418907D01*
X114679730Y-85417464D01*
X114483869Y-85241114D01*
X114469745Y-85230853D01*
X114461918Y-85220703D01*
X114398306Y-85178867D01*
X114395894Y-85177199D01*
X114229428Y-85056259D01*
X114229425Y-85056258D01*
X114094685Y-84978469D01*
X114091871Y-84976745D01*
X114021109Y-84930792D01*
X113822106Y-84799906D01*
X113817074Y-84796228D01*
X113708271Y-84708120D01*
X113565754Y-84588534D01*
X113561711Y-84584830D01*
X113456049Y-84479168D01*
X113454806Y-84477888D01*
X113334227Y-84350082D01*
X113331110Y-84346518D01*
X113234737Y-84227507D01*
X113233178Y-84225499D01*
X113130324Y-84087343D01*
X113128034Y-84084053D01*
X113043848Y-83954418D01*
X113042145Y-83951639D01*
X112956480Y-83803263D01*
X112954930Y-83800406D01*
X112926224Y-83744068D01*
X112884767Y-83662703D01*
X112883064Y-83659080D01*
X112814843Y-83500927D01*
X112813883Y-83498569D01*
X112797833Y-83456758D01*
X112758999Y-83355591D01*
X112757467Y-83351098D01*
X112741536Y-83297886D01*
X112707094Y-83182840D01*
X112706594Y-83181077D01*
X112694248Y-83135001D01*
X112667912Y-83036715D01*
X112666729Y-83031380D01*
X112634431Y-82848212D01*
X112612519Y-82709862D01*
X112611853Y-82703709D01*
X112598007Y-82465989D01*
X112593585Y-82381618D01*
X112593500Y-82378328D01*
X112593500Y-79278000D01*
X115007502Y-79278000D01*
X115027457Y-79506087D01*
X115052262Y-79598661D01*
X115086715Y-79727240D01*
X115086717Y-79727246D01*
X115183477Y-79934749D01*
X115291308Y-80088748D01*
X115314802Y-80122300D01*
X115476700Y-80284198D01*
X115664251Y-80415523D01*
X115871757Y-80512284D01*
X116092913Y-80571543D01*
X116321000Y-80591498D01*
X116549087Y-80571543D01*
X116770243Y-80512284D01*
X116977749Y-80415523D01*
X117165300Y-80284198D01*
X117327198Y-80122300D01*
X117458523Y-79934749D01*
X117555284Y-79727243D01*
X117614543Y-79506087D01*
X117634498Y-79278000D01*
X117614543Y-79049913D01*
X117555284Y-78828757D01*
X117458523Y-78621251D01*
X117327198Y-78433700D01*
X117165300Y-78271802D01*
X117160941Y-78268750D01*
X117063655Y-78200629D01*
X116977749Y-78140477D01*
X116949295Y-78127209D01*
X116938543Y-78122195D01*
X116885258Y-78075279D01*
X116865796Y-78007002D01*
X116886337Y-77939042D01*
X116938543Y-77893805D01*
X116940997Y-77892660D01*
X116977749Y-77875523D01*
X117165300Y-77744198D01*
X117327198Y-77582300D01*
X117458523Y-77394749D01*
X117555284Y-77187243D01*
X117614543Y-76966087D01*
X117634498Y-76738000D01*
X117614543Y-76509913D01*
X117555284Y-76288757D01*
X117458523Y-76081251D01*
X117327198Y-75893700D01*
X117165300Y-75731802D01*
X116977749Y-75600477D01*
X116938543Y-75582195D01*
X116885258Y-75535279D01*
X116865796Y-75467002D01*
X116886337Y-75399042D01*
X116938543Y-75353805D01*
X116940997Y-75352660D01*
X116977749Y-75335523D01*
X117165300Y-75204198D01*
X117327198Y-75042300D01*
X117458523Y-74854749D01*
X117555284Y-74647243D01*
X117614543Y-74426087D01*
X117634498Y-74198000D01*
X117614543Y-73969913D01*
X117555284Y-73748757D01*
X117458523Y-73541251D01*
X117327198Y-73353700D01*
X117165300Y-73191802D01*
X117137972Y-73172667D01*
X117077092Y-73130038D01*
X116977749Y-73060477D01*
X116950488Y-73047765D01*
X121838788Y-73047765D01*
X121868412Y-73317014D01*
X121936928Y-73579090D01*
X122042869Y-73828389D01*
X122076044Y-73882748D01*
X122183982Y-74059610D01*
X122357255Y-74267820D01*
X122357257Y-74267822D01*
X122357259Y-74267824D01*
X122494426Y-74390725D01*
X122558998Y-74448582D01*
X122784910Y-74598044D01*
X123030176Y-74713020D01*
X123289569Y-74791060D01*
X123289572Y-74791060D01*
X123289574Y-74791061D01*
X123557557Y-74830500D01*
X123557561Y-74830500D01*
X123760631Y-74830500D01*
X123963156Y-74815677D01*
X123963160Y-74815676D01*
X123963161Y-74815676D01*
X124122004Y-74780292D01*
X124227553Y-74756780D01*
X124480558Y-74660014D01*
X124716777Y-74527441D01*
X124931177Y-74361888D01*
X125119186Y-74166881D01*
X125276799Y-73946579D01*
X125324650Y-73853509D01*
X125400656Y-73705675D01*
X125400657Y-73705672D01*
X125475145Y-73487332D01*
X125488118Y-73449305D01*
X125519871Y-73277396D01*
X125537318Y-73182941D01*
X125537319Y-73182930D01*
X125537849Y-73168425D01*
X125547212Y-72912235D01*
X125532338Y-72777058D01*
X125517587Y-72642985D01*
X125460833Y-72425900D01*
X125449072Y-72380912D01*
X125446358Y-72374526D01*
X125343130Y-72131610D01*
X125306832Y-72072134D01*
X125202018Y-71900390D01*
X125028745Y-71692180D01*
X125028741Y-71692177D01*
X125028740Y-71692175D01*
X124827012Y-71511427D01*
X124827002Y-71511418D01*
X124601090Y-71361956D01*
X124355824Y-71246980D01*
X124117438Y-71175260D01*
X124096425Y-71168938D01*
X123828442Y-71129500D01*
X123828439Y-71129500D01*
X123625369Y-71129500D01*
X123422839Y-71144323D01*
X123422838Y-71144323D01*
X123158456Y-71203217D01*
X123158441Y-71203222D01*
X122905441Y-71299986D01*
X122669229Y-71432555D01*
X122669225Y-71432557D01*
X122454818Y-71598116D01*
X122266815Y-71793117D01*
X122266810Y-71793123D01*
X122109203Y-72013417D01*
X122109196Y-72013427D01*
X121985343Y-72254324D01*
X121985342Y-72254327D01*
X121897883Y-72510689D01*
X121897880Y-72510702D01*
X121848681Y-72777058D01*
X121848680Y-72777069D01*
X121838788Y-73047765D01*
X116950488Y-73047765D01*
X116938543Y-73042195D01*
X116885258Y-72995279D01*
X116865796Y-72927002D01*
X116886337Y-72859042D01*
X116938543Y-72813805D01*
X116940997Y-72812660D01*
X116977749Y-72795523D01*
X117165300Y-72664198D01*
X117327198Y-72502300D01*
X117458523Y-72314749D01*
X117555284Y-72107243D01*
X117614543Y-71886087D01*
X117634498Y-71658000D01*
X117614543Y-71429913D01*
X117555284Y-71208757D01*
X117458523Y-71001251D01*
X117327198Y-70813700D01*
X117165300Y-70651802D01*
X117157512Y-70646349D01*
X117089261Y-70598559D01*
X116977749Y-70520477D01*
X116938543Y-70502195D01*
X116885258Y-70455279D01*
X116865796Y-70387002D01*
X116886337Y-70319042D01*
X116938543Y-70273805D01*
X116940997Y-70272660D01*
X116977749Y-70255523D01*
X117165300Y-70124198D01*
X117327198Y-69962300D01*
X117338618Y-69945990D01*
X117349656Y-69930228D01*
X117405113Y-69885900D01*
X117452868Y-69876500D01*
X117790559Y-69876500D01*
X117808819Y-69877830D01*
X117813715Y-69878547D01*
X117832789Y-69881341D01*
X117866146Y-69878422D01*
X117885385Y-69876740D01*
X117890878Y-69876500D01*
X117899175Y-69876500D01*
X117899180Y-69876500D01*
X117921230Y-69873922D01*
X117931182Y-69872759D01*
X117932985Y-69872574D01*
X118009426Y-69865887D01*
X118009430Y-69865885D01*
X118016618Y-69864402D01*
X118016631Y-69864468D01*
X118023987Y-69862836D01*
X118023972Y-69862771D01*
X118031102Y-69861080D01*
X118031113Y-69861079D01*
X118103239Y-69834826D01*
X118104862Y-69834261D01*
X118177738Y-69810114D01*
X118177747Y-69810108D01*
X118184389Y-69807012D01*
X118184418Y-69807074D01*
X118191203Y-69803789D01*
X118191173Y-69803729D01*
X118197724Y-69800437D01*
X118197732Y-69800435D01*
X118261883Y-69758240D01*
X118263348Y-69757307D01*
X118328651Y-69717030D01*
X118328659Y-69717021D01*
X118334408Y-69712477D01*
X118334450Y-69712531D01*
X118340289Y-69707775D01*
X118340246Y-69707723D01*
X118345864Y-69703007D01*
X118345874Y-69703001D01*
X118398551Y-69647165D01*
X118399818Y-69645862D01*
X119170277Y-68875404D01*
X119232589Y-68841379D01*
X119259372Y-68838500D01*
X125326629Y-68838500D01*
X125394750Y-68858502D01*
X125415724Y-68875405D01*
X127697595Y-71157275D01*
X127731620Y-71219587D01*
X127734500Y-71246370D01*
X127734500Y-79420628D01*
X127714498Y-79488749D01*
X127697595Y-79509723D01*
X117619225Y-89588092D01*
X117605376Y-89600062D01*
X117585943Y-89614530D01*
X117552007Y-89654971D01*
X117548300Y-89659017D01*
X117542421Y-89664897D01*
X117542414Y-89664905D01*
X117522430Y-89690177D01*
X117521276Y-89691594D01*
X117471964Y-89750364D01*
X117467935Y-89756491D01*
X117467880Y-89756455D01*
X117463825Y-89762820D01*
X117463882Y-89762855D01*
X117460030Y-89769099D01*
X117427609Y-89838623D01*
X117426812Y-89840270D01*
X117392393Y-89908806D01*
X117389882Y-89915707D01*
X117389820Y-89915684D01*
X117387343Y-89922810D01*
X117387404Y-89922831D01*
X117385096Y-89929795D01*
X117369574Y-90004960D01*
X117369178Y-90006747D01*
X117351500Y-90081341D01*
X117350648Y-90088634D01*
X117350581Y-90088626D01*
X117349814Y-90096126D01*
X117349881Y-90096132D01*
X117349241Y-90103443D01*
X117351473Y-90180174D01*
X117351500Y-90182006D01*
X117351500Y-115505559D01*
X117350170Y-115523819D01*
X117346659Y-115547786D01*
X117346659Y-115547794D01*
X117351260Y-115600372D01*
X117351500Y-115605866D01*
X117351500Y-115614184D01*
X117355242Y-115646199D01*
X117355428Y-115648020D01*
X117362112Y-115724419D01*
X117363596Y-115731606D01*
X117363531Y-115731619D01*
X117365165Y-115738989D01*
X117365229Y-115738975D01*
X117366921Y-115746115D01*
X117379949Y-115781908D01*
X117393175Y-115818247D01*
X117393761Y-115819934D01*
X117417885Y-115892736D01*
X117420987Y-115899388D01*
X117420926Y-115899416D01*
X117424211Y-115906202D01*
X117424270Y-115906173D01*
X117427563Y-115912730D01*
X117469736Y-115976850D01*
X117470717Y-115978390D01*
X117510970Y-116043651D01*
X117510972Y-116043653D01*
X117515522Y-116049408D01*
X117515468Y-116049450D01*
X117520228Y-116055292D01*
X117520279Y-116055250D01*
X117524997Y-116060872D01*
X117580822Y-116113540D01*
X117582136Y-116114817D01*
X120044092Y-118576773D01*
X120056065Y-118590627D01*
X120070531Y-118610058D01*
X120109320Y-118642606D01*
X120110975Y-118643994D01*
X120115021Y-118647702D01*
X120120899Y-118653580D01*
X120120900Y-118653581D01*
X120146170Y-118673562D01*
X120147584Y-118674713D01*
X120206360Y-118724032D01*
X120206366Y-118724035D01*
X120212495Y-118728067D01*
X120212457Y-118728123D01*
X120218813Y-118732172D01*
X120218849Y-118732115D01*
X120225094Y-118735967D01*
X120294671Y-118768410D01*
X120296183Y-118769141D01*
X120364812Y-118803609D01*
X120364814Y-118803609D01*
X120371707Y-118806118D01*
X120371684Y-118806180D01*
X120378810Y-118808657D01*
X120378831Y-118808595D01*
X120385793Y-118810902D01*
X120460992Y-118826428D01*
X120462629Y-118826791D01*
X120537344Y-118844500D01*
X120537346Y-118844500D01*
X120544632Y-118845352D01*
X120544624Y-118845418D01*
X120552122Y-118846184D01*
X120552128Y-118846118D01*
X120559434Y-118846756D01*
X120559442Y-118846758D01*
X120605967Y-118845404D01*
X120636140Y-118844527D01*
X120637972Y-118844500D01*
X123923415Y-118844500D01*
X123991536Y-118864502D01*
X124030655Y-118904352D01*
X124039713Y-118919037D01*
X124039720Y-118919046D01*
X124160953Y-119040279D01*
X124160959Y-119040284D01*
X124160960Y-119040285D01*
X124306899Y-119130302D01*
X124469664Y-119184236D01*
X124489756Y-119186288D01*
X124570120Y-119194500D01*
X124570128Y-119194500D01*
X124827629Y-119194500D01*
X124895750Y-119214502D01*
X124916724Y-119231405D01*
X125612092Y-119926773D01*
X125624065Y-119940627D01*
X125638531Y-119960058D01*
X125671993Y-119988136D01*
X125678975Y-119993994D01*
X125683021Y-119997702D01*
X125688899Y-120003580D01*
X125688900Y-120003581D01*
X125714170Y-120023562D01*
X125715584Y-120024713D01*
X125774360Y-120074032D01*
X125774366Y-120074035D01*
X125780495Y-120078067D01*
X125780457Y-120078123D01*
X125786813Y-120082172D01*
X125786849Y-120082115D01*
X125793094Y-120085967D01*
X125862671Y-120118410D01*
X125864183Y-120119141D01*
X125932812Y-120153609D01*
X125932814Y-120153609D01*
X125939707Y-120156118D01*
X125939684Y-120156180D01*
X125946810Y-120158657D01*
X125946831Y-120158595D01*
X125953793Y-120160902D01*
X126028992Y-120176428D01*
X126030629Y-120176791D01*
X126105344Y-120194500D01*
X126105346Y-120194500D01*
X126112632Y-120195352D01*
X126112624Y-120195418D01*
X126120122Y-120196184D01*
X126120128Y-120196118D01*
X126127434Y-120196756D01*
X126127442Y-120196758D01*
X126173967Y-120195404D01*
X126204140Y-120194527D01*
X126205972Y-120194500D01*
X142535559Y-120194500D01*
X142553819Y-120195830D01*
X142558715Y-120196547D01*
X142577789Y-120199341D01*
X142611146Y-120196422D01*
X142630385Y-120194740D01*
X142635878Y-120194500D01*
X142644175Y-120194500D01*
X142644180Y-120194500D01*
X142666230Y-120191922D01*
X142676182Y-120190759D01*
X142677985Y-120190574D01*
X142754426Y-120183887D01*
X142754430Y-120183885D01*
X142761618Y-120182402D01*
X142761631Y-120182468D01*
X142768987Y-120180836D01*
X142768972Y-120180771D01*
X142776102Y-120179080D01*
X142776113Y-120179079D01*
X142848239Y-120152826D01*
X142849862Y-120152261D01*
X142922738Y-120128114D01*
X142922747Y-120128108D01*
X142929389Y-120125012D01*
X142929418Y-120125074D01*
X142936203Y-120121789D01*
X142936173Y-120121729D01*
X142942724Y-120118437D01*
X142942732Y-120118435D01*
X143006883Y-120076240D01*
X143008348Y-120075307D01*
X143073651Y-120035030D01*
X143073659Y-120035021D01*
X143079408Y-120030477D01*
X143079450Y-120030531D01*
X143085289Y-120025775D01*
X143085246Y-120025723D01*
X143090864Y-120021007D01*
X143090874Y-120021001D01*
X143143551Y-119965164D01*
X143144783Y-119963896D01*
X143896907Y-119211773D01*
X143959217Y-119177750D01*
X144030033Y-119182815D01*
X144075095Y-119211776D01*
X144754092Y-119890773D01*
X144766065Y-119904627D01*
X144780531Y-119924058D01*
X144812434Y-119950828D01*
X144820975Y-119957994D01*
X144825021Y-119961702D01*
X144828496Y-119965177D01*
X144830900Y-119967581D01*
X144856170Y-119987562D01*
X144857584Y-119988713D01*
X144916360Y-120038032D01*
X144916366Y-120038035D01*
X144922495Y-120042067D01*
X144922457Y-120042123D01*
X144928813Y-120046172D01*
X144928849Y-120046115D01*
X144935094Y-120049967D01*
X145004671Y-120082410D01*
X145006183Y-120083141D01*
X145074812Y-120117609D01*
X145074814Y-120117609D01*
X145081707Y-120120118D01*
X145081684Y-120120180D01*
X145088810Y-120122657D01*
X145088831Y-120122595D01*
X145095793Y-120124902D01*
X145170992Y-120140428D01*
X145172629Y-120140791D01*
X145247344Y-120158500D01*
X145247346Y-120158500D01*
X145254632Y-120159352D01*
X145254624Y-120159418D01*
X145262122Y-120160184D01*
X145262128Y-120160118D01*
X145269434Y-120160756D01*
X145269442Y-120160758D01*
X145315967Y-120159404D01*
X145346140Y-120158527D01*
X145347972Y-120158500D01*
X161485559Y-120158500D01*
X161503819Y-120159830D01*
X161508715Y-120160547D01*
X161527789Y-120163341D01*
X161561146Y-120160422D01*
X161580385Y-120158740D01*
X161585878Y-120158500D01*
X161594175Y-120158500D01*
X161594180Y-120158500D01*
X161616230Y-120155922D01*
X161626182Y-120154759D01*
X161627985Y-120154574D01*
X161704426Y-120147887D01*
X161704430Y-120147885D01*
X161711618Y-120146402D01*
X161711631Y-120146468D01*
X161718987Y-120144836D01*
X161718972Y-120144771D01*
X161726102Y-120143080D01*
X161726113Y-120143079D01*
X161798239Y-120116826D01*
X161799862Y-120116261D01*
X161872738Y-120092114D01*
X161872747Y-120092108D01*
X161879389Y-120089012D01*
X161879418Y-120089074D01*
X161886203Y-120085789D01*
X161886173Y-120085729D01*
X161892724Y-120082437D01*
X161892732Y-120082435D01*
X161956883Y-120040240D01*
X161958348Y-120039307D01*
X162023651Y-119999030D01*
X162023659Y-119999021D01*
X162029408Y-119994477D01*
X162029450Y-119994531D01*
X162035289Y-119989775D01*
X162035246Y-119989723D01*
X162040864Y-119985007D01*
X162040874Y-119985001D01*
X162093551Y-119929165D01*
X162094818Y-119927862D01*
X162525277Y-119497404D01*
X162587589Y-119463379D01*
X162614372Y-119460500D01*
X162871880Y-119460500D01*
X162944936Y-119453035D01*
X162972336Y-119450236D01*
X163135101Y-119396302D01*
X163281040Y-119306285D01*
X163402285Y-119185040D01*
X163492302Y-119039101D01*
X163546236Y-118876336D01*
X163551313Y-118826644D01*
X163556500Y-118775880D01*
X163556500Y-117928119D01*
X163546236Y-117827666D01*
X163546236Y-117827664D01*
X163492302Y-117664899D01*
X163402285Y-117518960D01*
X163402284Y-117518959D01*
X163402279Y-117518953D01*
X163281046Y-117397720D01*
X163281040Y-117397715D01*
X163254507Y-117381349D01*
X163135101Y-117307698D01*
X162972336Y-117253764D01*
X162972333Y-117253763D01*
X162871880Y-117243500D01*
X162871872Y-117243500D01*
X162324128Y-117243500D01*
X162324120Y-117243500D01*
X162223666Y-117253763D01*
X162060899Y-117307698D01*
X161914959Y-117397715D01*
X161914953Y-117397720D01*
X161793720Y-117518953D01*
X161793715Y-117518959D01*
X161703698Y-117664899D01*
X161649763Y-117827666D01*
X161639500Y-117928119D01*
X161639500Y-118185628D01*
X161619498Y-118253749D01*
X161602596Y-118274723D01*
X161272722Y-118604596D01*
X161210412Y-118638620D01*
X161183629Y-118641500D01*
X148366903Y-118641500D01*
X148298782Y-118621498D01*
X148252289Y-118567842D01*
X148241556Y-118502692D01*
X148244500Y-118473879D01*
X148244500Y-118216371D01*
X148264502Y-118148250D01*
X148281400Y-118127280D01*
X149080781Y-117327898D01*
X149094620Y-117315938D01*
X149114058Y-117301469D01*
X149148001Y-117261015D01*
X149151700Y-117256979D01*
X149157580Y-117251101D01*
X149177621Y-117225753D01*
X149178674Y-117224461D01*
X149228032Y-117165640D01*
X149228033Y-117165637D01*
X149228037Y-117165633D01*
X149232066Y-117159508D01*
X149232122Y-117159545D01*
X149236171Y-117153190D01*
X149236113Y-117153154D01*
X149239963Y-117146911D01*
X149239962Y-117146911D01*
X149239967Y-117146906D01*
X149272409Y-117077330D01*
X149273192Y-117075715D01*
X149307609Y-117007188D01*
X149307610Y-117007181D01*
X149310120Y-117000289D01*
X149310183Y-117000312D01*
X149312657Y-116993196D01*
X149312593Y-116993175D01*
X149314899Y-116986211D01*
X149314902Y-116986207D01*
X149330431Y-116910991D01*
X149330788Y-116909383D01*
X149348500Y-116834656D01*
X149348500Y-116834653D01*
X149349352Y-116827368D01*
X149349418Y-116827375D01*
X149350184Y-116819877D01*
X149350118Y-116819872D01*
X149350756Y-116812566D01*
X149350758Y-116812558D01*
X149349129Y-116756558D01*
X149348527Y-116735858D01*
X149348500Y-116734026D01*
X149348500Y-111692064D01*
X149368502Y-111623943D01*
X149422158Y-111577450D01*
X149492432Y-111567346D01*
X149557012Y-111596840D01*
X149595396Y-111656566D01*
X149596945Y-111662348D01*
X149624807Y-111777194D01*
X149628295Y-111791572D01*
X149628298Y-111791583D01*
X149698885Y-111946144D01*
X149715604Y-111982753D01*
X149837514Y-112153952D01*
X149989622Y-112298986D01*
X150166428Y-112412613D01*
X150361543Y-112490725D01*
X150567915Y-112530500D01*
X150567919Y-112530500D01*
X150725423Y-112530500D01*
X150725425Y-112530500D01*
X150882218Y-112515528D01*
X151083875Y-112456316D01*
X151270682Y-112360011D01*
X151435886Y-112230092D01*
X151573519Y-112071256D01*
X151678604Y-111889244D01*
X151747344Y-111690633D01*
X151777254Y-111482602D01*
X151772243Y-111377396D01*
X158458745Y-111377396D01*
X158468744Y-111587319D01*
X158468746Y-111587332D01*
X158518295Y-111791572D01*
X158518298Y-111791583D01*
X158588885Y-111946144D01*
X158605604Y-111982753D01*
X158727514Y-112153952D01*
X158879622Y-112298986D01*
X159056428Y-112412613D01*
X159251543Y-112490725D01*
X159457915Y-112530500D01*
X159457919Y-112530500D01*
X159615423Y-112530500D01*
X159615425Y-112530500D01*
X159772218Y-112515528D01*
X159973875Y-112456316D01*
X160160682Y-112360011D01*
X160325886Y-112230092D01*
X160463519Y-112071256D01*
X160568604Y-111889244D01*
X160637344Y-111690633D01*
X160663980Y-111505376D01*
X162388723Y-111505376D01*
X162418880Y-111805153D01*
X162488731Y-112098263D01*
X162488732Y-112098264D01*
X162597020Y-112379429D01*
X162741826Y-112643667D01*
X162920554Y-112886238D01*
X163130020Y-113102824D01*
X163366485Y-113289558D01*
X163625730Y-113443109D01*
X163903128Y-113560736D01*
X164193729Y-113640340D01*
X164492347Y-113680500D01*
X164492351Y-113680500D01*
X164718234Y-113680500D01*
X164718244Y-113680500D01*
X164943634Y-113665412D01*
X165238903Y-113605396D01*
X165523537Y-113506560D01*
X165792459Y-113370668D01*
X166040869Y-113200144D01*
X166264333Y-112998032D01*
X166458865Y-112767939D01*
X166620993Y-112513970D01*
X166641208Y-112470407D01*
X166688024Y-112417038D01*
X166756265Y-112397450D01*
X166824263Y-112417866D01*
X166870429Y-112471803D01*
X166881500Y-112523448D01*
X166881500Y-116243628D01*
X166861498Y-116311749D01*
X166844595Y-116332722D01*
X165970722Y-117206596D01*
X165908412Y-117240620D01*
X165881629Y-117243500D01*
X165624120Y-117243500D01*
X165523666Y-117253763D01*
X165360899Y-117307698D01*
X165214959Y-117397715D01*
X165214953Y-117397720D01*
X165093720Y-117518953D01*
X165093715Y-117518959D01*
X165003698Y-117664899D01*
X164949763Y-117827666D01*
X164939500Y-117928119D01*
X164939500Y-118775880D01*
X164939499Y-118775880D01*
X164949763Y-118876333D01*
X164949764Y-118876336D01*
X165003698Y-119039101D01*
X165059952Y-119130302D01*
X165093715Y-119185040D01*
X165093720Y-119185046D01*
X165214953Y-119306279D01*
X165214959Y-119306284D01*
X165214960Y-119306285D01*
X165360899Y-119396302D01*
X165523664Y-119450236D01*
X165543756Y-119452288D01*
X165624120Y-119460500D01*
X165624128Y-119460500D01*
X166171880Y-119460500D01*
X166244936Y-119453035D01*
X166272336Y-119450236D01*
X166435101Y-119396302D01*
X166581040Y-119306285D01*
X166702285Y-119185040D01*
X166792302Y-119039101D01*
X166846236Y-118876336D01*
X166851313Y-118826644D01*
X166856500Y-118775880D01*
X166856500Y-118518370D01*
X166876502Y-118450249D01*
X166893400Y-118429280D01*
X168130778Y-117191901D01*
X168144617Y-117179941D01*
X168164058Y-117165469D01*
X168198001Y-117125015D01*
X168201700Y-117120979D01*
X168207580Y-117115101D01*
X168227621Y-117089753D01*
X168228674Y-117088461D01*
X168278032Y-117029640D01*
X168278033Y-117029637D01*
X168278037Y-117029633D01*
X168282066Y-117023508D01*
X168282122Y-117023545D01*
X168286173Y-117017187D01*
X168286115Y-117017151D01*
X168289970Y-117010901D01*
X168322389Y-116941376D01*
X168323188Y-116939725D01*
X168324470Y-116937172D01*
X168357609Y-116871188D01*
X168357610Y-116871181D01*
X168360119Y-116864291D01*
X168360184Y-116864314D01*
X168362658Y-116857197D01*
X168362594Y-116857176D01*
X168364903Y-116850207D01*
X168369618Y-116827368D01*
X168380432Y-116774993D01*
X168380795Y-116773354D01*
X168398500Y-116698656D01*
X168398500Y-116698655D01*
X168399352Y-116691367D01*
X168399418Y-116691374D01*
X168400184Y-116683876D01*
X168400118Y-116683871D01*
X168400756Y-116676566D01*
X168400758Y-116676558D01*
X168399400Y-116629887D01*
X168398527Y-116599845D01*
X168398500Y-116598013D01*
X168398500Y-111692064D01*
X168418502Y-111623943D01*
X168472158Y-111577450D01*
X168542432Y-111567346D01*
X168607012Y-111596840D01*
X168645396Y-111656566D01*
X168646945Y-111662348D01*
X168674807Y-111777194D01*
X168678295Y-111791572D01*
X168678298Y-111791583D01*
X168748885Y-111946144D01*
X168765604Y-111982753D01*
X168887514Y-112153952D01*
X169039622Y-112298986D01*
X169216428Y-112412613D01*
X169411543Y-112490725D01*
X169617915Y-112530500D01*
X169617919Y-112530500D01*
X169775423Y-112530500D01*
X169775425Y-112530500D01*
X169932218Y-112515528D01*
X170133875Y-112456316D01*
X170320682Y-112360011D01*
X170485886Y-112230092D01*
X170623519Y-112071256D01*
X170728604Y-111889244D01*
X170797344Y-111690633D01*
X170827254Y-111482602D01*
X170822243Y-111377396D01*
X170817255Y-111272680D01*
X170817254Y-111272675D01*
X170817254Y-111272670D01*
X170767704Y-111068424D01*
X170767701Y-111068419D01*
X170767701Y-111068416D01*
X170723100Y-110970755D01*
X170680396Y-110877247D01*
X170558486Y-110706048D01*
X170406378Y-110561014D01*
X170229572Y-110447387D01*
X170034457Y-110369275D01*
X170034456Y-110369274D01*
X170034454Y-110369274D01*
X169828089Y-110329500D01*
X169828085Y-110329500D01*
X169670575Y-110329500D01*
X169670573Y-110329500D01*
X169670555Y-110329501D01*
X169513792Y-110344470D01*
X169513777Y-110344473D01*
X169312127Y-110403683D01*
X169312116Y-110403687D01*
X169125321Y-110499986D01*
X169125318Y-110499988D01*
X168960115Y-110629907D01*
X168960107Y-110629914D01*
X168822485Y-110788738D01*
X168822479Y-110788746D01*
X168717396Y-110970755D01*
X168717393Y-110970760D01*
X168648658Y-111169359D01*
X168647242Y-111175198D01*
X168645019Y-111174658D01*
X168619720Y-111230049D01*
X168559991Y-111268429D01*
X168488995Y-111268425D01*
X168429271Y-111230038D01*
X168399781Y-111165455D01*
X168398500Y-111147531D01*
X168398500Y-109284441D01*
X168399830Y-109266182D01*
X168400940Y-109258600D01*
X168403341Y-109242211D01*
X168399175Y-109194589D01*
X168398740Y-109189614D01*
X168398500Y-109184121D01*
X168398500Y-109175813D01*
X168394759Y-109143822D01*
X168394575Y-109142033D01*
X168387887Y-109065574D01*
X168387885Y-109065570D01*
X168386403Y-109058388D01*
X168386469Y-109058374D01*
X168384837Y-109051012D01*
X168384772Y-109051028D01*
X168383080Y-109043893D01*
X168383079Y-109043891D01*
X168383079Y-109043887D01*
X168356842Y-108971803D01*
X168356241Y-108970073D01*
X168343621Y-108931989D01*
X168332114Y-108897262D01*
X168332109Y-108897255D01*
X168329012Y-108890611D01*
X168329074Y-108890581D01*
X168325788Y-108883795D01*
X168325728Y-108883826D01*
X168322433Y-108877265D01*
X168298594Y-108841020D01*
X168280266Y-108813155D01*
X168279293Y-108811626D01*
X168239032Y-108746351D01*
X168234478Y-108740592D01*
X168234531Y-108740549D01*
X168229766Y-108734700D01*
X168229715Y-108734744D01*
X168224998Y-108729122D01*
X168169159Y-108676441D01*
X168167878Y-108675197D01*
X167978404Y-108485723D01*
X167944379Y-108423412D01*
X167941500Y-108396629D01*
X167941500Y-107842247D01*
X167961502Y-107774126D01*
X168001666Y-107734814D01*
X168131376Y-107655328D01*
X168323898Y-107490898D01*
X168488328Y-107298376D01*
X168620616Y-107082502D01*
X168717505Y-106848591D01*
X168776609Y-106602403D01*
X168796474Y-106350000D01*
X168776609Y-106097597D01*
X168717505Y-105851409D01*
X168620616Y-105617498D01*
X168488328Y-105401624D01*
X168323898Y-105209102D01*
X168131376Y-105044672D01*
X167915502Y-104912384D01*
X167681591Y-104815495D01*
X167681589Y-104815494D01*
X167513177Y-104775062D01*
X167435403Y-104756391D01*
X167183000Y-104736526D01*
X166930597Y-104756391D01*
X166684410Y-104815494D01*
X166450499Y-104912383D01*
X166234625Y-105044671D01*
X166042102Y-105209102D01*
X165877671Y-105401625D01*
X165745383Y-105617499D01*
X165648494Y-105851410D01*
X165589391Y-106097597D01*
X165569526Y-106349999D01*
X165589391Y-106602402D01*
X165648494Y-106848589D01*
X165648495Y-106848591D01*
X165745384Y-107082502D01*
X165877672Y-107298376D01*
X166042102Y-107490898D01*
X166234624Y-107655328D01*
X166234626Y-107655329D01*
X166234627Y-107655330D01*
X166364334Y-107734814D01*
X166411966Y-107787461D01*
X166424500Y-107842247D01*
X166424500Y-108698559D01*
X166423170Y-108716819D01*
X166419659Y-108740786D01*
X166419659Y-108740794D01*
X166424260Y-108793372D01*
X166424500Y-108798866D01*
X166424500Y-108807184D01*
X166428242Y-108839199D01*
X166428428Y-108841020D01*
X166435112Y-108917419D01*
X166436596Y-108924606D01*
X166436531Y-108924619D01*
X166438165Y-108931989D01*
X166438229Y-108931975D01*
X166439921Y-108939115D01*
X166451189Y-108970073D01*
X166466175Y-109011247D01*
X166466761Y-109012934D01*
X166490885Y-109085736D01*
X166493987Y-109092388D01*
X166493926Y-109092416D01*
X166497211Y-109099202D01*
X166497270Y-109099173D01*
X166500563Y-109105730D01*
X166542736Y-109169850D01*
X166543717Y-109171390D01*
X166583970Y-109236651D01*
X166583972Y-109236653D01*
X166588522Y-109242408D01*
X166588468Y-109242450D01*
X166593228Y-109248292D01*
X166593279Y-109248250D01*
X166597997Y-109253872D01*
X166597998Y-109253873D01*
X166597999Y-109253874D01*
X166646107Y-109299262D01*
X166653822Y-109306540D01*
X166655136Y-109307817D01*
X166844595Y-109497276D01*
X166878621Y-109559588D01*
X166881500Y-109586371D01*
X166881500Y-110339773D01*
X166861498Y-110407894D01*
X166807842Y-110454387D01*
X166737568Y-110464491D01*
X166672988Y-110434997D01*
X166645004Y-110400326D01*
X166627987Y-110369274D01*
X166544175Y-110216335D01*
X166511607Y-110172134D01*
X166365445Y-109973761D01*
X166155980Y-109757176D01*
X165919519Y-109570445D01*
X165919517Y-109570443D01*
X165857916Y-109533957D01*
X165660270Y-109416891D01*
X165382872Y-109299264D01*
X165092271Y-109219660D01*
X164793653Y-109179500D01*
X164567756Y-109179500D01*
X164362855Y-109193216D01*
X164342365Y-109194588D01*
X164342357Y-109194589D01*
X164047100Y-109254603D01*
X164047092Y-109254605D01*
X163762467Y-109353438D01*
X163762458Y-109353442D01*
X163493539Y-109489332D01*
X163245129Y-109659857D01*
X163245123Y-109659862D01*
X163021666Y-109861968D01*
X163021665Y-109861970D01*
X162827135Y-110092060D01*
X162827129Y-110092068D01*
X162665008Y-110346026D01*
X162538178Y-110619336D01*
X162538177Y-110619341D01*
X162448907Y-110907119D01*
X162398791Y-111204226D01*
X162395129Y-111313735D01*
X162393002Y-111377398D01*
X162388723Y-111505376D01*
X160663980Y-111505376D01*
X160667254Y-111482602D01*
X160662243Y-111377396D01*
X160657255Y-111272680D01*
X160657254Y-111272675D01*
X160657254Y-111272670D01*
X160607704Y-111068424D01*
X160607701Y-111068419D01*
X160607701Y-111068416D01*
X160563100Y-110970755D01*
X160520396Y-110877247D01*
X160398486Y-110706048D01*
X160364124Y-110673284D01*
X160328626Y-110611799D01*
X160332004Y-110540883D01*
X160373186Y-110483050D01*
X160439097Y-110456664D01*
X160480481Y-110459573D01*
X160580597Y-110483609D01*
X160833000Y-110503474D01*
X161085403Y-110483609D01*
X161331591Y-110424505D01*
X161565502Y-110327616D01*
X161781376Y-110195328D01*
X161973898Y-110030898D01*
X162138328Y-109838376D01*
X162270616Y-109622502D01*
X162367505Y-109388591D01*
X162426609Y-109142403D01*
X162446474Y-108890000D01*
X162426609Y-108637597D01*
X162367505Y-108391409D01*
X162270616Y-108157498D01*
X162138328Y-107941624D01*
X161973898Y-107749102D01*
X161781376Y-107584672D01*
X161565502Y-107452384D01*
X161331591Y-107355495D01*
X161331589Y-107355494D01*
X161163177Y-107315062D01*
X161085403Y-107296391D01*
X160833000Y-107276526D01*
X160832999Y-107276526D01*
X160580597Y-107296391D01*
X160334410Y-107355494D01*
X160100499Y-107452383D01*
X159884625Y-107584671D01*
X159692102Y-107749102D01*
X159527671Y-107941625D01*
X159395383Y-108157499D01*
X159298494Y-108391410D01*
X159239391Y-108637597D01*
X159225573Y-108813173D01*
X159219526Y-108890000D01*
X159239391Y-109142403D01*
X159246162Y-109170605D01*
X159298494Y-109388589D01*
X159298495Y-109388591D01*
X159395384Y-109622502D01*
X159527672Y-109838376D01*
X159692102Y-110030898D01*
X159763723Y-110092068D01*
X159787860Y-110112683D01*
X159826669Y-110172134D01*
X159827175Y-110243128D01*
X159789219Y-110303127D01*
X159724851Y-110333080D01*
X159682184Y-110332217D01*
X159668091Y-110329501D01*
X159668089Y-110329500D01*
X159668085Y-110329500D01*
X159510575Y-110329500D01*
X159510573Y-110329500D01*
X159510555Y-110329501D01*
X159353792Y-110344470D01*
X159353777Y-110344473D01*
X159152127Y-110403683D01*
X159152116Y-110403687D01*
X158965321Y-110499986D01*
X158965318Y-110499988D01*
X158800115Y-110629907D01*
X158800107Y-110629914D01*
X158662485Y-110788738D01*
X158662479Y-110788746D01*
X158557396Y-110970755D01*
X158557393Y-110970760D01*
X158488658Y-111169359D01*
X158488654Y-111169374D01*
X158458745Y-111377396D01*
X151772243Y-111377396D01*
X151767255Y-111272680D01*
X151767254Y-111272675D01*
X151767254Y-111272670D01*
X151717704Y-111068424D01*
X151717701Y-111068419D01*
X151717701Y-111068416D01*
X151673100Y-110970755D01*
X151630396Y-110877247D01*
X151508486Y-110706048D01*
X151356378Y-110561014D01*
X151179572Y-110447387D01*
X150984457Y-110369275D01*
X150984456Y-110369274D01*
X150984454Y-110369274D01*
X150778089Y-110329500D01*
X150778085Y-110329500D01*
X150620575Y-110329500D01*
X150620573Y-110329500D01*
X150620555Y-110329501D01*
X150463792Y-110344470D01*
X150463777Y-110344473D01*
X150262127Y-110403683D01*
X150262116Y-110403687D01*
X150075321Y-110499986D01*
X150075318Y-110499988D01*
X149910115Y-110629907D01*
X149910107Y-110629914D01*
X149772485Y-110788738D01*
X149772479Y-110788746D01*
X149667396Y-110970755D01*
X149667393Y-110970760D01*
X149598658Y-111169359D01*
X149597242Y-111175198D01*
X149595019Y-111174658D01*
X149569720Y-111230049D01*
X149509991Y-111268429D01*
X149438995Y-111268425D01*
X149379271Y-111230038D01*
X149349781Y-111165455D01*
X149348500Y-111147531D01*
X149348500Y-109284441D01*
X149349830Y-109266182D01*
X149350940Y-109258600D01*
X149353341Y-109242211D01*
X149349175Y-109194589D01*
X149348740Y-109189614D01*
X149348500Y-109184121D01*
X149348500Y-109175813D01*
X149344759Y-109143822D01*
X149344575Y-109142033D01*
X149337887Y-109065574D01*
X149337885Y-109065570D01*
X149336403Y-109058388D01*
X149336469Y-109058374D01*
X149334837Y-109051012D01*
X149334772Y-109051028D01*
X149333080Y-109043893D01*
X149333079Y-109043891D01*
X149333079Y-109043887D01*
X149306842Y-108971803D01*
X149306241Y-108970073D01*
X149293621Y-108931989D01*
X149282114Y-108897262D01*
X149282109Y-108897255D01*
X149279012Y-108890611D01*
X149279074Y-108890581D01*
X149275788Y-108883795D01*
X149275728Y-108883826D01*
X149272433Y-108877265D01*
X149248594Y-108841020D01*
X149230266Y-108813155D01*
X149229293Y-108811626D01*
X149189032Y-108746351D01*
X149184478Y-108740592D01*
X149184531Y-108740549D01*
X149179766Y-108734700D01*
X149179715Y-108734744D01*
X149174998Y-108729122D01*
X149119159Y-108676441D01*
X149117878Y-108675197D01*
X148928403Y-108485722D01*
X148894379Y-108423411D01*
X148891500Y-108396628D01*
X148891500Y-107842247D01*
X148911502Y-107774126D01*
X148951666Y-107734814D01*
X149081376Y-107655328D01*
X149273898Y-107490898D01*
X149438328Y-107298376D01*
X149570616Y-107082502D01*
X149667505Y-106848591D01*
X149726609Y-106602403D01*
X149746474Y-106350000D01*
X149726609Y-106097597D01*
X149667505Y-105851409D01*
X149570616Y-105617498D01*
X149438328Y-105401624D01*
X149273898Y-105209102D01*
X149081376Y-105044672D01*
X148865502Y-104912384D01*
X148631591Y-104815495D01*
X148631589Y-104815494D01*
X148463177Y-104775062D01*
X148385403Y-104756391D01*
X148133000Y-104736526D01*
X147880597Y-104756391D01*
X147634410Y-104815494D01*
X147400499Y-104912383D01*
X147184625Y-105044671D01*
X146992102Y-105209102D01*
X146827671Y-105401625D01*
X146695383Y-105617499D01*
X146598494Y-105851410D01*
X146539391Y-106097597D01*
X146519526Y-106349999D01*
X146539391Y-106602402D01*
X146598494Y-106848589D01*
X146598495Y-106848591D01*
X146695384Y-107082502D01*
X146827672Y-107298376D01*
X146992102Y-107490898D01*
X147184624Y-107655328D01*
X147184626Y-107655329D01*
X147184627Y-107655330D01*
X147314334Y-107734814D01*
X147361966Y-107787461D01*
X147374500Y-107842247D01*
X147374500Y-108698559D01*
X147373170Y-108716819D01*
X147369659Y-108740786D01*
X147369659Y-108740794D01*
X147374260Y-108793372D01*
X147374500Y-108798866D01*
X147374500Y-108807184D01*
X147378242Y-108839199D01*
X147378428Y-108841020D01*
X147385112Y-108917419D01*
X147386596Y-108924606D01*
X147386531Y-108924619D01*
X147388165Y-108931989D01*
X147388229Y-108931975D01*
X147389921Y-108939115D01*
X147401189Y-108970073D01*
X147416175Y-109011247D01*
X147416761Y-109012934D01*
X147440885Y-109085736D01*
X147443987Y-109092388D01*
X147443926Y-109092416D01*
X147447211Y-109099202D01*
X147447270Y-109099173D01*
X147450563Y-109105730D01*
X147492736Y-109169850D01*
X147493717Y-109171390D01*
X147533970Y-109236651D01*
X147533972Y-109236653D01*
X147538522Y-109242408D01*
X147538468Y-109242450D01*
X147543228Y-109248292D01*
X147543279Y-109248250D01*
X147547997Y-109253872D01*
X147547998Y-109253873D01*
X147547999Y-109253874D01*
X147596107Y-109299262D01*
X147603805Y-109306524D01*
X147605119Y-109307800D01*
X147714210Y-109416891D01*
X147794595Y-109497275D01*
X147828620Y-109559587D01*
X147831500Y-109586371D01*
X147831500Y-110339773D01*
X147811498Y-110407894D01*
X147757842Y-110454387D01*
X147687568Y-110464491D01*
X147622988Y-110434997D01*
X147595004Y-110400326D01*
X147577987Y-110369274D01*
X147494175Y-110216335D01*
X147461607Y-110172134D01*
X147315445Y-109973761D01*
X147105980Y-109757176D01*
X146869519Y-109570445D01*
X146869517Y-109570443D01*
X146807916Y-109533957D01*
X146610270Y-109416891D01*
X146332872Y-109299264D01*
X146042271Y-109219660D01*
X145743653Y-109179500D01*
X145517756Y-109179500D01*
X145312856Y-109193216D01*
X145292365Y-109194588D01*
X145292357Y-109194589D01*
X144997100Y-109254603D01*
X144997092Y-109254605D01*
X144712467Y-109353438D01*
X144712458Y-109353442D01*
X144443539Y-109489332D01*
X144195129Y-109659857D01*
X144195123Y-109659862D01*
X143971666Y-109861968D01*
X143971665Y-109861970D01*
X143777135Y-110092060D01*
X143777129Y-110092068D01*
X143615008Y-110346026D01*
X143488178Y-110619336D01*
X143488177Y-110619341D01*
X143398907Y-110907119D01*
X143348791Y-111204226D01*
X143345129Y-111313735D01*
X143343002Y-111377398D01*
X143338723Y-111505376D01*
X143368880Y-111805153D01*
X143438731Y-112098263D01*
X143438732Y-112098264D01*
X143547020Y-112379429D01*
X143691826Y-112643667D01*
X143870553Y-112886238D01*
X143870554Y-112886238D01*
X144080020Y-113102824D01*
X144316485Y-113289558D01*
X144575730Y-113443109D01*
X144853128Y-113560736D01*
X145143729Y-113640340D01*
X145442347Y-113680500D01*
X145442351Y-113680500D01*
X145668234Y-113680500D01*
X145668244Y-113680500D01*
X145893634Y-113665412D01*
X146188903Y-113605396D01*
X146473537Y-113506560D01*
X146742459Y-113370668D01*
X146990869Y-113200144D01*
X147214333Y-112998032D01*
X147408865Y-112767939D01*
X147570993Y-112513970D01*
X147591208Y-112470407D01*
X147638024Y-112417038D01*
X147706265Y-112397450D01*
X147774263Y-112417866D01*
X147820429Y-112471803D01*
X147831500Y-112523448D01*
X147831500Y-116379627D01*
X147811498Y-116447748D01*
X147794596Y-116468722D01*
X147358724Y-116904595D01*
X147296411Y-116938620D01*
X147269628Y-116941500D01*
X147012120Y-116941500D01*
X146911666Y-116951763D01*
X146748899Y-117005698D01*
X146602959Y-117095715D01*
X146602953Y-117095720D01*
X146481720Y-117216953D01*
X146481715Y-117216959D01*
X146391698Y-117362899D01*
X146337763Y-117525666D01*
X146327500Y-117626119D01*
X146327500Y-118473879D01*
X146330444Y-118502692D01*
X146317470Y-118572493D01*
X146268818Y-118624199D01*
X146205097Y-118641500D01*
X145702371Y-118641500D01*
X145634250Y-118621498D01*
X145613276Y-118604595D01*
X144981405Y-117972724D01*
X144947379Y-117910412D01*
X144944500Y-117883629D01*
X144944500Y-117626119D01*
X144934236Y-117525666D01*
X144934236Y-117525664D01*
X144880302Y-117362899D01*
X144790285Y-117216960D01*
X144790284Y-117216959D01*
X144790279Y-117216953D01*
X144669046Y-117095720D01*
X144669040Y-117095715D01*
X144636615Y-117075715D01*
X144523101Y-117005698D01*
X144360336Y-116951764D01*
X144360333Y-116951763D01*
X144259880Y-116941500D01*
X144259872Y-116941500D01*
X143712128Y-116941500D01*
X143712120Y-116941500D01*
X143611666Y-116951763D01*
X143448899Y-117005698D01*
X143302959Y-117095715D01*
X143302953Y-117095720D01*
X143181720Y-117216953D01*
X143181715Y-117216959D01*
X143091698Y-117362899D01*
X143037763Y-117525666D01*
X143027500Y-117626119D01*
X143027500Y-117883627D01*
X143007498Y-117951748D01*
X142990596Y-117972722D01*
X142322724Y-118640595D01*
X142260411Y-118674620D01*
X142233628Y-118677500D01*
X129224903Y-118677500D01*
X129156782Y-118657498D01*
X129110289Y-118603842D01*
X129099556Y-118538692D01*
X129102499Y-118509879D01*
X129102500Y-118509872D01*
X129102500Y-118252370D01*
X129122502Y-118184249D01*
X129139399Y-118163280D01*
X130030784Y-117271895D01*
X130044617Y-117259941D01*
X130064058Y-117245469D01*
X130098001Y-117205015D01*
X130101700Y-117200979D01*
X130107580Y-117195101D01*
X130127621Y-117169753D01*
X130128674Y-117168461D01*
X130178032Y-117109640D01*
X130178033Y-117109637D01*
X130178037Y-117109633D01*
X130182066Y-117103508D01*
X130182122Y-117103545D01*
X130186171Y-117097190D01*
X130186113Y-117097155D01*
X130189963Y-117090911D01*
X130189962Y-117090911D01*
X130189967Y-117090906D01*
X130222392Y-117021367D01*
X130223176Y-117019749D01*
X130227617Y-117010906D01*
X130257609Y-116951188D01*
X130257610Y-116951181D01*
X130260119Y-116944291D01*
X130260183Y-116944314D01*
X130262658Y-116937193D01*
X130262593Y-116937172D01*
X130264899Y-116930210D01*
X130264902Y-116930206D01*
X130269038Y-116910177D01*
X130270875Y-116901276D01*
X130280420Y-116855047D01*
X130280798Y-116853337D01*
X130298500Y-116778656D01*
X130298500Y-116778655D01*
X130299352Y-116771368D01*
X130299418Y-116771375D01*
X130300184Y-116763877D01*
X130300118Y-116763872D01*
X130300756Y-116756565D01*
X130300758Y-116756558D01*
X130298525Y-116679835D01*
X130298499Y-116678093D01*
X130298499Y-111692060D01*
X130318501Y-111623941D01*
X130372157Y-111577448D01*
X130442431Y-111567344D01*
X130507011Y-111596838D01*
X130545395Y-111656564D01*
X130546947Y-111662356D01*
X130578294Y-111791572D01*
X130578298Y-111791583D01*
X130648885Y-111946144D01*
X130665604Y-111982753D01*
X130787514Y-112153952D01*
X130939622Y-112298986D01*
X131116428Y-112412613D01*
X131311543Y-112490725D01*
X131517915Y-112530500D01*
X131517919Y-112530500D01*
X131675423Y-112530500D01*
X131675425Y-112530500D01*
X131832218Y-112515528D01*
X132033875Y-112456316D01*
X132220682Y-112360011D01*
X132385886Y-112230092D01*
X132523519Y-112071256D01*
X132628604Y-111889244D01*
X132697344Y-111690633D01*
X132727254Y-111482602D01*
X132722243Y-111377396D01*
X139408745Y-111377396D01*
X139418744Y-111587319D01*
X139418746Y-111587332D01*
X139468295Y-111791572D01*
X139468298Y-111791583D01*
X139538885Y-111946144D01*
X139555604Y-111982753D01*
X139677514Y-112153952D01*
X139829622Y-112298986D01*
X140006428Y-112412613D01*
X140201543Y-112490725D01*
X140407915Y-112530500D01*
X140407919Y-112530500D01*
X140565423Y-112530500D01*
X140565425Y-112530500D01*
X140722218Y-112515528D01*
X140923875Y-112456316D01*
X141110682Y-112360011D01*
X141275886Y-112230092D01*
X141413519Y-112071256D01*
X141518604Y-111889244D01*
X141587344Y-111690633D01*
X141617254Y-111482602D01*
X141612243Y-111377396D01*
X141607255Y-111272680D01*
X141607254Y-111272675D01*
X141607254Y-111272670D01*
X141557704Y-111068424D01*
X141557701Y-111068419D01*
X141557701Y-111068416D01*
X141513100Y-110970755D01*
X141470396Y-110877247D01*
X141348486Y-110706048D01*
X141314124Y-110673284D01*
X141278626Y-110611799D01*
X141282004Y-110540883D01*
X141323186Y-110483050D01*
X141389097Y-110456664D01*
X141430481Y-110459573D01*
X141530597Y-110483609D01*
X141783000Y-110503474D01*
X142035403Y-110483609D01*
X142281591Y-110424505D01*
X142515502Y-110327616D01*
X142731376Y-110195328D01*
X142923898Y-110030898D01*
X143088328Y-109838376D01*
X143220616Y-109622502D01*
X143317505Y-109388591D01*
X143376609Y-109142403D01*
X143396474Y-108890000D01*
X143376609Y-108637597D01*
X143317505Y-108391409D01*
X143220616Y-108157498D01*
X143088328Y-107941624D01*
X142923898Y-107749102D01*
X142731376Y-107584672D01*
X142515502Y-107452384D01*
X142281591Y-107355495D01*
X142281589Y-107355494D01*
X142113177Y-107315062D01*
X142035403Y-107296391D01*
X141783000Y-107276526D01*
X141530597Y-107296391D01*
X141284410Y-107355494D01*
X141050499Y-107452383D01*
X140834625Y-107584671D01*
X140642102Y-107749102D01*
X140477671Y-107941625D01*
X140345383Y-108157499D01*
X140248494Y-108391410D01*
X140234712Y-108448819D01*
X140189391Y-108637597D01*
X140169526Y-108890000D01*
X140189391Y-109142403D01*
X140196162Y-109170605D01*
X140248494Y-109388589D01*
X140248495Y-109388591D01*
X140345384Y-109622502D01*
X140477672Y-109838376D01*
X140642102Y-110030898D01*
X140713723Y-110092068D01*
X140737860Y-110112683D01*
X140776669Y-110172134D01*
X140777175Y-110243128D01*
X140739219Y-110303127D01*
X140674851Y-110333080D01*
X140632184Y-110332217D01*
X140618091Y-110329501D01*
X140618089Y-110329500D01*
X140618085Y-110329500D01*
X140460575Y-110329500D01*
X140460573Y-110329500D01*
X140460555Y-110329501D01*
X140303792Y-110344470D01*
X140303777Y-110344473D01*
X140102127Y-110403683D01*
X140102116Y-110403687D01*
X139915321Y-110499986D01*
X139915318Y-110499988D01*
X139750115Y-110629907D01*
X139750107Y-110629914D01*
X139612485Y-110788738D01*
X139612479Y-110788746D01*
X139507396Y-110970755D01*
X139507393Y-110970760D01*
X139438658Y-111169359D01*
X139438654Y-111169374D01*
X139408745Y-111377396D01*
X132722243Y-111377396D01*
X132717255Y-111272680D01*
X132717254Y-111272675D01*
X132717254Y-111272670D01*
X132667704Y-111068424D01*
X132667701Y-111068419D01*
X132667701Y-111068416D01*
X132623100Y-110970755D01*
X132580396Y-110877247D01*
X132458486Y-110706048D01*
X132306378Y-110561014D01*
X132129572Y-110447387D01*
X131934457Y-110369275D01*
X131934456Y-110369274D01*
X131934454Y-110369274D01*
X131728089Y-110329500D01*
X131728085Y-110329500D01*
X131570575Y-110329500D01*
X131570573Y-110329500D01*
X131570555Y-110329501D01*
X131413792Y-110344470D01*
X131413777Y-110344473D01*
X131212127Y-110403683D01*
X131212116Y-110403687D01*
X131025321Y-110499986D01*
X131025318Y-110499988D01*
X130860115Y-110629907D01*
X130860107Y-110629914D01*
X130722485Y-110788738D01*
X130722479Y-110788746D01*
X130617396Y-110970755D01*
X130617393Y-110970760D01*
X130548658Y-111169359D01*
X130547242Y-111175198D01*
X130545022Y-111174659D01*
X130519713Y-111230061D01*
X130459982Y-111268438D01*
X130388986Y-111268429D01*
X130329264Y-111230038D01*
X130299779Y-111165453D01*
X130298499Y-111147537D01*
X130298499Y-109284440D01*
X130299830Y-109266174D01*
X130301632Y-109253874D01*
X130303341Y-109242211D01*
X130299175Y-109194589D01*
X130298740Y-109189614D01*
X130298500Y-109184121D01*
X130298500Y-109175813D01*
X130294759Y-109143822D01*
X130294575Y-109142033D01*
X130287887Y-109065574D01*
X130287885Y-109065570D01*
X130286403Y-109058388D01*
X130286469Y-109058374D01*
X130284837Y-109051012D01*
X130284772Y-109051028D01*
X130283080Y-109043893D01*
X130283079Y-109043891D01*
X130283079Y-109043887D01*
X130256842Y-108971803D01*
X130256241Y-108970073D01*
X130243621Y-108931989D01*
X130232114Y-108897262D01*
X130232109Y-108897255D01*
X130229012Y-108890611D01*
X130229074Y-108890581D01*
X130225788Y-108883795D01*
X130225728Y-108883826D01*
X130222433Y-108877265D01*
X130198594Y-108841020D01*
X130180266Y-108813155D01*
X130179293Y-108811626D01*
X130139032Y-108746351D01*
X130134478Y-108740592D01*
X130134531Y-108740549D01*
X130129766Y-108734700D01*
X130129715Y-108734744D01*
X130124998Y-108729122D01*
X130069159Y-108676441D01*
X130067878Y-108675197D01*
X129878404Y-108485723D01*
X129844378Y-108423411D01*
X129841500Y-108396637D01*
X129841500Y-107842247D01*
X129861502Y-107774126D01*
X129901666Y-107734814D01*
X130031376Y-107655328D01*
X130223898Y-107490898D01*
X130388328Y-107298376D01*
X130520616Y-107082502D01*
X130617505Y-106848591D01*
X130676609Y-106602403D01*
X130696474Y-106350000D01*
X130676609Y-106097597D01*
X130617505Y-105851409D01*
X130520616Y-105617498D01*
X130388328Y-105401624D01*
X130223898Y-105209102D01*
X130031376Y-105044672D01*
X129815502Y-104912384D01*
X129581591Y-104815495D01*
X129581589Y-104815494D01*
X129413177Y-104775062D01*
X129335403Y-104756391D01*
X129083000Y-104736526D01*
X128830597Y-104756391D01*
X128584410Y-104815494D01*
X128350499Y-104912383D01*
X128134625Y-105044671D01*
X127942102Y-105209102D01*
X127777671Y-105401625D01*
X127645383Y-105617499D01*
X127548494Y-105851410D01*
X127489391Y-106097597D01*
X127469526Y-106349999D01*
X127489391Y-106602402D01*
X127548494Y-106848589D01*
X127548495Y-106848591D01*
X127645384Y-107082502D01*
X127777672Y-107298376D01*
X127942102Y-107490898D01*
X128134624Y-107655328D01*
X128134626Y-107655329D01*
X128134627Y-107655330D01*
X128264334Y-107734814D01*
X128311966Y-107787461D01*
X128324500Y-107842247D01*
X128324499Y-108698559D01*
X128323169Y-108716815D01*
X128319659Y-108740779D01*
X128319659Y-108740794D01*
X128324260Y-108793372D01*
X128324500Y-108798866D01*
X128324500Y-108807184D01*
X128328242Y-108839199D01*
X128328428Y-108841020D01*
X128335112Y-108917419D01*
X128336596Y-108924606D01*
X128336531Y-108924619D01*
X128338165Y-108931989D01*
X128338229Y-108931975D01*
X128339921Y-108939115D01*
X128351189Y-108970073D01*
X128366175Y-109011247D01*
X128366761Y-109012934D01*
X128390885Y-109085736D01*
X128393987Y-109092388D01*
X128393926Y-109092416D01*
X128397211Y-109099202D01*
X128397270Y-109099173D01*
X128400563Y-109105730D01*
X128442736Y-109169850D01*
X128443717Y-109171390D01*
X128483970Y-109236651D01*
X128483972Y-109236653D01*
X128488522Y-109242408D01*
X128488468Y-109242450D01*
X128493228Y-109248292D01*
X128493279Y-109248250D01*
X128497997Y-109253872D01*
X128497998Y-109253873D01*
X128497999Y-109253874D01*
X128546107Y-109299262D01*
X128553822Y-109306540D01*
X128555136Y-109307817D01*
X128744595Y-109497276D01*
X128778621Y-109559588D01*
X128781500Y-109586371D01*
X128781500Y-110339773D01*
X128761498Y-110407894D01*
X128707842Y-110454387D01*
X128637568Y-110464491D01*
X128572988Y-110434997D01*
X128545004Y-110400326D01*
X128527987Y-110369274D01*
X128444175Y-110216335D01*
X128411607Y-110172134D01*
X128265445Y-109973761D01*
X128055980Y-109757176D01*
X127819519Y-109570445D01*
X127819517Y-109570443D01*
X127757916Y-109533957D01*
X127560270Y-109416891D01*
X127282872Y-109299264D01*
X126992271Y-109219660D01*
X126693653Y-109179500D01*
X126467756Y-109179500D01*
X126262856Y-109193216D01*
X126242365Y-109194588D01*
X126242357Y-109194589D01*
X125947100Y-109254603D01*
X125947092Y-109254605D01*
X125662467Y-109353438D01*
X125662458Y-109353442D01*
X125393539Y-109489332D01*
X125145129Y-109659857D01*
X125145123Y-109659862D01*
X124921666Y-109861968D01*
X124921665Y-109861970D01*
X124727135Y-110092060D01*
X124727129Y-110092068D01*
X124565008Y-110346026D01*
X124438178Y-110619336D01*
X124438177Y-110619341D01*
X124348907Y-110907119D01*
X124298791Y-111204226D01*
X124295129Y-111313735D01*
X124293002Y-111377398D01*
X124288723Y-111505376D01*
X124318880Y-111805153D01*
X124388731Y-112098263D01*
X124388732Y-112098264D01*
X124497020Y-112379429D01*
X124641826Y-112643667D01*
X124820554Y-112886238D01*
X125030020Y-113102824D01*
X125266485Y-113289558D01*
X125525730Y-113443109D01*
X125803128Y-113560736D01*
X126093729Y-113640340D01*
X126392347Y-113680500D01*
X126392351Y-113680500D01*
X126618234Y-113680500D01*
X126618244Y-113680500D01*
X126843634Y-113665412D01*
X127138903Y-113605396D01*
X127423537Y-113506560D01*
X127692459Y-113370668D01*
X127940869Y-113200144D01*
X128164333Y-112998032D01*
X128358865Y-112767939D01*
X128520993Y-112513970D01*
X128541207Y-112470409D01*
X128588022Y-112417039D01*
X128656262Y-112397450D01*
X128724261Y-112417865D01*
X128770428Y-112471801D01*
X128781499Y-112523448D01*
X128781500Y-116323629D01*
X128761498Y-116391750D01*
X128744595Y-116412724D01*
X128216724Y-116940595D01*
X128154412Y-116974621D01*
X128127629Y-116977500D01*
X127870120Y-116977500D01*
X127769666Y-116987763D01*
X127606899Y-117041698D01*
X127460959Y-117131715D01*
X127460953Y-117131720D01*
X127339720Y-117252953D01*
X127339715Y-117252959D01*
X127249698Y-117398899D01*
X127195763Y-117561666D01*
X127185500Y-117662119D01*
X127185500Y-118509879D01*
X127188444Y-118538692D01*
X127175470Y-118608493D01*
X127126818Y-118660199D01*
X127063097Y-118677500D01*
X126560371Y-118677500D01*
X126492250Y-118657498D01*
X126471276Y-118640595D01*
X125839405Y-118008724D01*
X125805379Y-117946412D01*
X125802500Y-117919629D01*
X125802500Y-117662119D01*
X125792236Y-117561666D01*
X125792236Y-117561664D01*
X125738302Y-117398899D01*
X125648285Y-117252960D01*
X125648284Y-117252959D01*
X125648279Y-117252953D01*
X125527046Y-117131720D01*
X125527040Y-117131715D01*
X125500105Y-117115101D01*
X125381101Y-117041698D01*
X125218336Y-116987764D01*
X125218333Y-116987763D01*
X125117880Y-116977500D01*
X125117872Y-116977500D01*
X124570128Y-116977500D01*
X124570120Y-116977500D01*
X124469666Y-116987763D01*
X124306899Y-117041698D01*
X124160959Y-117131715D01*
X124160953Y-117131720D01*
X124039720Y-117252953D01*
X124039713Y-117252962D01*
X124030655Y-117267648D01*
X123977869Y-117315126D01*
X123923415Y-117327500D01*
X120992371Y-117327500D01*
X120924250Y-117307498D01*
X120903276Y-117290595D01*
X118905405Y-115292724D01*
X118871379Y-115230412D01*
X118868500Y-115203629D01*
X118868500Y-111377396D01*
X120358745Y-111377396D01*
X120368744Y-111587319D01*
X120368746Y-111587332D01*
X120418295Y-111791572D01*
X120418298Y-111791583D01*
X120488885Y-111946144D01*
X120505604Y-111982753D01*
X120627514Y-112153952D01*
X120779622Y-112298986D01*
X120956428Y-112412613D01*
X121151543Y-112490725D01*
X121357915Y-112530500D01*
X121357919Y-112530500D01*
X121515423Y-112530500D01*
X121515425Y-112530500D01*
X121672218Y-112515528D01*
X121873875Y-112456316D01*
X122060682Y-112360011D01*
X122225886Y-112230092D01*
X122363519Y-112071256D01*
X122468604Y-111889244D01*
X122537344Y-111690633D01*
X122567254Y-111482602D01*
X122562243Y-111377396D01*
X122557255Y-111272680D01*
X122557254Y-111272675D01*
X122557254Y-111272670D01*
X122507704Y-111068424D01*
X122507701Y-111068419D01*
X122507701Y-111068416D01*
X122463100Y-110970755D01*
X122420396Y-110877247D01*
X122298486Y-110706048D01*
X122264124Y-110673284D01*
X122228626Y-110611799D01*
X122232004Y-110540883D01*
X122273186Y-110483050D01*
X122339097Y-110456664D01*
X122380481Y-110459573D01*
X122480597Y-110483609D01*
X122733000Y-110503474D01*
X122985403Y-110483609D01*
X123231591Y-110424505D01*
X123465502Y-110327616D01*
X123681376Y-110195328D01*
X123873898Y-110030898D01*
X124038328Y-109838376D01*
X124170616Y-109622502D01*
X124267505Y-109388591D01*
X124326609Y-109142403D01*
X124346474Y-108890000D01*
X124326609Y-108637597D01*
X124267505Y-108391409D01*
X124170616Y-108157498D01*
X124038328Y-107941624D01*
X123873898Y-107749102D01*
X123681376Y-107584672D01*
X123465502Y-107452384D01*
X123231591Y-107355495D01*
X123231589Y-107355494D01*
X123063177Y-107315062D01*
X122985403Y-107296391D01*
X122733000Y-107276526D01*
X122732999Y-107276526D01*
X122480597Y-107296391D01*
X122234410Y-107355494D01*
X122000499Y-107452383D01*
X121784625Y-107584671D01*
X121592102Y-107749102D01*
X121427671Y-107941625D01*
X121295383Y-108157499D01*
X121198494Y-108391410D01*
X121184712Y-108448819D01*
X121139391Y-108637597D01*
X121119526Y-108890000D01*
X121139391Y-109142403D01*
X121146162Y-109170605D01*
X121198494Y-109388589D01*
X121198495Y-109388591D01*
X121295384Y-109622502D01*
X121427672Y-109838376D01*
X121592102Y-110030898D01*
X121663723Y-110092068D01*
X121687860Y-110112683D01*
X121726669Y-110172134D01*
X121727175Y-110243128D01*
X121689219Y-110303127D01*
X121624851Y-110333080D01*
X121582184Y-110332217D01*
X121568091Y-110329501D01*
X121568089Y-110329500D01*
X121568085Y-110329500D01*
X121410575Y-110329500D01*
X121410573Y-110329500D01*
X121410555Y-110329501D01*
X121253792Y-110344470D01*
X121253777Y-110344473D01*
X121052127Y-110403683D01*
X121052116Y-110403687D01*
X120865321Y-110499986D01*
X120865318Y-110499988D01*
X120700115Y-110629907D01*
X120700107Y-110629914D01*
X120562485Y-110788738D01*
X120562479Y-110788746D01*
X120457396Y-110970755D01*
X120457393Y-110970760D01*
X120388658Y-111169359D01*
X120388654Y-111169374D01*
X120358745Y-111377396D01*
X118868500Y-111377396D01*
X118868500Y-97385371D01*
X118888502Y-97317250D01*
X118942158Y-97270757D01*
X119012432Y-97260653D01*
X119077012Y-97290147D01*
X119083595Y-97296276D01*
X120897092Y-99109773D01*
X120909065Y-99123627D01*
X120923531Y-99143058D01*
X120955495Y-99169879D01*
X120963975Y-99176994D01*
X120968021Y-99180702D01*
X120973899Y-99186580D01*
X120973900Y-99186581D01*
X120999170Y-99206562D01*
X121000584Y-99207713D01*
X121059360Y-99257032D01*
X121059366Y-99257035D01*
X121065495Y-99261067D01*
X121065457Y-99261123D01*
X121071811Y-99265171D01*
X121071847Y-99265114D01*
X121078089Y-99268964D01*
X121078091Y-99268965D01*
X121078094Y-99268967D01*
X121147663Y-99301407D01*
X121149228Y-99302165D01*
X121217812Y-99336609D01*
X121217813Y-99336609D01*
X121217817Y-99336611D01*
X121224713Y-99339121D01*
X121224689Y-99339184D01*
X121231806Y-99341658D01*
X121231828Y-99341594D01*
X121238793Y-99343902D01*
X121249779Y-99346170D01*
X121314003Y-99359430D01*
X121315611Y-99359787D01*
X121390344Y-99377500D01*
X121390346Y-99377500D01*
X121397632Y-99378352D01*
X121397624Y-99378418D01*
X121405122Y-99379184D01*
X121405128Y-99379118D01*
X121412434Y-99379756D01*
X121412442Y-99379758D01*
X121458967Y-99378404D01*
X121489140Y-99377527D01*
X121490972Y-99377500D01*
X124085415Y-99377500D01*
X124153536Y-99397502D01*
X124192655Y-99437352D01*
X124201713Y-99452037D01*
X124201720Y-99452046D01*
X124322953Y-99573279D01*
X124322959Y-99573284D01*
X124322960Y-99573285D01*
X124468899Y-99663302D01*
X124631664Y-99717236D01*
X124651756Y-99719288D01*
X124732120Y-99727500D01*
X124732128Y-99727500D01*
X124989629Y-99727500D01*
X125057750Y-99747502D01*
X125078724Y-99764405D01*
X125774092Y-100459773D01*
X125786065Y-100473627D01*
X125800531Y-100493058D01*
X125805064Y-100496862D01*
X125840975Y-100526994D01*
X125845021Y-100530702D01*
X125850899Y-100536580D01*
X125850900Y-100536581D01*
X125876170Y-100556562D01*
X125877584Y-100557713D01*
X125936360Y-100607032D01*
X125936366Y-100607035D01*
X125942495Y-100611067D01*
X125942457Y-100611123D01*
X125948813Y-100615172D01*
X125948849Y-100615115D01*
X125955094Y-100618967D01*
X126024671Y-100651410D01*
X126026183Y-100652141D01*
X126094812Y-100686609D01*
X126094814Y-100686609D01*
X126101707Y-100689118D01*
X126101684Y-100689180D01*
X126108810Y-100691657D01*
X126108831Y-100691595D01*
X126115793Y-100693902D01*
X126190992Y-100709428D01*
X126192629Y-100709791D01*
X126267344Y-100727500D01*
X126267346Y-100727500D01*
X126274632Y-100728352D01*
X126274624Y-100728418D01*
X126282122Y-100729184D01*
X126282128Y-100729118D01*
X126289434Y-100729756D01*
X126289442Y-100729758D01*
X126335967Y-100728404D01*
X126366140Y-100727527D01*
X126367972Y-100727500D01*
X142803559Y-100727500D01*
X142821819Y-100728830D01*
X142826715Y-100729547D01*
X142845789Y-100732341D01*
X142879146Y-100729422D01*
X142898385Y-100727740D01*
X142903878Y-100727500D01*
X142912175Y-100727500D01*
X142912180Y-100727500D01*
X142934230Y-100724922D01*
X142944182Y-100723759D01*
X142945985Y-100723574D01*
X143022426Y-100716887D01*
X143022430Y-100716885D01*
X143029618Y-100715402D01*
X143029631Y-100715468D01*
X143036987Y-100713836D01*
X143036972Y-100713771D01*
X143044102Y-100712080D01*
X143044113Y-100712079D01*
X143116239Y-100685826D01*
X143117862Y-100685261D01*
X143190738Y-100661114D01*
X143190747Y-100661108D01*
X143197389Y-100658012D01*
X143197418Y-100658074D01*
X143204203Y-100654789D01*
X143204173Y-100654729D01*
X143210724Y-100651437D01*
X143210732Y-100651435D01*
X143274883Y-100609240D01*
X143276348Y-100608307D01*
X143341651Y-100568030D01*
X143341659Y-100568021D01*
X143347408Y-100563477D01*
X143347450Y-100563531D01*
X143353289Y-100558775D01*
X143353246Y-100558723D01*
X143358864Y-100554007D01*
X143358874Y-100554001D01*
X143411551Y-100498164D01*
X143412783Y-100496896D01*
X144001907Y-99907773D01*
X144064217Y-99873750D01*
X144135033Y-99878815D01*
X144180095Y-99907776D01*
X144859092Y-100586773D01*
X144871065Y-100600627D01*
X144877502Y-100609274D01*
X144885531Y-100620058D01*
X144922922Y-100651433D01*
X144925975Y-100653994D01*
X144930021Y-100657702D01*
X144933433Y-100661114D01*
X144935900Y-100663581D01*
X144961170Y-100683562D01*
X144962584Y-100684713D01*
X145021360Y-100734032D01*
X145021366Y-100734035D01*
X145027495Y-100738067D01*
X145027457Y-100738123D01*
X145033813Y-100742172D01*
X145033849Y-100742115D01*
X145040094Y-100745967D01*
X145109671Y-100778410D01*
X145111183Y-100779141D01*
X145179812Y-100813609D01*
X145179814Y-100813609D01*
X145186707Y-100816118D01*
X145186684Y-100816180D01*
X145193810Y-100818657D01*
X145193831Y-100818595D01*
X145200793Y-100820902D01*
X145275992Y-100836428D01*
X145277629Y-100836791D01*
X145352344Y-100854500D01*
X145352346Y-100854500D01*
X145359632Y-100855352D01*
X145359624Y-100855418D01*
X145367122Y-100856184D01*
X145367128Y-100856118D01*
X145374434Y-100856756D01*
X145374442Y-100856758D01*
X145420967Y-100855404D01*
X145451140Y-100854527D01*
X145452972Y-100854500D01*
X161717559Y-100854500D01*
X161735819Y-100855830D01*
X161740715Y-100856547D01*
X161759789Y-100859341D01*
X161793146Y-100856422D01*
X161812385Y-100854740D01*
X161817878Y-100854500D01*
X161826175Y-100854500D01*
X161826180Y-100854500D01*
X161848230Y-100851922D01*
X161858182Y-100850759D01*
X161859985Y-100850574D01*
X161936426Y-100843887D01*
X161936430Y-100843885D01*
X161943618Y-100842402D01*
X161943631Y-100842468D01*
X161950987Y-100840836D01*
X161950972Y-100840771D01*
X161958102Y-100839080D01*
X161958113Y-100839079D01*
X162030239Y-100812826D01*
X162031862Y-100812261D01*
X162104738Y-100788114D01*
X162104747Y-100788108D01*
X162111389Y-100785012D01*
X162111418Y-100785074D01*
X162118203Y-100781789D01*
X162118173Y-100781729D01*
X162124724Y-100778437D01*
X162124732Y-100778435D01*
X162188883Y-100736240D01*
X162190348Y-100735307D01*
X162255651Y-100695030D01*
X162255659Y-100695021D01*
X162261408Y-100690477D01*
X162261450Y-100690531D01*
X162267289Y-100685775D01*
X162267246Y-100685723D01*
X162272864Y-100681007D01*
X162272874Y-100681001D01*
X162325551Y-100625165D01*
X162326818Y-100623862D01*
X162836277Y-100114404D01*
X162898589Y-100080379D01*
X162925372Y-100077500D01*
X163182880Y-100077500D01*
X163255936Y-100070035D01*
X163283336Y-100067236D01*
X163446101Y-100013302D01*
X163592040Y-99923285D01*
X163713285Y-99802040D01*
X163803302Y-99656101D01*
X163857236Y-99493336D01*
X163860035Y-99465936D01*
X163867500Y-99392880D01*
X163867500Y-98545119D01*
X163857236Y-98444666D01*
X163857236Y-98444664D01*
X163803302Y-98281899D01*
X163713285Y-98135960D01*
X163713284Y-98135959D01*
X163713279Y-98135953D01*
X163592046Y-98014720D01*
X163592040Y-98014715D01*
X163592040Y-98014714D01*
X163446101Y-97924698D01*
X163283336Y-97870764D01*
X163283333Y-97870763D01*
X163182880Y-97860500D01*
X163182872Y-97860500D01*
X162635128Y-97860500D01*
X162635120Y-97860500D01*
X162534666Y-97870763D01*
X162371899Y-97924698D01*
X162225959Y-98014715D01*
X162225953Y-98014720D01*
X162104720Y-98135953D01*
X162104715Y-98135959D01*
X162014698Y-98281899D01*
X161960763Y-98444666D01*
X161950500Y-98545119D01*
X161950500Y-98802628D01*
X161930498Y-98870749D01*
X161913596Y-98891722D01*
X161504722Y-99300596D01*
X161442412Y-99334620D01*
X161415629Y-99337500D01*
X148471903Y-99337500D01*
X148403782Y-99317498D01*
X148357289Y-99263842D01*
X148346556Y-99198692D01*
X148349500Y-99169879D01*
X148349500Y-98912371D01*
X148369502Y-98844250D01*
X148386400Y-98823280D01*
X149080781Y-98128898D01*
X149094620Y-98116938D01*
X149114058Y-98102469D01*
X149148001Y-98062015D01*
X149151700Y-98057979D01*
X149157580Y-98052101D01*
X149177621Y-98026753D01*
X149178674Y-98025461D01*
X149228032Y-97966640D01*
X149228033Y-97966637D01*
X149228037Y-97966633D01*
X149232066Y-97960508D01*
X149232122Y-97960545D01*
X149236171Y-97954190D01*
X149236113Y-97954155D01*
X149239963Y-97947911D01*
X149239962Y-97947911D01*
X149239967Y-97947906D01*
X149272392Y-97878367D01*
X149273176Y-97876749D01*
X149276182Y-97870764D01*
X149307609Y-97808188D01*
X149307610Y-97808181D01*
X149310119Y-97801291D01*
X149310183Y-97801314D01*
X149312658Y-97794193D01*
X149312593Y-97794172D01*
X149314899Y-97787210D01*
X149314902Y-97787206D01*
X149315160Y-97785960D01*
X149329528Y-97716368D01*
X149330420Y-97712047D01*
X149330798Y-97710337D01*
X149348500Y-97635656D01*
X149348500Y-97635655D01*
X149349352Y-97628368D01*
X149349418Y-97628375D01*
X149350184Y-97620876D01*
X149350118Y-97620871D01*
X149350756Y-97613566D01*
X149350758Y-97613558D01*
X149348910Y-97550037D01*
X149348527Y-97536845D01*
X149348500Y-97535013D01*
X149348500Y-92642064D01*
X149368502Y-92573943D01*
X149422158Y-92527450D01*
X149492432Y-92517346D01*
X149557012Y-92546840D01*
X149595396Y-92606566D01*
X149596945Y-92612348D01*
X149624807Y-92727194D01*
X149628295Y-92741572D01*
X149628298Y-92741583D01*
X149698885Y-92896144D01*
X149715604Y-92932753D01*
X149837514Y-93103952D01*
X149989622Y-93248986D01*
X150166428Y-93362613D01*
X150361543Y-93440725D01*
X150567915Y-93480500D01*
X150567919Y-93480500D01*
X150725423Y-93480500D01*
X150725425Y-93480500D01*
X150882218Y-93465528D01*
X151083875Y-93406316D01*
X151270682Y-93310011D01*
X151435886Y-93180092D01*
X151573519Y-93021256D01*
X151678604Y-92839244D01*
X151747344Y-92640633D01*
X151777254Y-92432602D01*
X151772243Y-92327396D01*
X158458745Y-92327396D01*
X158468744Y-92537319D01*
X158468746Y-92537332D01*
X158518295Y-92741572D01*
X158518298Y-92741583D01*
X158588885Y-92896144D01*
X158605604Y-92932753D01*
X158727514Y-93103952D01*
X158879622Y-93248986D01*
X159056428Y-93362613D01*
X159251543Y-93440725D01*
X159457915Y-93480500D01*
X159457919Y-93480500D01*
X159615423Y-93480500D01*
X159615425Y-93480500D01*
X159772218Y-93465528D01*
X159973875Y-93406316D01*
X160160682Y-93310011D01*
X160325886Y-93180092D01*
X160463519Y-93021256D01*
X160568604Y-92839244D01*
X160637344Y-92640633D01*
X160663980Y-92455376D01*
X162388723Y-92455376D01*
X162418880Y-92755153D01*
X162488731Y-93048263D01*
X162488732Y-93048264D01*
X162597020Y-93329429D01*
X162741826Y-93593667D01*
X162920554Y-93836238D01*
X163130020Y-94052824D01*
X163366485Y-94239558D01*
X163625730Y-94393109D01*
X163903128Y-94510736D01*
X164193729Y-94590340D01*
X164492347Y-94630500D01*
X164492351Y-94630500D01*
X164718234Y-94630500D01*
X164718244Y-94630500D01*
X164943634Y-94615412D01*
X165238903Y-94555396D01*
X165523537Y-94456560D01*
X165792459Y-94320668D01*
X166040869Y-94150144D01*
X166264333Y-93948032D01*
X166458865Y-93717939D01*
X166620993Y-93463970D01*
X166641208Y-93420407D01*
X166688024Y-93367038D01*
X166756265Y-93347450D01*
X166824263Y-93367866D01*
X166870429Y-93421803D01*
X166881500Y-93473448D01*
X166881500Y-97171629D01*
X166861498Y-97239750D01*
X166844595Y-97260724D01*
X166281724Y-97823595D01*
X166219412Y-97857621D01*
X166192629Y-97860500D01*
X165935120Y-97860500D01*
X165834666Y-97870763D01*
X165671899Y-97924698D01*
X165525959Y-98014715D01*
X165525953Y-98014720D01*
X165404720Y-98135953D01*
X165404715Y-98135959D01*
X165314698Y-98281899D01*
X165260763Y-98444666D01*
X165250500Y-98545119D01*
X165250500Y-99392880D01*
X165250499Y-99392880D01*
X165260763Y-99493333D01*
X165260764Y-99493336D01*
X165314698Y-99656101D01*
X165381501Y-99764405D01*
X165404715Y-99802040D01*
X165404720Y-99802046D01*
X165525953Y-99923279D01*
X165525959Y-99923284D01*
X165525960Y-99923285D01*
X165671899Y-100013302D01*
X165834664Y-100067236D01*
X165854756Y-100069288D01*
X165935120Y-100077500D01*
X165935128Y-100077500D01*
X166482880Y-100077500D01*
X166555936Y-100070035D01*
X166583336Y-100067236D01*
X166746101Y-100013302D01*
X166892040Y-99923285D01*
X167013285Y-99802040D01*
X167103302Y-99656101D01*
X167157236Y-99493336D01*
X167160035Y-99465936D01*
X167167500Y-99392880D01*
X167167500Y-99135371D01*
X167187502Y-99067250D01*
X167204400Y-99046280D01*
X168130781Y-98119898D01*
X168144620Y-98107938D01*
X168164058Y-98093469D01*
X168198001Y-98053015D01*
X168201700Y-98048979D01*
X168207581Y-98043100D01*
X168227629Y-98017743D01*
X168228664Y-98016472D01*
X168278032Y-97957640D01*
X168278033Y-97957636D01*
X168278036Y-97957634D01*
X168282070Y-97951502D01*
X168282127Y-97951539D01*
X168286171Y-97945191D01*
X168286112Y-97945155D01*
X168289965Y-97938907D01*
X168289967Y-97938905D01*
X168322421Y-97869304D01*
X168323167Y-97867765D01*
X168357609Y-97799188D01*
X168357610Y-97799181D01*
X168360119Y-97792291D01*
X168360184Y-97792314D01*
X168362658Y-97785197D01*
X168362594Y-97785176D01*
X168364903Y-97778207D01*
X168377671Y-97716368D01*
X168380432Y-97702994D01*
X168380805Y-97701312D01*
X168398500Y-97626656D01*
X168398500Y-97626655D01*
X168399352Y-97619368D01*
X168399419Y-97619375D01*
X168400185Y-97611877D01*
X168400119Y-97611872D01*
X168400757Y-97604566D01*
X168400759Y-97604558D01*
X168398789Y-97536845D01*
X168398527Y-97527824D01*
X168398500Y-97525992D01*
X168398500Y-92642064D01*
X168418502Y-92573943D01*
X168472158Y-92527450D01*
X168542432Y-92517346D01*
X168607012Y-92546840D01*
X168645396Y-92606566D01*
X168646945Y-92612348D01*
X168674807Y-92727194D01*
X168678295Y-92741572D01*
X168678298Y-92741583D01*
X168748885Y-92896144D01*
X168765604Y-92932753D01*
X168887514Y-93103952D01*
X169039622Y-93248986D01*
X169216428Y-93362613D01*
X169411543Y-93440725D01*
X169617915Y-93480500D01*
X169617919Y-93480500D01*
X169775423Y-93480500D01*
X169775425Y-93480500D01*
X169932218Y-93465528D01*
X170133875Y-93406316D01*
X170320682Y-93310011D01*
X170485886Y-93180092D01*
X170623519Y-93021256D01*
X170728604Y-92839244D01*
X170797344Y-92640633D01*
X170827254Y-92432602D01*
X170822243Y-92327396D01*
X170817255Y-92222680D01*
X170817254Y-92222675D01*
X170817254Y-92222670D01*
X170767704Y-92018424D01*
X170767701Y-92018419D01*
X170767701Y-92018416D01*
X170723100Y-91920755D01*
X170680396Y-91827247D01*
X170558486Y-91656048D01*
X170406378Y-91511014D01*
X170229572Y-91397387D01*
X170034457Y-91319275D01*
X170034456Y-91319274D01*
X170034454Y-91319274D01*
X169828089Y-91279500D01*
X169828085Y-91279500D01*
X169670575Y-91279500D01*
X169670573Y-91279500D01*
X169670555Y-91279501D01*
X169513792Y-91294470D01*
X169513777Y-91294473D01*
X169312127Y-91353683D01*
X169312116Y-91353687D01*
X169125321Y-91449986D01*
X169125318Y-91449988D01*
X168960115Y-91579907D01*
X168960107Y-91579914D01*
X168822485Y-91738738D01*
X168822479Y-91738746D01*
X168717396Y-91920755D01*
X168717393Y-91920760D01*
X168648658Y-92119359D01*
X168647242Y-92125198D01*
X168645030Y-92124661D01*
X168619679Y-92180095D01*
X168559932Y-92218446D01*
X168488935Y-92218408D01*
X168429230Y-92179992D01*
X168399772Y-92115395D01*
X168398500Y-92097545D01*
X168398500Y-90234441D01*
X168399830Y-90216182D01*
X168400940Y-90208600D01*
X168403341Y-90192211D01*
X168398738Y-90139614D01*
X168398499Y-90134124D01*
X168398499Y-90134121D01*
X168398500Y-90125820D01*
X168394757Y-90093807D01*
X168394575Y-90092033D01*
X168387887Y-90015574D01*
X168387885Y-90015570D01*
X168386403Y-90008388D01*
X168386469Y-90008374D01*
X168384837Y-90001012D01*
X168384772Y-90001028D01*
X168383080Y-89993893D01*
X168383079Y-89993891D01*
X168383079Y-89993887D01*
X168356842Y-89921803D01*
X168356241Y-89920073D01*
X168343621Y-89881989D01*
X168332114Y-89847262D01*
X168332109Y-89847255D01*
X168329012Y-89840611D01*
X168329074Y-89840581D01*
X168325788Y-89833795D01*
X168325728Y-89833826D01*
X168322433Y-89827265D01*
X168298594Y-89791020D01*
X168280266Y-89763155D01*
X168279293Y-89761626D01*
X168239032Y-89696351D01*
X168234478Y-89690592D01*
X168234531Y-89690549D01*
X168229766Y-89684700D01*
X168229715Y-89684744D01*
X168224998Y-89679122D01*
X168169159Y-89626441D01*
X168167878Y-89625197D01*
X167978404Y-89435723D01*
X167944379Y-89373411D01*
X167941500Y-89346628D01*
X167941500Y-88792247D01*
X167961502Y-88724126D01*
X168001666Y-88684814D01*
X168131376Y-88605328D01*
X168323898Y-88440898D01*
X168488328Y-88248376D01*
X168620616Y-88032502D01*
X168717505Y-87798591D01*
X168776609Y-87552403D01*
X168796474Y-87300000D01*
X168776609Y-87047597D01*
X168717505Y-86801409D01*
X168620616Y-86567498D01*
X168488328Y-86351624D01*
X168323898Y-86159102D01*
X168131376Y-85994672D01*
X167915502Y-85862384D01*
X167893671Y-85853341D01*
X167681589Y-85765494D01*
X167513177Y-85725062D01*
X167435403Y-85706391D01*
X167183000Y-85686526D01*
X166930597Y-85706391D01*
X166684410Y-85765494D01*
X166450499Y-85862383D01*
X166234625Y-85994671D01*
X166042102Y-86159102D01*
X165877671Y-86351625D01*
X165745383Y-86567499D01*
X165648494Y-86801410D01*
X165589390Y-87047597D01*
X165589391Y-87047597D01*
X165569526Y-87300000D01*
X165589391Y-87552403D01*
X165595092Y-87576150D01*
X165648494Y-87798589D01*
X165648495Y-87798591D01*
X165745384Y-88032502D01*
X165877672Y-88248376D01*
X166042102Y-88440898D01*
X166234624Y-88605328D01*
X166234626Y-88605329D01*
X166234627Y-88605330D01*
X166364334Y-88684814D01*
X166411966Y-88737461D01*
X166424500Y-88792247D01*
X166424500Y-89648559D01*
X166423170Y-89666819D01*
X166419659Y-89690786D01*
X166419659Y-89690794D01*
X166424260Y-89743372D01*
X166424500Y-89748866D01*
X166424500Y-89757184D01*
X166428242Y-89789199D01*
X166428428Y-89791020D01*
X166435112Y-89867419D01*
X166436596Y-89874606D01*
X166436531Y-89874619D01*
X166438165Y-89881989D01*
X166438229Y-89881975D01*
X166439921Y-89889115D01*
X166452193Y-89922831D01*
X166466175Y-89961247D01*
X166466761Y-89962934D01*
X166490885Y-90035736D01*
X166493987Y-90042388D01*
X166493926Y-90042416D01*
X166497211Y-90049202D01*
X166497270Y-90049173D01*
X166500563Y-90055730D01*
X166542736Y-90119850D01*
X166543717Y-90121390D01*
X166583970Y-90186651D01*
X166583972Y-90186652D01*
X166583972Y-90186653D01*
X166588522Y-90192408D01*
X166588468Y-90192450D01*
X166593228Y-90198292D01*
X166593279Y-90198250D01*
X166597997Y-90203872D01*
X166597998Y-90203873D01*
X166597999Y-90203874D01*
X166646107Y-90249262D01*
X166653822Y-90256540D01*
X166655101Y-90257782D01*
X166844597Y-90447278D01*
X166878620Y-90509586D01*
X166881500Y-90536370D01*
X166881500Y-91289773D01*
X166861498Y-91357894D01*
X166807842Y-91404387D01*
X166737568Y-91414491D01*
X166672988Y-91384997D01*
X166645004Y-91350326D01*
X166627987Y-91319274D01*
X166544175Y-91166335D01*
X166511607Y-91122134D01*
X166365445Y-90923761D01*
X166333650Y-90890885D01*
X166155980Y-90707176D01*
X165919519Y-90520445D01*
X165919517Y-90520443D01*
X165782574Y-90439332D01*
X165660270Y-90366891D01*
X165382872Y-90249264D01*
X165092271Y-90169660D01*
X164793653Y-90129500D01*
X164567756Y-90129500D01*
X164362855Y-90143216D01*
X164342365Y-90144588D01*
X164342357Y-90144589D01*
X164047100Y-90204603D01*
X164047092Y-90204605D01*
X163762467Y-90303438D01*
X163762458Y-90303442D01*
X163493539Y-90439332D01*
X163245129Y-90609857D01*
X163245123Y-90609862D01*
X163021666Y-90811968D01*
X163021665Y-90811970D01*
X162827135Y-91042060D01*
X162827129Y-91042068D01*
X162665008Y-91296026D01*
X162538178Y-91569336D01*
X162538177Y-91569341D01*
X162448907Y-91857119D01*
X162398791Y-92154226D01*
X162395129Y-92263735D01*
X162393002Y-92327398D01*
X162388723Y-92455376D01*
X160663980Y-92455376D01*
X160667254Y-92432602D01*
X160662243Y-92327396D01*
X160657255Y-92222680D01*
X160657254Y-92222675D01*
X160657254Y-92222670D01*
X160607704Y-92018424D01*
X160607701Y-92018419D01*
X160607701Y-92018416D01*
X160563100Y-91920755D01*
X160520396Y-91827247D01*
X160398486Y-91656048D01*
X160364124Y-91623284D01*
X160328626Y-91561799D01*
X160332004Y-91490883D01*
X160373186Y-91433050D01*
X160439097Y-91406664D01*
X160480481Y-91409573D01*
X160580597Y-91433609D01*
X160833000Y-91453474D01*
X161085403Y-91433609D01*
X161331591Y-91374505D01*
X161565502Y-91277616D01*
X161781376Y-91145328D01*
X161973898Y-90980898D01*
X162138328Y-90788376D01*
X162270616Y-90572502D01*
X162367505Y-90338591D01*
X162426609Y-90092403D01*
X162446474Y-89840000D01*
X162426609Y-89587597D01*
X162367505Y-89341409D01*
X162270616Y-89107498D01*
X162138328Y-88891624D01*
X161973898Y-88699102D01*
X161781376Y-88534672D01*
X161565502Y-88402384D01*
X161331591Y-88305495D01*
X161331589Y-88305494D01*
X161140952Y-88259727D01*
X161085403Y-88246391D01*
X160833000Y-88226526D01*
X160580597Y-88246391D01*
X160334410Y-88305494D01*
X160100499Y-88402383D01*
X159884625Y-88534671D01*
X159692102Y-88699102D01*
X159527671Y-88891625D01*
X159395383Y-89107499D01*
X159298494Y-89341410D01*
X159284712Y-89398819D01*
X159239391Y-89587597D01*
X159219526Y-89840000D01*
X159239391Y-90092403D01*
X159246162Y-90120605D01*
X159298494Y-90338589D01*
X159380418Y-90536370D01*
X159395384Y-90572502D01*
X159527672Y-90788376D01*
X159692102Y-90980898D01*
X159763723Y-91042068D01*
X159787860Y-91062683D01*
X159826669Y-91122134D01*
X159827175Y-91193128D01*
X159789219Y-91253127D01*
X159724851Y-91283080D01*
X159682184Y-91282217D01*
X159668091Y-91279501D01*
X159668089Y-91279500D01*
X159668085Y-91279500D01*
X159510575Y-91279500D01*
X159510573Y-91279500D01*
X159510555Y-91279501D01*
X159353792Y-91294470D01*
X159353777Y-91294473D01*
X159152127Y-91353683D01*
X159152116Y-91353687D01*
X158965321Y-91449986D01*
X158965318Y-91449988D01*
X158800115Y-91579907D01*
X158800107Y-91579914D01*
X158662485Y-91738738D01*
X158662479Y-91738746D01*
X158557396Y-91920755D01*
X158557393Y-91920760D01*
X158488658Y-92119359D01*
X158488654Y-92119374D01*
X158458745Y-92327396D01*
X151772243Y-92327396D01*
X151767255Y-92222680D01*
X151767254Y-92222675D01*
X151767254Y-92222670D01*
X151717704Y-92018424D01*
X151717701Y-92018419D01*
X151717701Y-92018416D01*
X151673100Y-91920755D01*
X151630396Y-91827247D01*
X151508486Y-91656048D01*
X151356378Y-91511014D01*
X151179572Y-91397387D01*
X150984457Y-91319275D01*
X150984456Y-91319274D01*
X150984454Y-91319274D01*
X150778089Y-91279500D01*
X150778085Y-91279500D01*
X150620575Y-91279500D01*
X150620573Y-91279500D01*
X150620555Y-91279501D01*
X150463792Y-91294470D01*
X150463777Y-91294473D01*
X150262127Y-91353683D01*
X150262116Y-91353687D01*
X150075321Y-91449986D01*
X150075318Y-91449988D01*
X149910115Y-91579907D01*
X149910107Y-91579914D01*
X149772485Y-91738738D01*
X149772479Y-91738746D01*
X149667396Y-91920755D01*
X149667393Y-91920760D01*
X149598658Y-92119359D01*
X149597242Y-92125198D01*
X149595019Y-92124658D01*
X149569720Y-92180049D01*
X149509991Y-92218429D01*
X149438995Y-92218425D01*
X149379271Y-92180038D01*
X149349781Y-92115455D01*
X149348500Y-92097531D01*
X149348500Y-90234441D01*
X149349830Y-90216182D01*
X149350940Y-90208600D01*
X149353341Y-90192211D01*
X149349175Y-90144589D01*
X149348740Y-90139614D01*
X149348500Y-90134121D01*
X149348500Y-90125813D01*
X149345804Y-90102765D01*
X149344756Y-90093800D01*
X149344575Y-90092033D01*
X149337887Y-90015574D01*
X149337885Y-90015570D01*
X149336403Y-90008388D01*
X149336469Y-90008374D01*
X149334837Y-90001012D01*
X149334772Y-90001028D01*
X149333080Y-89993893D01*
X149333079Y-89993891D01*
X149333079Y-89993887D01*
X149306842Y-89921803D01*
X149306241Y-89920073D01*
X149293621Y-89881989D01*
X149282114Y-89847262D01*
X149282109Y-89847255D01*
X149279012Y-89840611D01*
X149279074Y-89840581D01*
X149275788Y-89833795D01*
X149275728Y-89833826D01*
X149272433Y-89827265D01*
X149248594Y-89791020D01*
X149230266Y-89763155D01*
X149229293Y-89761626D01*
X149189032Y-89696351D01*
X149184478Y-89690592D01*
X149184531Y-89690549D01*
X149179766Y-89684700D01*
X149179715Y-89684744D01*
X149174998Y-89679122D01*
X149119159Y-89626441D01*
X149117878Y-89625197D01*
X148928404Y-89435723D01*
X148894379Y-89373411D01*
X148891500Y-89346628D01*
X148891500Y-88792247D01*
X148911502Y-88724126D01*
X148951666Y-88684814D01*
X149081376Y-88605328D01*
X149273898Y-88440898D01*
X149438328Y-88248376D01*
X149570616Y-88032502D01*
X149667505Y-87798591D01*
X149726609Y-87552403D01*
X149746474Y-87300000D01*
X149726609Y-87047597D01*
X149667505Y-86801409D01*
X149570616Y-86567498D01*
X149438328Y-86351624D01*
X149273898Y-86159102D01*
X149081376Y-85994672D01*
X148865502Y-85862384D01*
X148843671Y-85853341D01*
X148631589Y-85765494D01*
X148463177Y-85725062D01*
X148385403Y-85706391D01*
X148133000Y-85686526D01*
X147880597Y-85706391D01*
X147634410Y-85765494D01*
X147400499Y-85862383D01*
X147184625Y-85994671D01*
X146992102Y-86159102D01*
X146827671Y-86351625D01*
X146695383Y-86567499D01*
X146598494Y-86801410D01*
X146539391Y-87047597D01*
X146519526Y-87300000D01*
X146539391Y-87552403D01*
X146545092Y-87576150D01*
X146598494Y-87798589D01*
X146598495Y-87798591D01*
X146695384Y-88032502D01*
X146827672Y-88248376D01*
X146992102Y-88440898D01*
X147184624Y-88605328D01*
X147184626Y-88605329D01*
X147184627Y-88605330D01*
X147314334Y-88684814D01*
X147361966Y-88737461D01*
X147374500Y-88792247D01*
X147374500Y-89648559D01*
X147373170Y-89666819D01*
X147369659Y-89690786D01*
X147369659Y-89690794D01*
X147374260Y-89743372D01*
X147374500Y-89748866D01*
X147374500Y-89757184D01*
X147378242Y-89789199D01*
X147378428Y-89791020D01*
X147385112Y-89867419D01*
X147386596Y-89874606D01*
X147386531Y-89874619D01*
X147388165Y-89881989D01*
X147388229Y-89881975D01*
X147389921Y-89889115D01*
X147402193Y-89922831D01*
X147416175Y-89961247D01*
X147416761Y-89962934D01*
X147440885Y-90035736D01*
X147443987Y-90042388D01*
X147443926Y-90042416D01*
X147447211Y-90049202D01*
X147447270Y-90049173D01*
X147450563Y-90055730D01*
X147492736Y-90119850D01*
X147493717Y-90121390D01*
X147533970Y-90186651D01*
X147533972Y-90186653D01*
X147538522Y-90192408D01*
X147538468Y-90192450D01*
X147543228Y-90198292D01*
X147543279Y-90198250D01*
X147547997Y-90203872D01*
X147547998Y-90203873D01*
X147547999Y-90203874D01*
X147596107Y-90249262D01*
X147603805Y-90256524D01*
X147605119Y-90257800D01*
X147714210Y-90366891D01*
X147794595Y-90447275D01*
X147828620Y-90509587D01*
X147831500Y-90536371D01*
X147831500Y-91289773D01*
X147811498Y-91357894D01*
X147757842Y-91404387D01*
X147687568Y-91414491D01*
X147622988Y-91384997D01*
X147595004Y-91350326D01*
X147577987Y-91319274D01*
X147494175Y-91166335D01*
X147461607Y-91122134D01*
X147315445Y-90923761D01*
X147283650Y-90890885D01*
X147105980Y-90707176D01*
X146869519Y-90520445D01*
X146869517Y-90520443D01*
X146732574Y-90439332D01*
X146610270Y-90366891D01*
X146332872Y-90249264D01*
X146042271Y-90169660D01*
X145743653Y-90129500D01*
X145517756Y-90129500D01*
X145312855Y-90143216D01*
X145292365Y-90144588D01*
X145292357Y-90144589D01*
X144997100Y-90204603D01*
X144997092Y-90204605D01*
X144712467Y-90303438D01*
X144712458Y-90303442D01*
X144443539Y-90439332D01*
X144195129Y-90609857D01*
X144195123Y-90609862D01*
X143971666Y-90811968D01*
X143971665Y-90811970D01*
X143777135Y-91042060D01*
X143777129Y-91042068D01*
X143615008Y-91296026D01*
X143488178Y-91569336D01*
X143488177Y-91569341D01*
X143398907Y-91857119D01*
X143348791Y-92154226D01*
X143345129Y-92263735D01*
X143343002Y-92327398D01*
X143338723Y-92455376D01*
X143368880Y-92755153D01*
X143438731Y-93048263D01*
X143438732Y-93048264D01*
X143547020Y-93329429D01*
X143691826Y-93593667D01*
X143870554Y-93836238D01*
X144080020Y-94052824D01*
X144316485Y-94239558D01*
X144575730Y-94393109D01*
X144853128Y-94510736D01*
X145143729Y-94590340D01*
X145442347Y-94630500D01*
X145442351Y-94630500D01*
X145668234Y-94630500D01*
X145668244Y-94630500D01*
X145893634Y-94615412D01*
X146188903Y-94555396D01*
X146473537Y-94456560D01*
X146742459Y-94320668D01*
X146990869Y-94150144D01*
X147214333Y-93948032D01*
X147408865Y-93717939D01*
X147570993Y-93463970D01*
X147591208Y-93420407D01*
X147638024Y-93367038D01*
X147706265Y-93347450D01*
X147774263Y-93367866D01*
X147820429Y-93421803D01*
X147831500Y-93473448D01*
X147831500Y-97180629D01*
X147811498Y-97248750D01*
X147794595Y-97269724D01*
X147463724Y-97600595D01*
X147401412Y-97634621D01*
X147374629Y-97637500D01*
X147117120Y-97637500D01*
X147016666Y-97647763D01*
X146853899Y-97701698D01*
X146707959Y-97791715D01*
X146707953Y-97791720D01*
X146586720Y-97912953D01*
X146586715Y-97912959D01*
X146496698Y-98058899D01*
X146442763Y-98221666D01*
X146432500Y-98322119D01*
X146432500Y-99169879D01*
X146435444Y-99198692D01*
X146422470Y-99268493D01*
X146373818Y-99320199D01*
X146310097Y-99337500D01*
X145807372Y-99337500D01*
X145739251Y-99317498D01*
X145718276Y-99300595D01*
X145086404Y-98668722D01*
X145052379Y-98606410D01*
X145049500Y-98579627D01*
X145049500Y-98322119D01*
X145039236Y-98221666D01*
X145039236Y-98221664D01*
X144985302Y-98058899D01*
X144895285Y-97912960D01*
X144895284Y-97912959D01*
X144895279Y-97912953D01*
X144774046Y-97791720D01*
X144774040Y-97791715D01*
X144752139Y-97778206D01*
X144628101Y-97701698D01*
X144465336Y-97647764D01*
X144465333Y-97647763D01*
X144364880Y-97637500D01*
X144364872Y-97637500D01*
X143817128Y-97637500D01*
X143817120Y-97637500D01*
X143716666Y-97647763D01*
X143553899Y-97701698D01*
X143407959Y-97791715D01*
X143407953Y-97791720D01*
X143286720Y-97912953D01*
X143286715Y-97912959D01*
X143196698Y-98058899D01*
X143142763Y-98221666D01*
X143132500Y-98322119D01*
X143132500Y-98579629D01*
X143112498Y-98647750D01*
X143095595Y-98668724D01*
X142590724Y-99173595D01*
X142528412Y-99207621D01*
X142501629Y-99210500D01*
X129386903Y-99210500D01*
X129318782Y-99190498D01*
X129272289Y-99136842D01*
X129261556Y-99071692D01*
X129264500Y-99042879D01*
X129264500Y-98785371D01*
X129284502Y-98717250D01*
X129301400Y-98696280D01*
X130030781Y-97966898D01*
X130044620Y-97954938D01*
X130064058Y-97940469D01*
X130098001Y-97900015D01*
X130101700Y-97895979D01*
X130107581Y-97890100D01*
X130127629Y-97864743D01*
X130128664Y-97863472D01*
X130178032Y-97804640D01*
X130178033Y-97804636D01*
X130178036Y-97804634D01*
X130182070Y-97798502D01*
X130182127Y-97798539D01*
X130186171Y-97792191D01*
X130186112Y-97792155D01*
X130189965Y-97785907D01*
X130189967Y-97785905D01*
X130222421Y-97716304D01*
X130223167Y-97714765D01*
X130257609Y-97646188D01*
X130257610Y-97646181D01*
X130260119Y-97639291D01*
X130260184Y-97639314D01*
X130262658Y-97632197D01*
X130262594Y-97632176D01*
X130264903Y-97625207D01*
X130269985Y-97600595D01*
X130280432Y-97549994D01*
X130280805Y-97548312D01*
X130298500Y-97473656D01*
X130298500Y-97473655D01*
X130299352Y-97466368D01*
X130299419Y-97466375D01*
X130300185Y-97458877D01*
X130300119Y-97458872D01*
X130300757Y-97451565D01*
X130300759Y-97451558D01*
X130299418Y-97405499D01*
X130298526Y-97374823D01*
X130298499Y-97372990D01*
X130298499Y-93836238D01*
X130298499Y-92642060D01*
X130318501Y-92573942D01*
X130372157Y-92527449D01*
X130442431Y-92517345D01*
X130507011Y-92546839D01*
X130545395Y-92606565D01*
X130546947Y-92612357D01*
X130578294Y-92741572D01*
X130578298Y-92741583D01*
X130648885Y-92896144D01*
X130665604Y-92932753D01*
X130787514Y-93103952D01*
X130939622Y-93248986D01*
X131116428Y-93362613D01*
X131311543Y-93440725D01*
X131517915Y-93480500D01*
X131517919Y-93480500D01*
X131675423Y-93480500D01*
X131675425Y-93480500D01*
X131832218Y-93465528D01*
X132033875Y-93406316D01*
X132220682Y-93310011D01*
X132385886Y-93180092D01*
X132523519Y-93021256D01*
X132628604Y-92839244D01*
X132697344Y-92640633D01*
X132727254Y-92432602D01*
X132722243Y-92327396D01*
X132717255Y-92222680D01*
X132717254Y-92222675D01*
X132717254Y-92222670D01*
X132667704Y-92018424D01*
X132667701Y-92018419D01*
X132667701Y-92018416D01*
X132623100Y-91920755D01*
X132580396Y-91827247D01*
X132458486Y-91656048D01*
X132306378Y-91511014D01*
X132129572Y-91397387D01*
X131934457Y-91319275D01*
X131934456Y-91319274D01*
X131934454Y-91319274D01*
X131728089Y-91279500D01*
X131728085Y-91279500D01*
X131570575Y-91279500D01*
X131570573Y-91279500D01*
X131570555Y-91279501D01*
X131413792Y-91294470D01*
X131413777Y-91294473D01*
X131212127Y-91353683D01*
X131212116Y-91353687D01*
X131025321Y-91449986D01*
X131025318Y-91449988D01*
X130860115Y-91579907D01*
X130860107Y-91579914D01*
X130722485Y-91738738D01*
X130722479Y-91738746D01*
X130617396Y-91920755D01*
X130617393Y-91920760D01*
X130548658Y-92119359D01*
X130547242Y-92125198D01*
X130545027Y-92124660D01*
X130519690Y-92180084D01*
X130459949Y-92218443D01*
X130388952Y-92218415D01*
X130329241Y-92180007D01*
X130299774Y-92115415D01*
X130298499Y-92097543D01*
X130298499Y-90234427D01*
X130299830Y-90216178D01*
X130303341Y-90192211D01*
X130299175Y-90144589D01*
X130298740Y-90139614D01*
X130298500Y-90134121D01*
X130298500Y-90125813D01*
X130295804Y-90102765D01*
X130294756Y-90093800D01*
X130294575Y-90092033D01*
X130287887Y-90015574D01*
X130287885Y-90015570D01*
X130286403Y-90008388D01*
X130286469Y-90008374D01*
X130284837Y-90001012D01*
X130284772Y-90001028D01*
X130283080Y-89993893D01*
X130283079Y-89993891D01*
X130283079Y-89993887D01*
X130256842Y-89921803D01*
X130256241Y-89920073D01*
X130243621Y-89881989D01*
X130232114Y-89847262D01*
X130232109Y-89847255D01*
X130229012Y-89840611D01*
X130229074Y-89840581D01*
X130225788Y-89833795D01*
X130225728Y-89833826D01*
X130222433Y-89827265D01*
X130198594Y-89791020D01*
X130180266Y-89763155D01*
X130179293Y-89761626D01*
X130139032Y-89696351D01*
X130134478Y-89690592D01*
X130134531Y-89690549D01*
X130129766Y-89684700D01*
X130129715Y-89684744D01*
X130124998Y-89679122D01*
X130069159Y-89626441D01*
X130067878Y-89625197D01*
X129878403Y-89435722D01*
X129844378Y-89373411D01*
X129841500Y-89346637D01*
X129841500Y-88792247D01*
X129861502Y-88724126D01*
X129901666Y-88684814D01*
X130031376Y-88605328D01*
X130223898Y-88440898D01*
X130388328Y-88248376D01*
X130520616Y-88032502D01*
X130617505Y-87798591D01*
X130676609Y-87552403D01*
X130696474Y-87300000D01*
X130676609Y-87047597D01*
X130617505Y-86801409D01*
X130520616Y-86567498D01*
X130388328Y-86351624D01*
X130223898Y-86159102D01*
X130119936Y-86070309D01*
X130081128Y-86010860D01*
X130080622Y-85939866D01*
X130118578Y-85879867D01*
X130182946Y-85849914D01*
X130201768Y-85848500D01*
X137095559Y-85848500D01*
X137113819Y-85849830D01*
X137118715Y-85850547D01*
X137137789Y-85853341D01*
X137171146Y-85850422D01*
X137190385Y-85848740D01*
X137195878Y-85848500D01*
X137204175Y-85848500D01*
X137204180Y-85848500D01*
X137226230Y-85845922D01*
X137236182Y-85844759D01*
X137237985Y-85844574D01*
X137314426Y-85837887D01*
X137314430Y-85837885D01*
X137321618Y-85836402D01*
X137321631Y-85836468D01*
X137328987Y-85834836D01*
X137328972Y-85834771D01*
X137336102Y-85833080D01*
X137336113Y-85833079D01*
X137408239Y-85806826D01*
X137409862Y-85806261D01*
X137482738Y-85782114D01*
X137482747Y-85782108D01*
X137489389Y-85779012D01*
X137489418Y-85779074D01*
X137496203Y-85775789D01*
X137496173Y-85775729D01*
X137502724Y-85772437D01*
X137502732Y-85772435D01*
X137566883Y-85730240D01*
X137568348Y-85729307D01*
X137633651Y-85689030D01*
X137633659Y-85689021D01*
X137639408Y-85684477D01*
X137639450Y-85684531D01*
X137645289Y-85679775D01*
X137645246Y-85679723D01*
X137650864Y-85675007D01*
X137650874Y-85675001D01*
X137703568Y-85619147D01*
X137704766Y-85617913D01*
X142353779Y-80968900D01*
X142367618Y-80956940D01*
X142387059Y-80942468D01*
X142421002Y-80902014D01*
X142424701Y-80897978D01*
X142430582Y-80892099D01*
X142450630Y-80866742D01*
X142451665Y-80865471D01*
X142501033Y-80806639D01*
X142501034Y-80806635D01*
X142501037Y-80806633D01*
X142505071Y-80800501D01*
X142505128Y-80800538D01*
X142509172Y-80794190D01*
X142509113Y-80794154D01*
X142512966Y-80787906D01*
X142512968Y-80787904D01*
X142545422Y-80718303D01*
X142546168Y-80716764D01*
X142580610Y-80648187D01*
X142580611Y-80648180D01*
X142583120Y-80641290D01*
X142583185Y-80641313D01*
X142585659Y-80634196D01*
X142585595Y-80634175D01*
X142587904Y-80627206D01*
X142591651Y-80609056D01*
X142603433Y-80551993D01*
X142603806Y-80550311D01*
X142621501Y-80475655D01*
X142621501Y-80475654D01*
X142622353Y-80468367D01*
X142622420Y-80468374D01*
X142623186Y-80460876D01*
X142623120Y-80460871D01*
X142623758Y-80453565D01*
X142623760Y-80453557D01*
X142622066Y-80395333D01*
X142621528Y-80376823D01*
X142621501Y-80374991D01*
X142621501Y-72233222D01*
X142641503Y-72165101D01*
X142681665Y-72125790D01*
X142731376Y-72095328D01*
X142923898Y-71930898D01*
X143088328Y-71738376D01*
X143220616Y-71522502D01*
X143317505Y-71288591D01*
X143376609Y-71042403D01*
X143396474Y-70790000D01*
X143376609Y-70537597D01*
X143317505Y-70291409D01*
X143220616Y-70057498D01*
X143088328Y-69841624D01*
X142923898Y-69649102D01*
X142731376Y-69484672D01*
X142515502Y-69352384D01*
X142500298Y-69346086D01*
X142281589Y-69255494D01*
X142113177Y-69215062D01*
X142035403Y-69196391D01*
X141783000Y-69176526D01*
X141782999Y-69176526D01*
X141530597Y-69196391D01*
X141284410Y-69255494D01*
X141050499Y-69352383D01*
X140834625Y-69484671D01*
X140642102Y-69649102D01*
X140477671Y-69841625D01*
X140398185Y-69971335D01*
X140345537Y-70018966D01*
X140290752Y-70031500D01*
X136633441Y-70031500D01*
X136615182Y-70030170D01*
X136591212Y-70026659D01*
X136591211Y-70026659D01*
X136584773Y-70027222D01*
X136538615Y-70031260D01*
X136533122Y-70031500D01*
X136524817Y-70031500D01*
X136503897Y-70033945D01*
X136492791Y-70035243D01*
X136491004Y-70035425D01*
X136472046Y-70037084D01*
X136414574Y-70042112D01*
X136407389Y-70043596D01*
X136407376Y-70043533D01*
X136400003Y-70045168D01*
X136400018Y-70045231D01*
X136392881Y-70046922D01*
X136320773Y-70073166D01*
X136319045Y-70073767D01*
X136272685Y-70089129D01*
X136246262Y-70097886D01*
X136246260Y-70097886D01*
X136246260Y-70097887D01*
X136239612Y-70100987D01*
X136239583Y-70100926D01*
X136232792Y-70104214D01*
X136232822Y-70104273D01*
X136226269Y-70107563D01*
X136162154Y-70149732D01*
X136160609Y-70150716D01*
X136095351Y-70190968D01*
X136089588Y-70195525D01*
X136089547Y-70195473D01*
X136083704Y-70200233D01*
X136083746Y-70200283D01*
X136078128Y-70204997D01*
X136025458Y-70260822D01*
X136024181Y-70262136D01*
X134442769Y-71843550D01*
X132883724Y-73402595D01*
X132821412Y-73436620D01*
X132794629Y-73439500D01*
X132692868Y-73439500D01*
X132624747Y-73419498D01*
X132589656Y-73385772D01*
X132567202Y-73353706D01*
X132567200Y-73353703D01*
X132567198Y-73353700D01*
X132405300Y-73191802D01*
X132377972Y-73172667D01*
X132317092Y-73130038D01*
X132217749Y-73060477D01*
X132178543Y-73042195D01*
X132125258Y-72995279D01*
X132105796Y-72927002D01*
X132126337Y-72859042D01*
X132178543Y-72813805D01*
X132180997Y-72812660D01*
X132217749Y-72795523D01*
X132405300Y-72664198D01*
X132567198Y-72502300D01*
X132578618Y-72485990D01*
X132589656Y-72470228D01*
X132645113Y-72425900D01*
X132692868Y-72416500D01*
X133096559Y-72416500D01*
X133114819Y-72417830D01*
X133119715Y-72418547D01*
X133138789Y-72421341D01*
X133172146Y-72418422D01*
X133191385Y-72416740D01*
X133196878Y-72416500D01*
X133205175Y-72416500D01*
X133205180Y-72416500D01*
X133227230Y-72413922D01*
X133237182Y-72412759D01*
X133238985Y-72412574D01*
X133315426Y-72405887D01*
X133315430Y-72405885D01*
X133322618Y-72404402D01*
X133322631Y-72404468D01*
X133329987Y-72402836D01*
X133329972Y-72402771D01*
X133337102Y-72401080D01*
X133337113Y-72401079D01*
X133409239Y-72374826D01*
X133410862Y-72374261D01*
X133483738Y-72350114D01*
X133483747Y-72350108D01*
X133490389Y-72347012D01*
X133490418Y-72347074D01*
X133497203Y-72343789D01*
X133497173Y-72343729D01*
X133503724Y-72340437D01*
X133503732Y-72340435D01*
X133567883Y-72298240D01*
X133569348Y-72297307D01*
X133634651Y-72257030D01*
X133634659Y-72257021D01*
X133640408Y-72252477D01*
X133640450Y-72252531D01*
X133646289Y-72247775D01*
X133646246Y-72247723D01*
X133651864Y-72243007D01*
X133651874Y-72243001D01*
X133704568Y-72187147D01*
X133705766Y-72185913D01*
X137136557Y-68755122D01*
X137198867Y-68721098D01*
X137213557Y-68719086D01*
X137213539Y-68718925D01*
X137217175Y-68718500D01*
X137217180Y-68718500D01*
X137238995Y-68715949D01*
X137249182Y-68714759D01*
X137250985Y-68714574D01*
X137327426Y-68707887D01*
X137327430Y-68707885D01*
X137334618Y-68706402D01*
X137334631Y-68706468D01*
X137341987Y-68704836D01*
X137341972Y-68704771D01*
X137349102Y-68703080D01*
X137349113Y-68703079D01*
X137421239Y-68676826D01*
X137422862Y-68676261D01*
X137495738Y-68652114D01*
X137495747Y-68652108D01*
X137502389Y-68649012D01*
X137502418Y-68649074D01*
X137509203Y-68645789D01*
X137509173Y-68645729D01*
X137515724Y-68642437D01*
X137515732Y-68642435D01*
X137579883Y-68600240D01*
X137581348Y-68599307D01*
X137646651Y-68559030D01*
X137646659Y-68559021D01*
X137652408Y-68554477D01*
X137652450Y-68554531D01*
X137658289Y-68549775D01*
X137658246Y-68549723D01*
X137663864Y-68545007D01*
X137663874Y-68545001D01*
X137716568Y-68489147D01*
X137717766Y-68487913D01*
X140030275Y-66175405D01*
X140092588Y-66141379D01*
X140119371Y-66138500D01*
X151373629Y-66138500D01*
X151441750Y-66158502D01*
X151462724Y-66175405D01*
X154085595Y-68798275D01*
X154119621Y-68860587D01*
X154122500Y-68887370D01*
X154122500Y-80336500D01*
X154102498Y-80404621D01*
X154048842Y-80451114D01*
X153996500Y-80462500D01*
X148366903Y-80462500D01*
X148298782Y-80442498D01*
X148252289Y-80388842D01*
X148241556Y-80323692D01*
X148244500Y-80294879D01*
X148244500Y-80037371D01*
X148264502Y-79969250D01*
X148281400Y-79948280D01*
X149080781Y-79148898D01*
X149094620Y-79136938D01*
X149114058Y-79122469D01*
X149148001Y-79082015D01*
X149151700Y-79077979D01*
X149157580Y-79072101D01*
X149177621Y-79046753D01*
X149178674Y-79045461D01*
X149228032Y-78986640D01*
X149228033Y-78986637D01*
X149228037Y-78986633D01*
X149232066Y-78980508D01*
X149232122Y-78980545D01*
X149236171Y-78974190D01*
X149236113Y-78974154D01*
X149239963Y-78967911D01*
X149239962Y-78967911D01*
X149239967Y-78967906D01*
X149272409Y-78898330D01*
X149273192Y-78896715D01*
X149276189Y-78890748D01*
X149307609Y-78828188D01*
X149307610Y-78828181D01*
X149310120Y-78821289D01*
X149310183Y-78821312D01*
X149312657Y-78814196D01*
X149312593Y-78814175D01*
X149314899Y-78807211D01*
X149314902Y-78807207D01*
X149330431Y-78731991D01*
X149330788Y-78730383D01*
X149348500Y-78655656D01*
X149348500Y-78655653D01*
X149349352Y-78648368D01*
X149349418Y-78648375D01*
X149350184Y-78640877D01*
X149350118Y-78640872D01*
X149350756Y-78633566D01*
X149350758Y-78633558D01*
X149349442Y-78588355D01*
X149348527Y-78556858D01*
X149348500Y-78555026D01*
X149348500Y-73592064D01*
X149368502Y-73523943D01*
X149422158Y-73477450D01*
X149492432Y-73467346D01*
X149557012Y-73496840D01*
X149595396Y-73556566D01*
X149596945Y-73562348D01*
X149624807Y-73677194D01*
X149628295Y-73691572D01*
X149628298Y-73691583D01*
X149690777Y-73828389D01*
X149715604Y-73882753D01*
X149837514Y-74053952D01*
X149989622Y-74198986D01*
X150166428Y-74312613D01*
X150361543Y-74390725D01*
X150567915Y-74430500D01*
X150567919Y-74430500D01*
X150725423Y-74430500D01*
X150725425Y-74430500D01*
X150882218Y-74415528D01*
X151083875Y-74356316D01*
X151088207Y-74354083D01*
X151255527Y-74267824D01*
X151270682Y-74260011D01*
X151435886Y-74130092D01*
X151573519Y-73971256D01*
X151678604Y-73789244D01*
X151747344Y-73590633D01*
X151769474Y-73436715D01*
X151777254Y-73382603D01*
X151767255Y-73172680D01*
X151767254Y-73172675D01*
X151767254Y-73172670D01*
X151717704Y-72968424D01*
X151717701Y-72968419D01*
X151717701Y-72968416D01*
X151668518Y-72860722D01*
X151630396Y-72777247D01*
X151508486Y-72606048D01*
X151356378Y-72461014D01*
X151179572Y-72347387D01*
X150984457Y-72269275D01*
X150984456Y-72269274D01*
X150984454Y-72269274D01*
X150778089Y-72229500D01*
X150778085Y-72229500D01*
X150620575Y-72229500D01*
X150620573Y-72229500D01*
X150620555Y-72229501D01*
X150463792Y-72244470D01*
X150463777Y-72244473D01*
X150262127Y-72303683D01*
X150262116Y-72303687D01*
X150075321Y-72399986D01*
X150075318Y-72399988D01*
X149910115Y-72529907D01*
X149910107Y-72529914D01*
X149772485Y-72688738D01*
X149772479Y-72688746D01*
X149667396Y-72870755D01*
X149667393Y-72870760D01*
X149598658Y-73069359D01*
X149597242Y-73075198D01*
X149595019Y-73074658D01*
X149569720Y-73130049D01*
X149509991Y-73168429D01*
X149438995Y-73168425D01*
X149379271Y-73130038D01*
X149349781Y-73065455D01*
X149348500Y-73047531D01*
X149348500Y-71184441D01*
X149349830Y-71166182D01*
X149351134Y-71157275D01*
X149353341Y-71142211D01*
X149349175Y-71094589D01*
X149348740Y-71089614D01*
X149348500Y-71084121D01*
X149348500Y-71075813D01*
X149344759Y-71043822D01*
X149344575Y-71042033D01*
X149337887Y-70965574D01*
X149337885Y-70965570D01*
X149336403Y-70958388D01*
X149336469Y-70958374D01*
X149334837Y-70951012D01*
X149334772Y-70951028D01*
X149333080Y-70943893D01*
X149333079Y-70943891D01*
X149333079Y-70943887D01*
X149306842Y-70871803D01*
X149306241Y-70870073D01*
X149293621Y-70831989D01*
X149282114Y-70797262D01*
X149282109Y-70797255D01*
X149279012Y-70790611D01*
X149279074Y-70790581D01*
X149275788Y-70783795D01*
X149275728Y-70783826D01*
X149272433Y-70777265D01*
X149248594Y-70741020D01*
X149230266Y-70713155D01*
X149229293Y-70711626D01*
X149189032Y-70646351D01*
X149184478Y-70640592D01*
X149184531Y-70640549D01*
X149179766Y-70634700D01*
X149179715Y-70634744D01*
X149174998Y-70629122D01*
X149119159Y-70576441D01*
X149117878Y-70575197D01*
X148928404Y-70385723D01*
X148894379Y-70323411D01*
X148891500Y-70296628D01*
X148891500Y-69742247D01*
X148911502Y-69674126D01*
X148951666Y-69634814D01*
X149081376Y-69555328D01*
X149273898Y-69390898D01*
X149438328Y-69198376D01*
X149570616Y-68982502D01*
X149667505Y-68748591D01*
X149726609Y-68502403D01*
X149746474Y-68250000D01*
X149726609Y-67997597D01*
X149667505Y-67751409D01*
X149570616Y-67517498D01*
X149438328Y-67301624D01*
X149273898Y-67109102D01*
X149081376Y-66944672D01*
X148865502Y-66812384D01*
X148850298Y-66806086D01*
X148631589Y-66715494D01*
X148463177Y-66675062D01*
X148385403Y-66656391D01*
X148133000Y-66636526D01*
X147880597Y-66656391D01*
X147634410Y-66715494D01*
X147400499Y-66812383D01*
X147184625Y-66944671D01*
X146992102Y-67109102D01*
X146827671Y-67301625D01*
X146695383Y-67517499D01*
X146598494Y-67751410D01*
X146544375Y-67976836D01*
X146539391Y-67997597D01*
X146519526Y-68250000D01*
X146539391Y-68502403D01*
X146550764Y-68549775D01*
X146598494Y-68748589D01*
X146651023Y-68875404D01*
X146695384Y-68982502D01*
X146827672Y-69198376D01*
X146992102Y-69390898D01*
X147184624Y-69555328D01*
X147184626Y-69555329D01*
X147184627Y-69555330D01*
X147204072Y-69567246D01*
X147264498Y-69604275D01*
X147314334Y-69634814D01*
X147361966Y-69687461D01*
X147374500Y-69742247D01*
X147374500Y-70598559D01*
X147373170Y-70616819D01*
X147369659Y-70640786D01*
X147369659Y-70640794D01*
X147374260Y-70693372D01*
X147374500Y-70698866D01*
X147374500Y-70707184D01*
X147378242Y-70739199D01*
X147378428Y-70741020D01*
X147385112Y-70817419D01*
X147386596Y-70824606D01*
X147386531Y-70824619D01*
X147388165Y-70831989D01*
X147388229Y-70831975D01*
X147389921Y-70839115D01*
X147401189Y-70870073D01*
X147416175Y-70911247D01*
X147416761Y-70912934D01*
X147440885Y-70985736D01*
X147443987Y-70992388D01*
X147443926Y-70992416D01*
X147447211Y-70999202D01*
X147447270Y-70999173D01*
X147450563Y-71005730D01*
X147492736Y-71069850D01*
X147493717Y-71071390D01*
X147533970Y-71136651D01*
X147533972Y-71136652D01*
X147533972Y-71136653D01*
X147538522Y-71142408D01*
X147538468Y-71142450D01*
X147543228Y-71148292D01*
X147543279Y-71148250D01*
X147547997Y-71153872D01*
X147547998Y-71153873D01*
X147547999Y-71153874D01*
X147600299Y-71203217D01*
X147603822Y-71206540D01*
X147605136Y-71207817D01*
X147794595Y-71397276D01*
X147828621Y-71459588D01*
X147831500Y-71486371D01*
X147831500Y-72239773D01*
X147811498Y-72307894D01*
X147757842Y-72354387D01*
X147687568Y-72364491D01*
X147622988Y-72334997D01*
X147595004Y-72300326D01*
X147593879Y-72298274D01*
X147494175Y-72116335D01*
X147461607Y-72072134D01*
X147335067Y-71900392D01*
X147315446Y-71873762D01*
X147105980Y-71657176D01*
X146869519Y-71470445D01*
X146869517Y-71470443D01*
X146801089Y-71429913D01*
X146610270Y-71316891D01*
X146332872Y-71199264D01*
X146042271Y-71119660D01*
X145743653Y-71079500D01*
X145517756Y-71079500D01*
X145312856Y-71093216D01*
X145292365Y-71094588D01*
X145292357Y-71094589D01*
X144997100Y-71154603D01*
X144997092Y-71154605D01*
X144712467Y-71253438D01*
X144712458Y-71253442D01*
X144443539Y-71389332D01*
X144195129Y-71559857D01*
X144195123Y-71559862D01*
X143971666Y-71761968D01*
X143971665Y-71761970D01*
X143777135Y-71992060D01*
X143777129Y-71992068D01*
X143615008Y-72246026D01*
X143488178Y-72519336D01*
X143488177Y-72519341D01*
X143398907Y-72807119D01*
X143348791Y-73104226D01*
X143346160Y-73182930D01*
X143340451Y-73353703D01*
X143338723Y-73405376D01*
X143368880Y-73705153D01*
X143438731Y-73998263D01*
X143438732Y-73998264D01*
X143547020Y-74279429D01*
X143691826Y-74543667D01*
X143826055Y-74725844D01*
X143870554Y-74786238D01*
X144080020Y-75002824D01*
X144316485Y-75189558D01*
X144575730Y-75343109D01*
X144853128Y-75460736D01*
X145143729Y-75540340D01*
X145442347Y-75580500D01*
X145442351Y-75580500D01*
X145668234Y-75580500D01*
X145668244Y-75580500D01*
X145893634Y-75565412D01*
X146188903Y-75505396D01*
X146473537Y-75406560D01*
X146742459Y-75270668D01*
X146990869Y-75100144D01*
X147214333Y-74898032D01*
X147408865Y-74667939D01*
X147570993Y-74413970D01*
X147591208Y-74370407D01*
X147638024Y-74317038D01*
X147706265Y-74297450D01*
X147774263Y-74317866D01*
X147820429Y-74371803D01*
X147831500Y-74423448D01*
X147831500Y-78200629D01*
X147811498Y-78268750D01*
X147794595Y-78289724D01*
X147358724Y-78725595D01*
X147296412Y-78759621D01*
X147269629Y-78762500D01*
X147012120Y-78762500D01*
X146911666Y-78772763D01*
X146748899Y-78826698D01*
X146602959Y-78916715D01*
X146602953Y-78916720D01*
X146481720Y-79037953D01*
X146481715Y-79037959D01*
X146391698Y-79183899D01*
X146337763Y-79346666D01*
X146327500Y-79447119D01*
X146327500Y-80294879D01*
X146330444Y-80323692D01*
X146317470Y-80393493D01*
X146268818Y-80445199D01*
X146205097Y-80462500D01*
X145702371Y-80462500D01*
X145634250Y-80442498D01*
X145613276Y-80425595D01*
X144981405Y-79793724D01*
X144947379Y-79731412D01*
X144944500Y-79704629D01*
X144944500Y-79447119D01*
X144934989Y-79354037D01*
X144934236Y-79346664D01*
X144880302Y-79183899D01*
X144790285Y-79037960D01*
X144790284Y-79037959D01*
X144790279Y-79037953D01*
X144669046Y-78916720D01*
X144669040Y-78916715D01*
X144601115Y-78874818D01*
X144523101Y-78826698D01*
X144360336Y-78772764D01*
X144360333Y-78772763D01*
X144259880Y-78762500D01*
X144259872Y-78762500D01*
X143712128Y-78762500D01*
X143712120Y-78762500D01*
X143611666Y-78772763D01*
X143448899Y-78826698D01*
X143302959Y-78916715D01*
X143302953Y-78916720D01*
X143181720Y-79037953D01*
X143181715Y-79037959D01*
X143091698Y-79183899D01*
X143037763Y-79346666D01*
X143027500Y-79447119D01*
X143027500Y-80294880D01*
X143027499Y-80294880D01*
X143037763Y-80395333D01*
X143037764Y-80395336D01*
X143091698Y-80558101D01*
X143161347Y-80671018D01*
X143181715Y-80704040D01*
X143181720Y-80704046D01*
X143302953Y-80825279D01*
X143302959Y-80825284D01*
X143302960Y-80825285D01*
X143448899Y-80915302D01*
X143611664Y-80969236D01*
X143631756Y-80971288D01*
X143712120Y-80979500D01*
X143712128Y-80979500D01*
X143969629Y-80979500D01*
X144037750Y-80999502D01*
X144058724Y-81016405D01*
X144754092Y-81711773D01*
X144766065Y-81725627D01*
X144780531Y-81745058D01*
X144812041Y-81771498D01*
X144820975Y-81778994D01*
X144825021Y-81782702D01*
X144830899Y-81788580D01*
X144830900Y-81788581D01*
X144856170Y-81808562D01*
X144857584Y-81809713D01*
X144916360Y-81859032D01*
X144916366Y-81859035D01*
X144922495Y-81863067D01*
X144922457Y-81863123D01*
X144928813Y-81867172D01*
X144928849Y-81867115D01*
X144935094Y-81870967D01*
X145004671Y-81903410D01*
X145006183Y-81904141D01*
X145074812Y-81938609D01*
X145074814Y-81938609D01*
X145081707Y-81941118D01*
X145081684Y-81941180D01*
X145088810Y-81943657D01*
X145088831Y-81943595D01*
X145095793Y-81945902D01*
X145170992Y-81961428D01*
X145172629Y-81961791D01*
X145247344Y-81979500D01*
X145247346Y-81979500D01*
X145254632Y-81980352D01*
X145254624Y-81980418D01*
X145262122Y-81981184D01*
X145262128Y-81981118D01*
X145269434Y-81981756D01*
X145269442Y-81981758D01*
X145315967Y-81980404D01*
X145346140Y-81979527D01*
X145347972Y-81979500D01*
X148266628Y-81979500D01*
X148334749Y-81999502D01*
X148381242Y-82053158D01*
X148391346Y-82123432D01*
X148361852Y-82188012D01*
X148355723Y-82194595D01*
X142301837Y-88248480D01*
X142239525Y-88282506D01*
X142183329Y-88281904D01*
X142035403Y-88246391D01*
X141847749Y-88231622D01*
X141783000Y-88226526D01*
X141782999Y-88226526D01*
X141530597Y-88246391D01*
X141284410Y-88305494D01*
X141050499Y-88402383D01*
X140834625Y-88534671D01*
X140642102Y-88699102D01*
X140477671Y-88891625D01*
X140345383Y-89107499D01*
X140248494Y-89341410D01*
X140234712Y-89398819D01*
X140189391Y-89587597D01*
X140169526Y-89840000D01*
X140189391Y-90092403D01*
X140196162Y-90120605D01*
X140248494Y-90338589D01*
X140330418Y-90536370D01*
X140345384Y-90572502D01*
X140477672Y-90788376D01*
X140642102Y-90980898D01*
X140713723Y-91042068D01*
X140737860Y-91062683D01*
X140776669Y-91122134D01*
X140777175Y-91193128D01*
X140739219Y-91253127D01*
X140674851Y-91283080D01*
X140632184Y-91282217D01*
X140618091Y-91279501D01*
X140618089Y-91279500D01*
X140618085Y-91279500D01*
X140460575Y-91279500D01*
X140460573Y-91279500D01*
X140460555Y-91279501D01*
X140303792Y-91294470D01*
X140303777Y-91294473D01*
X140102127Y-91353683D01*
X140102116Y-91353687D01*
X139915321Y-91449986D01*
X139915318Y-91449988D01*
X139750115Y-91579907D01*
X139750107Y-91579914D01*
X139612485Y-91738738D01*
X139612479Y-91738746D01*
X139507396Y-91920755D01*
X139507393Y-91920760D01*
X139438658Y-92119359D01*
X139438654Y-92119374D01*
X139408745Y-92327396D01*
X139418744Y-92537319D01*
X139418746Y-92537332D01*
X139468295Y-92741572D01*
X139468298Y-92741583D01*
X139538885Y-92896144D01*
X139555604Y-92932753D01*
X139677514Y-93103952D01*
X139829622Y-93248986D01*
X140006428Y-93362613D01*
X140201543Y-93440725D01*
X140407915Y-93480500D01*
X140407919Y-93480500D01*
X140565423Y-93480500D01*
X140565425Y-93480500D01*
X140722218Y-93465528D01*
X140923875Y-93406316D01*
X141110682Y-93310011D01*
X141275886Y-93180092D01*
X141413519Y-93021256D01*
X141518604Y-92839244D01*
X141587344Y-92640633D01*
X141617254Y-92432602D01*
X141612243Y-92327396D01*
X141607255Y-92222680D01*
X141607254Y-92222675D01*
X141607254Y-92222670D01*
X141557704Y-92018424D01*
X141557701Y-92018419D01*
X141557701Y-92018416D01*
X141513100Y-91920755D01*
X141470396Y-91827247D01*
X141348486Y-91656048D01*
X141314124Y-91623284D01*
X141278626Y-91561799D01*
X141282004Y-91490883D01*
X141323186Y-91433050D01*
X141389097Y-91406664D01*
X141430481Y-91409573D01*
X141530597Y-91433609D01*
X141783000Y-91453474D01*
X142035403Y-91433609D01*
X142281591Y-91374505D01*
X142515502Y-91277616D01*
X142731376Y-91145328D01*
X142923898Y-90980898D01*
X143088328Y-90788376D01*
X143220616Y-90572502D01*
X143317505Y-90338591D01*
X143376609Y-90092403D01*
X143396474Y-89840000D01*
X143376609Y-89587597D01*
X143341094Y-89439668D01*
X143344643Y-89368760D01*
X143374517Y-89321162D01*
X149350275Y-83345405D01*
X149412588Y-83311379D01*
X149439371Y-83308500D01*
X164250059Y-83308500D01*
X164268319Y-83309830D01*
X164273215Y-83310547D01*
X164292289Y-83313341D01*
X164325646Y-83310422D01*
X164344885Y-83308740D01*
X164350378Y-83308500D01*
X164358675Y-83308500D01*
X164358680Y-83308500D01*
X164380730Y-83305922D01*
X164390682Y-83304759D01*
X164392485Y-83304574D01*
X164468926Y-83297887D01*
X164468930Y-83297885D01*
X164476118Y-83296402D01*
X164476131Y-83296468D01*
X164483487Y-83294836D01*
X164483472Y-83294771D01*
X164490602Y-83293080D01*
X164490613Y-83293079D01*
X164562739Y-83266826D01*
X164564362Y-83266261D01*
X164637238Y-83242114D01*
X164637247Y-83242108D01*
X164643889Y-83239012D01*
X164643918Y-83239074D01*
X164650703Y-83235789D01*
X164650673Y-83235729D01*
X164657224Y-83232437D01*
X164657232Y-83232435D01*
X164721383Y-83190240D01*
X164722848Y-83189307D01*
X164788151Y-83149030D01*
X164788159Y-83149021D01*
X164793908Y-83144477D01*
X164793950Y-83144531D01*
X164799789Y-83139775D01*
X164799746Y-83139723D01*
X164805364Y-83135007D01*
X164805374Y-83135001D01*
X164858068Y-83079147D01*
X164859266Y-83077913D01*
X165590778Y-82346401D01*
X165604617Y-82334441D01*
X165624058Y-82319969D01*
X165658001Y-82279515D01*
X165661700Y-82275479D01*
X165667581Y-82269600D01*
X165687629Y-82244243D01*
X165688664Y-82242972D01*
X165738032Y-82184140D01*
X165738033Y-82184136D01*
X165738036Y-82184134D01*
X165742070Y-82178002D01*
X165742127Y-82178039D01*
X165746171Y-82171691D01*
X165746112Y-82171655D01*
X165749965Y-82165407D01*
X165749967Y-82165405D01*
X165782421Y-82095804D01*
X165783167Y-82094265D01*
X165817609Y-82025688D01*
X165817610Y-82025681D01*
X165820119Y-82018791D01*
X165820184Y-82018814D01*
X165822658Y-82011697D01*
X165822594Y-82011676D01*
X165824903Y-82004707D01*
X165829918Y-81980418D01*
X165840432Y-81929494D01*
X165840805Y-81927812D01*
X165858500Y-81853156D01*
X165858500Y-81853155D01*
X165859352Y-81845868D01*
X165859419Y-81845875D01*
X165860185Y-81838377D01*
X165860119Y-81838372D01*
X165860757Y-81831066D01*
X165860759Y-81831058D01*
X165859352Y-81782713D01*
X165858527Y-81754324D01*
X165858500Y-81752492D01*
X165858500Y-81515859D01*
X165878502Y-81447738D01*
X165932158Y-81401245D01*
X166002432Y-81391141D01*
X166024119Y-81396250D01*
X166123664Y-81429236D01*
X166157152Y-81432657D01*
X166224120Y-81439500D01*
X166224128Y-81439500D01*
X166771880Y-81439500D01*
X166844936Y-81432035D01*
X166872336Y-81429236D01*
X167035101Y-81375302D01*
X167181040Y-81285285D01*
X167302285Y-81164040D01*
X167392302Y-81018101D01*
X167446236Y-80855336D01*
X167450090Y-80817611D01*
X167456500Y-80754880D01*
X167456500Y-80497371D01*
X167476502Y-80429250D01*
X167493400Y-80408280D01*
X168130781Y-79770898D01*
X168144620Y-79758938D01*
X168164058Y-79744469D01*
X168198001Y-79704015D01*
X168201700Y-79699979D01*
X168207581Y-79694100D01*
X168227629Y-79668743D01*
X168228664Y-79667472D01*
X168278032Y-79608640D01*
X168278033Y-79608636D01*
X168278036Y-79608634D01*
X168282070Y-79602502D01*
X168282127Y-79602539D01*
X168286171Y-79596191D01*
X168286112Y-79596155D01*
X168289965Y-79589907D01*
X168289967Y-79589905D01*
X168322421Y-79520304D01*
X168323167Y-79518765D01*
X168357609Y-79450188D01*
X168357610Y-79450181D01*
X168360119Y-79443291D01*
X168360184Y-79443314D01*
X168362658Y-79436197D01*
X168362594Y-79436176D01*
X168364903Y-79429207D01*
X168375741Y-79376715D01*
X168380432Y-79353994D01*
X168380805Y-79352312D01*
X168398500Y-79277656D01*
X168398500Y-79277655D01*
X168399352Y-79270368D01*
X168399419Y-79270375D01*
X168400185Y-79262877D01*
X168400119Y-79262872D01*
X168400757Y-79255566D01*
X168400759Y-79255558D01*
X168399443Y-79210332D01*
X168398527Y-79178824D01*
X168398500Y-79176992D01*
X168398500Y-73592064D01*
X168418502Y-73523943D01*
X168472158Y-73477450D01*
X168542432Y-73467346D01*
X168607012Y-73496840D01*
X168645396Y-73556566D01*
X168646945Y-73562348D01*
X168674807Y-73677194D01*
X168678295Y-73691572D01*
X168678298Y-73691583D01*
X168740777Y-73828389D01*
X168765604Y-73882753D01*
X168887514Y-74053952D01*
X169039622Y-74198986D01*
X169216428Y-74312613D01*
X169411543Y-74390725D01*
X169617915Y-74430500D01*
X169617919Y-74430500D01*
X169775423Y-74430500D01*
X169775425Y-74430500D01*
X169932218Y-74415528D01*
X170133875Y-74356316D01*
X170138207Y-74354083D01*
X170305527Y-74267824D01*
X170320682Y-74260011D01*
X170485886Y-74130092D01*
X170623519Y-73971256D01*
X170728604Y-73789244D01*
X170797344Y-73590633D01*
X170819474Y-73436715D01*
X170827254Y-73382603D01*
X170817255Y-73172680D01*
X170817254Y-73172675D01*
X170817254Y-73172670D01*
X170767704Y-72968424D01*
X170767701Y-72968419D01*
X170767701Y-72968416D01*
X170718518Y-72860722D01*
X170680396Y-72777247D01*
X170558486Y-72606048D01*
X170406378Y-72461014D01*
X170229572Y-72347387D01*
X170034457Y-72269275D01*
X170034456Y-72269274D01*
X170034454Y-72269274D01*
X169828089Y-72229500D01*
X169828085Y-72229500D01*
X169670575Y-72229500D01*
X169670573Y-72229500D01*
X169670555Y-72229501D01*
X169513792Y-72244470D01*
X169513777Y-72244473D01*
X169312127Y-72303683D01*
X169312116Y-72303687D01*
X169125321Y-72399986D01*
X169125318Y-72399988D01*
X168960115Y-72529907D01*
X168960107Y-72529914D01*
X168822485Y-72688738D01*
X168822479Y-72688746D01*
X168717396Y-72870755D01*
X168717393Y-72870760D01*
X168648658Y-73069359D01*
X168647242Y-73075198D01*
X168645019Y-73074658D01*
X168619720Y-73130049D01*
X168559991Y-73168429D01*
X168488995Y-73168425D01*
X168429271Y-73130038D01*
X168399781Y-73065455D01*
X168398500Y-73047531D01*
X168398500Y-71184441D01*
X168399830Y-71166182D01*
X168401134Y-71157275D01*
X168403341Y-71142211D01*
X168398738Y-71089614D01*
X168398499Y-71084124D01*
X168398499Y-71084121D01*
X168398500Y-71075820D01*
X168394757Y-71043807D01*
X168394575Y-71042033D01*
X168387887Y-70965574D01*
X168387885Y-70965570D01*
X168386403Y-70958388D01*
X168386469Y-70958374D01*
X168384837Y-70951012D01*
X168384772Y-70951028D01*
X168383080Y-70943893D01*
X168383079Y-70943891D01*
X168383079Y-70943887D01*
X168356842Y-70871803D01*
X168356241Y-70870073D01*
X168343621Y-70831989D01*
X168332114Y-70797262D01*
X168332109Y-70797255D01*
X168329012Y-70790611D01*
X168329074Y-70790581D01*
X168325788Y-70783795D01*
X168325728Y-70783826D01*
X168322433Y-70777265D01*
X168298594Y-70741020D01*
X168280266Y-70713155D01*
X168279293Y-70711626D01*
X168239032Y-70646351D01*
X168234478Y-70640592D01*
X168234531Y-70640549D01*
X168229766Y-70634700D01*
X168229715Y-70634744D01*
X168224998Y-70629122D01*
X168169159Y-70576441D01*
X168167878Y-70575197D01*
X167978404Y-70385723D01*
X167944379Y-70323411D01*
X167941500Y-70296628D01*
X167941500Y-69742247D01*
X167961502Y-69674126D01*
X168001666Y-69634814D01*
X168131376Y-69555328D01*
X168323898Y-69390898D01*
X168488328Y-69198376D01*
X168620616Y-68982502D01*
X168717505Y-68748591D01*
X168776609Y-68502403D01*
X168796474Y-68250000D01*
X168776609Y-67997597D01*
X168717505Y-67751409D01*
X168620616Y-67517498D01*
X168488328Y-67301624D01*
X168323898Y-67109102D01*
X168131376Y-66944672D01*
X167915502Y-66812384D01*
X167900298Y-66806086D01*
X167681589Y-66715494D01*
X167513177Y-66675062D01*
X167435403Y-66656391D01*
X167183000Y-66636526D01*
X167182999Y-66636526D01*
X166930597Y-66656391D01*
X166684410Y-66715494D01*
X166450499Y-66812383D01*
X166234625Y-66944671D01*
X166042102Y-67109102D01*
X165877671Y-67301625D01*
X165745383Y-67517499D01*
X165648494Y-67751410D01*
X165589391Y-67997597D01*
X165580403Y-68111804D01*
X165569526Y-68250000D01*
X165589391Y-68502403D01*
X165600764Y-68549775D01*
X165648494Y-68748589D01*
X165701023Y-68875404D01*
X165745384Y-68982502D01*
X165877672Y-69198376D01*
X166042102Y-69390898D01*
X166234624Y-69555328D01*
X166234626Y-69555329D01*
X166234627Y-69555330D01*
X166254072Y-69567246D01*
X166314498Y-69604275D01*
X166364334Y-69634814D01*
X166411966Y-69687461D01*
X166424500Y-69742247D01*
X166424500Y-70598559D01*
X166423170Y-70616819D01*
X166419659Y-70640786D01*
X166419659Y-70640794D01*
X166424260Y-70693372D01*
X166424500Y-70698866D01*
X166424500Y-70707184D01*
X166428242Y-70739199D01*
X166428428Y-70741020D01*
X166435112Y-70817419D01*
X166436596Y-70824606D01*
X166436531Y-70824619D01*
X166438165Y-70831989D01*
X166438229Y-70831975D01*
X166439921Y-70839115D01*
X166451189Y-70870073D01*
X166466175Y-70911247D01*
X166466761Y-70912934D01*
X166490885Y-70985736D01*
X166493987Y-70992388D01*
X166493926Y-70992416D01*
X166497211Y-70999202D01*
X166497270Y-70999173D01*
X166500563Y-71005730D01*
X166542736Y-71069850D01*
X166543717Y-71071390D01*
X166583970Y-71136651D01*
X166583972Y-71136652D01*
X166583972Y-71136653D01*
X166588522Y-71142408D01*
X166588468Y-71142450D01*
X166593228Y-71148292D01*
X166593279Y-71148250D01*
X166597997Y-71153872D01*
X166597998Y-71153873D01*
X166597999Y-71153874D01*
X166650299Y-71203217D01*
X166653805Y-71206524D01*
X166655119Y-71207800D01*
X166764210Y-71316891D01*
X166844595Y-71397275D01*
X166878620Y-71459587D01*
X166881500Y-71486371D01*
X166881500Y-72239773D01*
X166861498Y-72307894D01*
X166807842Y-72354387D01*
X166737568Y-72364491D01*
X166672988Y-72334997D01*
X166645004Y-72300326D01*
X166643879Y-72298274D01*
X166544175Y-72116335D01*
X166511607Y-72072134D01*
X166385067Y-71900392D01*
X166365446Y-71873762D01*
X166155980Y-71657176D01*
X165919519Y-71470445D01*
X165919517Y-71470443D01*
X165851089Y-71429913D01*
X165660270Y-71316891D01*
X165382872Y-71199264D01*
X165092271Y-71119660D01*
X164793653Y-71079500D01*
X164567756Y-71079500D01*
X164362855Y-71093216D01*
X164342365Y-71094588D01*
X164342357Y-71094589D01*
X164047100Y-71154603D01*
X164047092Y-71154605D01*
X163762467Y-71253438D01*
X163762458Y-71253442D01*
X163493539Y-71389332D01*
X163245129Y-71559857D01*
X163245123Y-71559862D01*
X163021666Y-71761968D01*
X163021665Y-71761970D01*
X162827135Y-71992060D01*
X162827129Y-71992068D01*
X162665008Y-72246026D01*
X162538178Y-72519336D01*
X162538177Y-72519341D01*
X162448907Y-72807119D01*
X162398791Y-73104226D01*
X162396160Y-73182930D01*
X162390451Y-73353703D01*
X162388723Y-73405376D01*
X162418880Y-73705153D01*
X162488731Y-73998263D01*
X162488732Y-73998264D01*
X162539927Y-74131190D01*
X162545744Y-74201948D01*
X162512383Y-74264618D01*
X162450436Y-74299304D01*
X162379571Y-74294992D01*
X162333251Y-74265570D01*
X162085405Y-74017724D01*
X162051379Y-73955412D01*
X162048500Y-73928629D01*
X162048500Y-71890034D01*
X162068502Y-71821913D01*
X162078689Y-71808203D01*
X162138328Y-71738376D01*
X162270616Y-71522502D01*
X162367505Y-71288591D01*
X162426609Y-71042403D01*
X162446474Y-70790000D01*
X162426609Y-70537597D01*
X162367505Y-70291409D01*
X162270616Y-70057498D01*
X162138328Y-69841624D01*
X161973898Y-69649102D01*
X161781376Y-69484672D01*
X161565502Y-69352384D01*
X161550298Y-69346086D01*
X161331589Y-69255494D01*
X161163177Y-69215062D01*
X161085403Y-69196391D01*
X160833000Y-69176526D01*
X160580597Y-69196391D01*
X160334410Y-69255494D01*
X160100499Y-69352383D01*
X159884625Y-69484671D01*
X159692102Y-69649102D01*
X159527671Y-69841625D01*
X159395383Y-70057499D01*
X159298494Y-70291410D01*
X159239391Y-70537597D01*
X159225573Y-70713173D01*
X159219526Y-70790000D01*
X159239391Y-71042403D01*
X159246162Y-71070605D01*
X159298494Y-71288589D01*
X159390797Y-71511427D01*
X159395384Y-71522502D01*
X159527672Y-71738376D01*
X159692102Y-71930898D01*
X159787860Y-72012683D01*
X159826669Y-72072134D01*
X159827175Y-72143128D01*
X159789219Y-72203127D01*
X159724851Y-72233080D01*
X159682184Y-72232217D01*
X159668091Y-72229501D01*
X159668089Y-72229500D01*
X159668085Y-72229500D01*
X159510575Y-72229500D01*
X159510573Y-72229500D01*
X159510555Y-72229501D01*
X159353792Y-72244470D01*
X159353777Y-72244473D01*
X159152127Y-72303683D01*
X159152116Y-72303687D01*
X158965321Y-72399986D01*
X158965318Y-72399988D01*
X158800115Y-72529907D01*
X158800107Y-72529914D01*
X158662485Y-72688738D01*
X158662479Y-72688746D01*
X158557396Y-72870755D01*
X158557393Y-72870760D01*
X158488658Y-73069359D01*
X158488654Y-73069374D01*
X158458745Y-73277396D01*
X158468744Y-73487319D01*
X158468746Y-73487332D01*
X158518295Y-73691572D01*
X158518298Y-73691583D01*
X158580777Y-73828389D01*
X158605604Y-73882753D01*
X158727514Y-74053952D01*
X158879622Y-74198986D01*
X159056428Y-74312613D01*
X159251543Y-74390725D01*
X159457915Y-74430500D01*
X159457919Y-74430500D01*
X159615423Y-74430500D01*
X159615425Y-74430500D01*
X159772218Y-74415528D01*
X159973875Y-74356316D01*
X159978207Y-74354083D01*
X160145527Y-74267824D01*
X160160682Y-74260011D01*
X160325886Y-74130092D01*
X160325889Y-74130087D01*
X160327611Y-74128734D01*
X160393522Y-74102347D01*
X160463236Y-74115782D01*
X160514619Y-74164775D01*
X160531500Y-74227776D01*
X160531500Y-74230559D01*
X160530170Y-74248819D01*
X160527387Y-74267820D01*
X160526659Y-74272789D01*
X160530530Y-74317038D01*
X160531260Y-74325372D01*
X160531500Y-74330866D01*
X160531500Y-74339184D01*
X160535242Y-74371199D01*
X160535428Y-74373020D01*
X160542112Y-74449419D01*
X160543596Y-74456606D01*
X160543531Y-74456619D01*
X160545165Y-74463989D01*
X160545229Y-74463975D01*
X160546921Y-74471115D01*
X160559949Y-74506908D01*
X160573175Y-74543247D01*
X160573761Y-74544934D01*
X160597885Y-74617736D01*
X160600987Y-74624388D01*
X160600926Y-74624416D01*
X160604211Y-74631202D01*
X160604270Y-74631173D01*
X160607563Y-74637730D01*
X160649736Y-74701850D01*
X160650717Y-74703390D01*
X160690970Y-74768651D01*
X160690972Y-74768652D01*
X160690972Y-74768653D01*
X160695522Y-74774408D01*
X160695468Y-74774450D01*
X160700228Y-74780292D01*
X160700279Y-74780250D01*
X160704997Y-74785872D01*
X160704998Y-74785873D01*
X160704999Y-74785874D01*
X160760001Y-74837766D01*
X160760822Y-74838540D01*
X160762136Y-74839817D01*
X164304594Y-78382275D01*
X164338620Y-78444587D01*
X164341499Y-78471370D01*
X164341499Y-79615109D01*
X164321497Y-79683230D01*
X164267841Y-79729723D01*
X164197567Y-79739827D01*
X164132987Y-79710333D01*
X164095894Y-79654740D01*
X164092302Y-79643900D01*
X164092302Y-79643899D01*
X164002285Y-79497960D01*
X164002284Y-79497959D01*
X164002279Y-79497953D01*
X163881046Y-79376720D01*
X163881040Y-79376715D01*
X163881040Y-79376714D01*
X163735101Y-79286698D01*
X163572336Y-79232764D01*
X163572333Y-79232763D01*
X163471880Y-79222500D01*
X163471872Y-79222500D01*
X162924128Y-79222500D01*
X162924120Y-79222500D01*
X162823666Y-79232763D01*
X162660899Y-79286698D01*
X162514959Y-79376715D01*
X162514953Y-79376720D01*
X162393720Y-79497953D01*
X162393715Y-79497959D01*
X162303698Y-79643899D01*
X162249763Y-79806666D01*
X162239500Y-79907119D01*
X162239500Y-80164629D01*
X162219498Y-80232750D01*
X162202595Y-80253724D01*
X162030724Y-80425595D01*
X161968412Y-80459621D01*
X161941629Y-80462500D01*
X155765500Y-80462500D01*
X155697379Y-80442498D01*
X155650886Y-80388842D01*
X155639500Y-80336500D01*
X155639500Y-68585441D01*
X155640830Y-68567182D01*
X155643180Y-68551138D01*
X155644341Y-68543211D01*
X155640771Y-68502402D01*
X155639740Y-68490614D01*
X155639500Y-68485121D01*
X155639500Y-68476813D01*
X155635759Y-68444822D01*
X155635575Y-68443033D01*
X155628887Y-68366574D01*
X155628885Y-68366570D01*
X155627403Y-68359388D01*
X155627469Y-68359374D01*
X155625837Y-68352012D01*
X155625772Y-68352028D01*
X155624080Y-68344893D01*
X155624079Y-68344891D01*
X155624079Y-68344887D01*
X155597842Y-68272803D01*
X155597241Y-68271073D01*
X155590258Y-68249999D01*
X155573114Y-68198262D01*
X155573109Y-68198255D01*
X155570012Y-68191611D01*
X155570074Y-68191581D01*
X155566788Y-68184795D01*
X155566728Y-68184826D01*
X155563433Y-68178265D01*
X155521278Y-68114173D01*
X155520293Y-68112626D01*
X155480032Y-68047351D01*
X155475478Y-68041592D01*
X155475531Y-68041549D01*
X155470766Y-68035700D01*
X155470715Y-68035744D01*
X155465998Y-68030122D01*
X155410159Y-67977441D01*
X155408878Y-67976197D01*
X152321908Y-64889227D01*
X152309936Y-64875375D01*
X152295469Y-64855942D01*
X152295467Y-64855940D01*
X152255024Y-64822003D01*
X152250970Y-64818289D01*
X152245104Y-64812423D01*
X152245101Y-64812420D01*
X152235555Y-64804871D01*
X152219810Y-64792421D01*
X152218392Y-64791266D01*
X152159635Y-64741964D01*
X152153506Y-64737933D01*
X152153541Y-64737878D01*
X152147187Y-64733829D01*
X152147153Y-64733886D01*
X152140906Y-64730033D01*
X152071375Y-64697609D01*
X152069742Y-64696819D01*
X152001188Y-64662391D01*
X152001186Y-64662390D01*
X152001183Y-64662389D01*
X151994289Y-64659880D01*
X151994311Y-64659817D01*
X151987189Y-64657341D01*
X151987169Y-64657404D01*
X151980210Y-64655097D01*
X151905045Y-64639576D01*
X151903258Y-64639180D01*
X151828656Y-64621500D01*
X151821367Y-64620648D01*
X151821374Y-64620580D01*
X151813877Y-64619814D01*
X151813872Y-64619881D01*
X151806558Y-64619241D01*
X151729825Y-64621473D01*
X151727993Y-64621500D01*
X139817441Y-64621500D01*
X139799181Y-64620170D01*
X139775211Y-64616659D01*
X139722615Y-64621260D01*
X139717122Y-64621500D01*
X139708817Y-64621500D01*
X139687897Y-64623945D01*
X139676791Y-64625243D01*
X139675004Y-64625425D01*
X139656046Y-64627084D01*
X139598574Y-64632112D01*
X139591389Y-64633596D01*
X139591376Y-64633533D01*
X139584003Y-64635168D01*
X139584018Y-64635231D01*
X139576881Y-64636922D01*
X139504773Y-64663166D01*
X139503045Y-64663767D01*
X139469972Y-64674727D01*
X139430262Y-64687886D01*
X139430260Y-64687886D01*
X139430260Y-64687887D01*
X139423612Y-64690987D01*
X139423583Y-64690926D01*
X139416792Y-64694214D01*
X139416822Y-64694273D01*
X139410269Y-64697563D01*
X139346154Y-64739732D01*
X139344609Y-64740716D01*
X139279351Y-64780968D01*
X139273588Y-64785525D01*
X139273547Y-64785473D01*
X139267704Y-64790233D01*
X139267746Y-64790283D01*
X139262128Y-64794997D01*
X139209458Y-64850822D01*
X139208182Y-64852136D01*
X136895443Y-67164874D01*
X136833131Y-67198900D01*
X136818442Y-67200914D01*
X136818461Y-67201074D01*
X136792996Y-67204050D01*
X136782791Y-67205243D01*
X136781004Y-67205425D01*
X136762046Y-67207084D01*
X136704574Y-67212112D01*
X136697389Y-67213596D01*
X136697376Y-67213533D01*
X136690003Y-67215168D01*
X136690018Y-67215231D01*
X136682881Y-67216922D01*
X136610773Y-67243166D01*
X136609045Y-67243767D01*
X136562685Y-67259129D01*
X136536262Y-67267886D01*
X136536260Y-67267886D01*
X136536260Y-67267887D01*
X136529612Y-67270987D01*
X136529583Y-67270926D01*
X136522792Y-67274214D01*
X136522822Y-67274273D01*
X136516269Y-67277563D01*
X136452154Y-67319732D01*
X136450609Y-67320716D01*
X136385351Y-67360968D01*
X136379588Y-67365525D01*
X136379547Y-67365473D01*
X136373704Y-67370233D01*
X136373746Y-67370283D01*
X136368128Y-67374997D01*
X136315458Y-67430822D01*
X136314182Y-67432136D01*
X132883724Y-70862595D01*
X132821412Y-70896620D01*
X132794629Y-70899500D01*
X132692868Y-70899500D01*
X132624747Y-70879498D01*
X132589656Y-70845772D01*
X132567202Y-70813706D01*
X132567200Y-70813703D01*
X132567198Y-70813700D01*
X132405300Y-70651802D01*
X132397512Y-70646349D01*
X132329261Y-70598559D01*
X132217749Y-70520477D01*
X132178543Y-70502195D01*
X132125258Y-70455279D01*
X132105796Y-70387002D01*
X132126337Y-70319042D01*
X132178543Y-70273805D01*
X132180997Y-70272660D01*
X132217749Y-70255523D01*
X132405300Y-70124198D01*
X132567198Y-69962300D01*
X132698523Y-69774749D01*
X132795284Y-69567243D01*
X132854543Y-69346087D01*
X132874498Y-69118000D01*
X132854543Y-68889913D01*
X132795284Y-68668757D01*
X132698523Y-68461251D01*
X132567198Y-68273700D01*
X132405300Y-68111802D01*
X132217749Y-67980477D01*
X132178543Y-67962195D01*
X132125258Y-67915279D01*
X132105796Y-67847002D01*
X132126337Y-67779042D01*
X132178543Y-67733805D01*
X132180997Y-67732660D01*
X132217749Y-67715523D01*
X132405300Y-67584198D01*
X132567198Y-67422300D01*
X132698523Y-67234749D01*
X132795284Y-67027243D01*
X132854543Y-66806087D01*
X132874498Y-66578000D01*
X132854543Y-66349913D01*
X132795284Y-66128757D01*
X132698523Y-65921251D01*
X132567198Y-65733700D01*
X132405300Y-65571802D01*
X132405291Y-65571796D01*
X132221936Y-65443409D01*
X132217749Y-65440477D01*
X132178543Y-65422195D01*
X132125258Y-65375279D01*
X132105796Y-65307002D01*
X132126337Y-65239042D01*
X132178543Y-65193805D01*
X132180997Y-65192660D01*
X132217749Y-65175523D01*
X132405300Y-65044198D01*
X132567198Y-64882300D01*
X132698523Y-64694749D01*
X132795284Y-64487243D01*
X132854543Y-64266087D01*
X132874498Y-64038000D01*
X132854543Y-63809913D01*
X132795284Y-63588757D01*
X132698523Y-63381251D01*
X132567198Y-63193700D01*
X132405300Y-63031802D01*
X132217749Y-62900477D01*
X132191320Y-62888153D01*
X132010246Y-62803717D01*
X132010240Y-62803715D01*
X131829262Y-62755222D01*
X131789087Y-62744457D01*
X131561000Y-62724502D01*
X131332913Y-62744457D01*
X131111759Y-62803715D01*
X131111753Y-62803717D01*
X130904250Y-62900477D01*
X130716703Y-63031799D01*
X130716697Y-63031804D01*
X130554804Y-63193697D01*
X130554799Y-63193703D01*
X130423477Y-63381250D01*
X130326717Y-63588753D01*
X130326715Y-63588759D01*
X130267457Y-63809913D01*
X130247502Y-64038000D01*
X130267457Y-64266086D01*
X130326715Y-64487240D01*
X130326717Y-64487246D01*
X130423477Y-64694749D01*
X130493671Y-64794997D01*
X130554802Y-64882300D01*
X130716700Y-65044198D01*
X130716703Y-65044200D01*
X130904249Y-65175522D01*
X130904250Y-65175522D01*
X130904251Y-65175523D01*
X130943457Y-65193805D01*
X130996741Y-65240719D01*
X131016203Y-65308996D01*
X130995663Y-65376956D01*
X130943459Y-65422193D01*
X130904251Y-65440476D01*
X130716703Y-65571799D01*
X130716697Y-65571804D01*
X130554804Y-65733697D01*
X130554799Y-65733703D01*
X130423477Y-65921250D01*
X130326717Y-66128753D01*
X130326715Y-66128759D01*
X130284441Y-66286528D01*
X130267457Y-66349913D01*
X130247502Y-66578000D01*
X130267457Y-66806087D01*
X130301670Y-66933771D01*
X130326715Y-67027240D01*
X130326717Y-67027246D01*
X130423477Y-67234749D01*
X130534807Y-67393745D01*
X130554802Y-67422300D01*
X130716700Y-67584198D01*
X130904251Y-67715523D01*
X130939359Y-67731894D01*
X130943457Y-67733805D01*
X130996742Y-67780722D01*
X131016203Y-67848999D01*
X130995661Y-67916959D01*
X130943457Y-67962195D01*
X130904250Y-67980477D01*
X130716703Y-68111799D01*
X130716697Y-68111804D01*
X130554804Y-68273697D01*
X130554799Y-68273703D01*
X130423477Y-68461250D01*
X130326717Y-68668753D01*
X130326712Y-68668767D01*
X130304848Y-68750365D01*
X130267897Y-68810987D01*
X130204036Y-68842009D01*
X130133541Y-68833579D01*
X130096675Y-68809402D01*
X130069159Y-68783441D01*
X130067878Y-68782197D01*
X127372907Y-66087226D01*
X127360936Y-66073375D01*
X127346469Y-66053942D01*
X127346467Y-66053940D01*
X127306024Y-66020003D01*
X127301970Y-66016289D01*
X127296104Y-66010423D01*
X127296101Y-66010420D01*
X127286555Y-66002871D01*
X127270810Y-65990421D01*
X127269392Y-65989266D01*
X127210635Y-65939964D01*
X127204506Y-65935933D01*
X127204541Y-65935878D01*
X127198187Y-65931829D01*
X127198153Y-65931886D01*
X127191906Y-65928033D01*
X127122375Y-65895609D01*
X127120742Y-65894819D01*
X127052188Y-65860391D01*
X127052186Y-65860390D01*
X127052183Y-65860389D01*
X127045289Y-65857880D01*
X127045311Y-65857817D01*
X127038189Y-65855341D01*
X127038169Y-65855404D01*
X127031210Y-65853097D01*
X126956045Y-65837576D01*
X126954258Y-65837180D01*
X126879656Y-65819500D01*
X126872367Y-65818648D01*
X126872374Y-65818580D01*
X126864877Y-65817814D01*
X126864872Y-65817881D01*
X126857558Y-65817241D01*
X126780825Y-65819473D01*
X126778993Y-65819500D01*
X117452868Y-65819500D01*
X117384747Y-65799498D01*
X117349656Y-65765772D01*
X117327202Y-65733706D01*
X117327200Y-65733703D01*
X117327198Y-65733700D01*
X117165300Y-65571802D01*
X117165295Y-65571799D01*
X117165292Y-65571796D01*
X117161995Y-65569487D01*
X117117669Y-65514028D01*
X117110363Y-65443409D01*
X117142396Y-65380049D01*
X117203599Y-65344067D01*
X117220801Y-65340999D01*
X117230201Y-65339989D01*
X117367204Y-65288889D01*
X117402396Y-65262545D01*
X117484261Y-65201261D01*
X117571887Y-65084207D01*
X117571887Y-65084206D01*
X117571889Y-65084204D01*
X117622989Y-64947201D01*
X117629500Y-64886638D01*
X117629500Y-63189362D01*
X117629499Y-63189350D01*
X117622990Y-63128803D01*
X117622988Y-63128795D01*
X117586811Y-63031804D01*
X117571889Y-62991796D01*
X117571888Y-62991794D01*
X117571887Y-62991792D01*
X117484261Y-62874738D01*
X117367207Y-62787112D01*
X117367202Y-62787110D01*
X117230204Y-62736011D01*
X117230196Y-62736009D01*
X117169649Y-62729500D01*
X117169638Y-62729500D01*
X115472362Y-62729500D01*
X115472350Y-62729500D01*
X115411803Y-62736009D01*
X115411795Y-62736011D01*
X115274797Y-62787110D01*
X115274792Y-62787112D01*
X115157738Y-62874738D01*
X115070112Y-62991792D01*
X115070110Y-62991797D01*
X115019011Y-63128795D01*
X115019009Y-63128803D01*
X115012500Y-63189350D01*
X115012500Y-64886649D01*
X115019009Y-64947196D01*
X115019011Y-64947204D01*
X115070110Y-65084202D01*
X115070112Y-65084207D01*
X115157738Y-65201261D01*
X115274792Y-65288887D01*
X115274794Y-65288888D01*
X115274796Y-65288889D01*
X115411799Y-65339989D01*
X115421191Y-65340998D01*
X115486784Y-65368163D01*
X115527279Y-65426479D01*
X115529817Y-65497430D01*
X115493593Y-65558490D01*
X115480010Y-65569483D01*
X115476708Y-65571795D01*
X115476697Y-65571804D01*
X115314804Y-65733697D01*
X115314799Y-65733703D01*
X115183477Y-65921250D01*
X115086717Y-66128753D01*
X115086715Y-66128759D01*
X115044441Y-66286528D01*
X115027457Y-66349913D01*
X115007502Y-66578000D01*
X115027457Y-66806087D01*
X115061670Y-66933771D01*
X115086715Y-67027240D01*
X115086717Y-67027246D01*
X115183477Y-67234749D01*
X115294807Y-67393745D01*
X115314802Y-67422300D01*
X115476700Y-67584198D01*
X115664251Y-67715523D01*
X115699359Y-67731894D01*
X115703457Y-67733805D01*
X115756742Y-67780722D01*
X115776203Y-67848999D01*
X115755661Y-67916959D01*
X115703457Y-67962195D01*
X115664250Y-67980477D01*
X115476703Y-68111799D01*
X115476697Y-68111804D01*
X115314804Y-68273697D01*
X115314799Y-68273703D01*
X115183477Y-68461250D01*
X115086717Y-68668753D01*
X115086715Y-68668759D01*
X115049030Y-68809402D01*
X115027457Y-68889913D01*
X115007502Y-69118000D01*
X115027457Y-69346087D01*
X115039464Y-69390897D01*
X115086715Y-69567240D01*
X115086717Y-69567246D01*
X115183477Y-69774749D01*
X115282624Y-69916346D01*
X115314802Y-69962300D01*
X115476700Y-70124198D01*
X115664251Y-70255523D01*
X115678433Y-70262136D01*
X115703457Y-70273805D01*
X115756742Y-70320722D01*
X115776203Y-70388999D01*
X115755661Y-70456959D01*
X115703457Y-70502195D01*
X115664250Y-70520477D01*
X115476703Y-70651799D01*
X115476697Y-70651804D01*
X115314804Y-70813697D01*
X115314799Y-70813703D01*
X115183477Y-71001250D01*
X115086717Y-71208753D01*
X115086715Y-71208759D01*
X115027457Y-71429913D01*
X115012742Y-71598112D01*
X115007502Y-71658000D01*
X115023736Y-71843550D01*
X115027457Y-71886086D01*
X115086715Y-72107240D01*
X115086717Y-72107246D01*
X115183477Y-72314749D01*
X115252104Y-72412759D01*
X115314802Y-72502300D01*
X115476700Y-72664198D01*
X115664251Y-72795523D01*
X115677200Y-72801561D01*
X115703457Y-72813805D01*
X115756742Y-72860722D01*
X115776203Y-72928999D01*
X115755661Y-72996959D01*
X115703457Y-73042195D01*
X115664250Y-73060477D01*
X115476703Y-73191799D01*
X115476697Y-73191804D01*
X115314804Y-73353697D01*
X115314799Y-73353703D01*
X115183477Y-73541250D01*
X115086717Y-73748753D01*
X115086715Y-73748759D01*
X115038519Y-73928629D01*
X115027457Y-73969913D01*
X115007502Y-74198000D01*
X115027457Y-74426087D01*
X115037609Y-74463975D01*
X115086715Y-74647240D01*
X115086717Y-74647246D01*
X115183477Y-74854749D01*
X115287160Y-75002824D01*
X115314802Y-75042300D01*
X115476700Y-75204198D01*
X115476703Y-75204200D01*
X115664249Y-75335522D01*
X115664250Y-75335522D01*
X115664251Y-75335523D01*
X115703457Y-75353805D01*
X115756741Y-75400719D01*
X115776203Y-75468996D01*
X115755663Y-75536956D01*
X115703459Y-75582193D01*
X115664251Y-75600476D01*
X115476703Y-75731799D01*
X115476697Y-75731804D01*
X115314804Y-75893697D01*
X115314799Y-75893703D01*
X115183477Y-76081250D01*
X115086717Y-76288753D01*
X115086716Y-76288757D01*
X115027457Y-76509913D01*
X115007502Y-76738000D01*
X115027457Y-76966087D01*
X115086716Y-77187243D01*
X115183477Y-77394749D01*
X115314802Y-77582300D01*
X115476700Y-77744198D01*
X115664251Y-77875523D01*
X115699359Y-77891894D01*
X115703457Y-77893805D01*
X115756742Y-77940722D01*
X115776203Y-78008999D01*
X115755661Y-78076959D01*
X115703457Y-78122195D01*
X115664250Y-78140477D01*
X115476703Y-78271799D01*
X115476697Y-78271804D01*
X115314804Y-78433697D01*
X115314799Y-78433703D01*
X115183477Y-78621250D01*
X115086717Y-78828753D01*
X115086715Y-78828759D01*
X115047757Y-78974154D01*
X115027457Y-79049913D01*
X115007502Y-79278000D01*
X112593500Y-79278000D01*
X112593500Y-62381643D01*
X112593585Y-62378371D01*
X112600487Y-62246681D01*
X112610800Y-62063039D01*
X112611473Y-62056731D01*
X112635608Y-61904348D01*
X112663215Y-61741866D01*
X112664465Y-61736141D01*
X112705424Y-61583284D01*
X112750079Y-61428284D01*
X112751779Y-61423214D01*
X112808881Y-61274457D01*
X112809378Y-61273210D01*
X112870356Y-61125996D01*
X112872393Y-61121577D01*
X112945039Y-60979002D01*
X112946016Y-60977162D01*
X113022644Y-60838515D01*
X113024885Y-60834780D01*
X113112309Y-60700159D01*
X113113694Y-60698119D01*
X113205132Y-60569251D01*
X113207511Y-60566112D01*
X113308607Y-60441269D01*
X113310585Y-60438945D01*
X113415755Y-60321259D01*
X113418098Y-60318781D01*
X113531781Y-60205098D01*
X113534259Y-60202755D01*
X113651955Y-60097575D01*
X113654277Y-60095601D01*
X113779112Y-59994511D01*
X113782251Y-59992132D01*
X113911119Y-59900694D01*
X113913159Y-59899309D01*
X114047780Y-59811885D01*
X114051515Y-59809644D01*
X114190162Y-59733016D01*
X114192004Y-59732039D01*
X114334577Y-59659393D01*
X114338996Y-59657356D01*
X114486210Y-59596378D01*
X114487457Y-59595881D01*
X114636214Y-59538779D01*
X114641284Y-59537079D01*
X114796284Y-59492424D01*
X114949141Y-59451465D01*
X114954866Y-59450215D01*
X115117315Y-59422613D01*
X115253176Y-59401095D01*
X115269713Y-59398477D01*
X115276039Y-59397800D01*
X115303642Y-59396249D01*
X115459376Y-59387503D01*
X115591371Y-59380585D01*
X115594644Y-59380500D01*
X132591356Y-59380500D01*
X132594627Y-59380585D01*
G37*
%TD.AperFunction*%
%TA.AperFunction,NonConductor*%
G36*
X118327682Y-67356502D02*
G01*
X118374175Y-67410158D01*
X118384279Y-67480432D01*
X118354785Y-67545012D01*
X118351198Y-67548977D01*
X118349973Y-67550276D01*
X118349442Y-67550839D01*
X118348188Y-67552129D01*
X117577724Y-68322595D01*
X117515411Y-68356620D01*
X117488628Y-68359500D01*
X117452868Y-68359500D01*
X117384747Y-68339498D01*
X117349656Y-68305772D01*
X117327202Y-68273706D01*
X117327200Y-68273703D01*
X117327198Y-68273700D01*
X117165300Y-68111802D01*
X116977749Y-67980477D01*
X116938543Y-67962195D01*
X116885258Y-67915279D01*
X116865796Y-67847002D01*
X116886337Y-67779042D01*
X116938543Y-67733805D01*
X116940997Y-67732660D01*
X116977749Y-67715523D01*
X117165300Y-67584198D01*
X117327198Y-67422300D01*
X117344518Y-67397565D01*
X117349656Y-67390228D01*
X117405113Y-67345900D01*
X117452868Y-67336500D01*
X118259561Y-67336500D01*
X118327682Y-67356502D01*
G37*
%TD.AperFunction*%
%TA.AperFunction,NonConductor*%
G36*
X126492750Y-67356502D02*
G01*
X126513724Y-67373405D01*
X128744594Y-69604275D01*
X128778620Y-69666587D01*
X128781499Y-69693370D01*
X128781499Y-69791628D01*
X128761497Y-69859749D01*
X128707841Y-69906242D01*
X128637567Y-69916346D01*
X128572987Y-69886852D01*
X128566404Y-69880723D01*
X126274908Y-67589227D01*
X126262936Y-67575375D01*
X126248466Y-67555938D01*
X126243432Y-67550603D01*
X126245339Y-67548803D01*
X126212811Y-67499909D01*
X126211687Y-67428921D01*
X126249119Y-67368595D01*
X126313225Y-67338082D01*
X126333130Y-67336500D01*
X126424629Y-67336500D01*
X126492750Y-67356502D01*
G37*
%TD.AperFunction*%
%TA.AperFunction,NonConductor*%
G36*
X130507012Y-69900660D02*
G01*
X130527712Y-69923612D01*
X130554802Y-69962300D01*
X130716700Y-70124198D01*
X130904251Y-70255523D01*
X130918433Y-70262136D01*
X130943457Y-70273805D01*
X130996742Y-70320722D01*
X131016203Y-70388999D01*
X130995661Y-70456959D01*
X130943457Y-70502195D01*
X130904250Y-70520477D01*
X130716703Y-70651799D01*
X130716697Y-70651804D01*
X130554804Y-70813697D01*
X130554797Y-70813706D01*
X130527712Y-70852387D01*
X130472255Y-70896715D01*
X130401635Y-70904023D01*
X130338275Y-70871992D01*
X130302291Y-70810790D01*
X130298500Y-70780115D01*
X130298500Y-69995884D01*
X130318502Y-69927763D01*
X130372158Y-69881270D01*
X130442432Y-69871166D01*
X130507012Y-69900660D01*
G37*
%TD.AperFunction*%
%TA.AperFunction,NonConductor*%
G36*
X130507012Y-72440660D02*
G01*
X130527712Y-72463612D01*
X130554802Y-72502300D01*
X130716700Y-72664198D01*
X130904251Y-72795523D01*
X130917200Y-72801561D01*
X130943457Y-72813805D01*
X130996742Y-72860722D01*
X131016203Y-72928999D01*
X130995661Y-72996959D01*
X130943457Y-73042195D01*
X130904250Y-73060477D01*
X130716703Y-73191799D01*
X130716697Y-73191804D01*
X130554804Y-73353697D01*
X130554797Y-73353706D01*
X130527712Y-73392387D01*
X130472255Y-73436715D01*
X130401635Y-73444023D01*
X130338275Y-73411992D01*
X130302291Y-73350790D01*
X130298500Y-73320115D01*
X130298500Y-72535884D01*
X130318502Y-72467763D01*
X130372158Y-72421270D01*
X130442432Y-72411166D01*
X130507012Y-72440660D01*
G37*
%TD.AperFunction*%
%TA.AperFunction,NonConductor*%
G36*
X130507012Y-74980660D02*
G01*
X130527712Y-75003612D01*
X130554802Y-75042300D01*
X130716700Y-75204198D01*
X130904251Y-75335523D01*
X130939359Y-75351894D01*
X130943457Y-75353805D01*
X130996742Y-75400722D01*
X131016203Y-75468999D01*
X130995661Y-75536959D01*
X130943457Y-75582195D01*
X130904250Y-75600477D01*
X130716703Y-75731799D01*
X130716697Y-75731804D01*
X130554804Y-75893697D01*
X130554797Y-75893706D01*
X130527712Y-75932387D01*
X130472255Y-75976715D01*
X130401635Y-75984023D01*
X130338275Y-75951992D01*
X130302291Y-75890790D01*
X130298500Y-75860115D01*
X130298500Y-75075884D01*
X130318502Y-75007763D01*
X130372158Y-74961270D01*
X130442432Y-74951166D01*
X130507012Y-74980660D01*
G37*
%TD.AperFunction*%
%TA.AperFunction,NonConductor*%
G36*
X130507012Y-77520660D02*
G01*
X130527712Y-77543612D01*
X130554802Y-77582300D01*
X130716700Y-77744198D01*
X130904251Y-77875523D01*
X130939359Y-77891894D01*
X130943457Y-77893805D01*
X130996742Y-77940722D01*
X131016203Y-78008999D01*
X130995661Y-78076959D01*
X130943457Y-78122195D01*
X130904250Y-78140477D01*
X130716703Y-78271799D01*
X130716697Y-78271804D01*
X130554804Y-78433697D01*
X130554797Y-78433706D01*
X130527712Y-78472387D01*
X130472255Y-78516715D01*
X130401635Y-78524023D01*
X130338275Y-78491992D01*
X130302291Y-78430790D01*
X130298500Y-78400115D01*
X130298500Y-77615884D01*
X130318502Y-77547763D01*
X130372158Y-77501270D01*
X130442432Y-77491166D01*
X130507012Y-77520660D01*
G37*
%TD.AperFunction*%
%TA.AperFunction,NonConductor*%
G36*
X166824263Y-74317866D02*
G01*
X166870429Y-74371803D01*
X166881500Y-74423448D01*
X166881500Y-78822627D01*
X166861498Y-78890748D01*
X166844596Y-78911722D01*
X166570724Y-79185595D01*
X166508411Y-79219620D01*
X166481628Y-79222500D01*
X166224120Y-79222500D01*
X166123666Y-79232763D01*
X166024132Y-79265745D01*
X165953177Y-79268185D01*
X165892167Y-79231876D01*
X165860472Y-79168347D01*
X165858500Y-79146140D01*
X165858500Y-78169441D01*
X165859830Y-78151182D01*
X165861398Y-78140476D01*
X165863341Y-78127211D01*
X165860875Y-78099027D01*
X165858740Y-78074614D01*
X165858500Y-78069121D01*
X165858500Y-78060813D01*
X165854759Y-78028822D01*
X165854575Y-78027033D01*
X165847887Y-77950574D01*
X165847885Y-77950570D01*
X165846403Y-77943388D01*
X165846469Y-77943374D01*
X165844837Y-77936012D01*
X165844772Y-77936028D01*
X165843080Y-77928893D01*
X165843079Y-77928891D01*
X165843079Y-77928887D01*
X165816842Y-77856803D01*
X165816241Y-77855073D01*
X165810651Y-77838205D01*
X165792114Y-77782262D01*
X165792109Y-77782255D01*
X165789012Y-77775611D01*
X165789074Y-77775581D01*
X165785788Y-77768795D01*
X165785728Y-77768826D01*
X165782433Y-77762265D01*
X165740278Y-77698173D01*
X165739293Y-77696626D01*
X165699032Y-77631351D01*
X165694478Y-77625592D01*
X165694531Y-77625549D01*
X165689766Y-77619700D01*
X165689715Y-77619744D01*
X165684998Y-77614122D01*
X165629159Y-77561441D01*
X165627878Y-77560197D01*
X163710447Y-75642766D01*
X163676421Y-75580454D01*
X163681486Y-75509639D01*
X163724033Y-75452803D01*
X163790553Y-75427992D01*
X163848728Y-75437668D01*
X163903128Y-75460736D01*
X164193729Y-75540340D01*
X164492347Y-75580500D01*
X164492351Y-75580500D01*
X164718234Y-75580500D01*
X164718244Y-75580500D01*
X164943634Y-75565412D01*
X165238903Y-75505396D01*
X165523537Y-75406560D01*
X165792459Y-75270668D01*
X166040869Y-75100144D01*
X166264333Y-74898032D01*
X166458865Y-74667939D01*
X166620993Y-74413970D01*
X166641208Y-74370407D01*
X166688024Y-74317038D01*
X166756265Y-74297450D01*
X166824263Y-74317866D01*
G37*
%TD.AperFunction*%
%TA.AperFunction,NonConductor*%
G36*
X164271744Y-80934140D02*
G01*
X164323773Y-80982447D01*
X164341499Y-81046889D01*
X164341499Y-81398127D01*
X164321497Y-81466248D01*
X164304595Y-81487222D01*
X164037224Y-81754595D01*
X163974912Y-81788620D01*
X163948128Y-81791500D01*
X163114372Y-81791500D01*
X163046251Y-81771498D01*
X162999758Y-81717842D01*
X162989654Y-81647568D01*
X163019148Y-81582988D01*
X163025277Y-81576405D01*
X163125277Y-81476405D01*
X163187589Y-81442379D01*
X163214372Y-81439500D01*
X163471880Y-81439500D01*
X163544936Y-81432035D01*
X163572336Y-81429236D01*
X163735101Y-81375302D01*
X163881040Y-81285285D01*
X164002285Y-81164040D01*
X164092302Y-81018101D01*
X164095894Y-81007260D01*
X164136304Y-80948888D01*
X164201859Y-80921629D01*
X164271744Y-80934140D01*
G37*
%TD.AperFunction*%
%TA.AperFunction,NonConductor*%
G36*
X140358873Y-71568502D02*
G01*
X140398185Y-71608665D01*
X140477672Y-71738376D01*
X140642102Y-71930898D01*
X140737860Y-72012683D01*
X140776669Y-72072134D01*
X140777175Y-72143128D01*
X140739219Y-72203127D01*
X140674851Y-72233080D01*
X140632184Y-72232217D01*
X140618091Y-72229501D01*
X140618089Y-72229500D01*
X140618085Y-72229500D01*
X140460575Y-72229500D01*
X140460573Y-72229500D01*
X140460555Y-72229501D01*
X140303792Y-72244470D01*
X140303777Y-72244473D01*
X140102127Y-72303683D01*
X140102116Y-72303687D01*
X139915321Y-72399986D01*
X139915318Y-72399988D01*
X139750115Y-72529907D01*
X139750107Y-72529914D01*
X139612485Y-72688738D01*
X139612479Y-72688746D01*
X139507396Y-72870755D01*
X139507393Y-72870760D01*
X139438658Y-73069359D01*
X139438654Y-73069374D01*
X139408745Y-73277396D01*
X139418744Y-73487319D01*
X139418746Y-73487332D01*
X139468295Y-73691572D01*
X139468298Y-73691583D01*
X139530777Y-73828389D01*
X139555604Y-73882753D01*
X139677514Y-74053952D01*
X139829622Y-74198986D01*
X140006428Y-74312613D01*
X140201543Y-74390725D01*
X140407915Y-74430500D01*
X140407919Y-74430500D01*
X140565423Y-74430500D01*
X140565425Y-74430500D01*
X140722218Y-74415528D01*
X140923875Y-74356316D01*
X140923878Y-74356314D01*
X140929455Y-74354083D01*
X140930259Y-74356093D01*
X140990458Y-74344482D01*
X141056373Y-74370858D01*
X141097565Y-74428683D01*
X141104501Y-74469913D01*
X141104501Y-80020627D01*
X141084499Y-80088748D01*
X141067596Y-80109722D01*
X136882724Y-84294595D01*
X136820412Y-84328621D01*
X136793629Y-84331500D01*
X127547441Y-84331500D01*
X127529181Y-84330170D01*
X127505211Y-84326659D01*
X127452615Y-84331260D01*
X127447122Y-84331500D01*
X127438814Y-84331500D01*
X127406800Y-84335242D01*
X127404979Y-84335428D01*
X127328576Y-84342112D01*
X127321386Y-84343597D01*
X127321372Y-84343532D01*
X127314014Y-84345163D01*
X127314030Y-84345228D01*
X127306890Y-84346920D01*
X127234795Y-84373158D01*
X127233067Y-84373759D01*
X127160259Y-84397886D01*
X127153613Y-84400986D01*
X127153585Y-84400926D01*
X127146798Y-84404212D01*
X127146827Y-84404270D01*
X127140270Y-84407562D01*
X127076162Y-84449727D01*
X127074617Y-84450711D01*
X127009349Y-84490969D01*
X127003596Y-84495519D01*
X127003555Y-84495467D01*
X126997704Y-84500233D01*
X126997746Y-84500283D01*
X126992128Y-84504997D01*
X126939458Y-84560822D01*
X126938182Y-84562136D01*
X123251837Y-88248480D01*
X123189525Y-88282506D01*
X123133329Y-88281904D01*
X123040951Y-88259726D01*
X122979382Y-88224375D01*
X122946699Y-88161349D01*
X122953279Y-88090658D01*
X122981268Y-88048115D01*
X130030778Y-80998605D01*
X130044617Y-80986645D01*
X130064058Y-80972173D01*
X130098001Y-80931719D01*
X130101700Y-80927683D01*
X130107581Y-80921804D01*
X130127629Y-80896447D01*
X130128664Y-80895176D01*
X130178032Y-80836344D01*
X130178033Y-80836340D01*
X130178036Y-80836338D01*
X130182070Y-80830206D01*
X130182127Y-80830243D01*
X130186171Y-80823895D01*
X130186112Y-80823859D01*
X130189965Y-80817611D01*
X130189967Y-80817609D01*
X130222421Y-80748008D01*
X130223167Y-80746469D01*
X130257609Y-80677892D01*
X130257610Y-80677885D01*
X130260119Y-80670995D01*
X130260184Y-80671018D01*
X130262658Y-80663901D01*
X130262594Y-80663880D01*
X130264903Y-80656911D01*
X130278409Y-80591497D01*
X130280432Y-80581698D01*
X130280805Y-80580016D01*
X130298500Y-80505360D01*
X130298500Y-80505359D01*
X130299352Y-80498072D01*
X130299419Y-80498079D01*
X130300185Y-80490581D01*
X130300119Y-80490576D01*
X130300757Y-80483270D01*
X130300759Y-80483262D01*
X130299443Y-80438036D01*
X130298527Y-80406528D01*
X130298500Y-80404696D01*
X130298500Y-80155884D01*
X130318502Y-80087763D01*
X130372158Y-80041270D01*
X130442432Y-80031166D01*
X130507012Y-80060660D01*
X130527712Y-80083612D01*
X130554802Y-80122300D01*
X130716700Y-80284198D01*
X130904251Y-80415523D01*
X131111757Y-80512284D01*
X131332913Y-80571543D01*
X131561000Y-80591498D01*
X131789087Y-80571543D01*
X132010243Y-80512284D01*
X132217749Y-80415523D01*
X132405300Y-80284198D01*
X132567198Y-80122300D01*
X132698523Y-79934749D01*
X132795284Y-79727243D01*
X132854543Y-79506087D01*
X132874498Y-79278000D01*
X132854543Y-79049913D01*
X132795284Y-78828757D01*
X132698523Y-78621251D01*
X132567198Y-78433700D01*
X132405300Y-78271802D01*
X132400941Y-78268750D01*
X132303655Y-78200629D01*
X132217749Y-78140477D01*
X132189295Y-78127209D01*
X132178543Y-78122195D01*
X132125258Y-78075279D01*
X132105796Y-78007002D01*
X132126337Y-77939042D01*
X132178543Y-77893805D01*
X132180997Y-77892660D01*
X132217749Y-77875523D01*
X132405300Y-77744198D01*
X132567198Y-77582300D01*
X132698523Y-77394749D01*
X132795284Y-77187243D01*
X132854543Y-76966087D01*
X132874498Y-76738000D01*
X132854543Y-76509913D01*
X132795284Y-76288757D01*
X132698523Y-76081251D01*
X132567198Y-75893700D01*
X132405300Y-75731802D01*
X132217749Y-75600477D01*
X132178543Y-75582195D01*
X132125258Y-75535279D01*
X132105796Y-75467002D01*
X132126337Y-75399042D01*
X132178543Y-75353805D01*
X132180997Y-75352660D01*
X132217749Y-75335523D01*
X132405300Y-75204198D01*
X132567198Y-75042300D01*
X132578618Y-75025990D01*
X132589656Y-75010228D01*
X132645113Y-74965900D01*
X132692868Y-74956500D01*
X133096559Y-74956500D01*
X133114819Y-74957830D01*
X133119715Y-74958547D01*
X133138789Y-74961341D01*
X133172146Y-74958422D01*
X133191385Y-74956740D01*
X133196878Y-74956500D01*
X133205175Y-74956500D01*
X133205180Y-74956500D01*
X133227230Y-74953922D01*
X133237182Y-74952759D01*
X133238985Y-74952574D01*
X133315426Y-74945887D01*
X133315430Y-74945885D01*
X133322618Y-74944402D01*
X133322631Y-74944468D01*
X133329987Y-74942836D01*
X133329972Y-74942771D01*
X133337102Y-74941080D01*
X133337113Y-74941079D01*
X133409239Y-74914826D01*
X133410862Y-74914261D01*
X133483738Y-74890114D01*
X133483747Y-74890108D01*
X133490389Y-74887012D01*
X133490418Y-74887074D01*
X133497203Y-74883789D01*
X133497173Y-74883729D01*
X133503724Y-74880437D01*
X133503732Y-74880435D01*
X133567883Y-74838240D01*
X133569348Y-74837307D01*
X133634651Y-74797030D01*
X133634659Y-74797021D01*
X133640408Y-74792477D01*
X133640450Y-74792531D01*
X133646289Y-74787775D01*
X133646246Y-74787723D01*
X133651864Y-74783007D01*
X133651874Y-74783001D01*
X133704568Y-74727147D01*
X133705766Y-74725913D01*
X136846275Y-71585405D01*
X136908588Y-71551379D01*
X136935371Y-71548500D01*
X140290752Y-71548500D01*
X140358873Y-71568502D01*
G37*
%TD.AperFunction*%
%TA.AperFunction,NonConductor*%
G36*
X121074240Y-90059309D02*
G01*
X121131076Y-90101856D01*
X121152726Y-90147950D01*
X121166152Y-90203872D01*
X121198494Y-90338589D01*
X121280418Y-90536370D01*
X121295384Y-90572502D01*
X121427672Y-90788376D01*
X121592102Y-90980898D01*
X121663723Y-91042068D01*
X121687860Y-91062683D01*
X121726669Y-91122134D01*
X121727175Y-91193128D01*
X121689219Y-91253127D01*
X121624851Y-91283080D01*
X121582184Y-91282217D01*
X121568091Y-91279501D01*
X121568089Y-91279500D01*
X121568085Y-91279500D01*
X121410575Y-91279500D01*
X121410573Y-91279500D01*
X121410555Y-91279501D01*
X121253792Y-91294470D01*
X121253777Y-91294473D01*
X121052127Y-91353683D01*
X121052116Y-91353687D01*
X120865321Y-91449986D01*
X120865318Y-91449988D01*
X120700115Y-91579907D01*
X120700107Y-91579914D01*
X120562485Y-91738738D01*
X120562479Y-91738746D01*
X120457396Y-91920755D01*
X120457393Y-91920760D01*
X120388658Y-92119359D01*
X120387242Y-92125198D01*
X120385030Y-92124661D01*
X120359679Y-92180095D01*
X120299932Y-92218446D01*
X120228935Y-92218408D01*
X120169230Y-92179992D01*
X120139772Y-92115395D01*
X120138500Y-92097545D01*
X120138500Y-90943074D01*
X120158502Y-90874953D01*
X120175395Y-90853989D01*
X120941116Y-90088267D01*
X121003425Y-90054245D01*
X121074240Y-90059309D01*
G37*
%TD.AperFunction*%
%TA.AperFunction,NonConductor*%
G36*
X128032353Y-85868502D02*
G01*
X128078846Y-85922158D01*
X128088950Y-85992432D01*
X128059456Y-86057012D01*
X128046066Y-86070307D01*
X128038943Y-86076392D01*
X127942102Y-86159102D01*
X127777671Y-86351625D01*
X127645383Y-86567499D01*
X127548494Y-86801410D01*
X127489390Y-87047597D01*
X127489391Y-87047597D01*
X127469526Y-87300000D01*
X127489391Y-87552403D01*
X127495092Y-87576150D01*
X127548494Y-87798589D01*
X127548495Y-87798591D01*
X127645384Y-88032502D01*
X127777672Y-88248376D01*
X127942102Y-88440898D01*
X128134624Y-88605328D01*
X128134626Y-88605329D01*
X128134627Y-88605330D01*
X128264334Y-88684814D01*
X128311966Y-88737461D01*
X128324500Y-88792247D01*
X128324499Y-89648559D01*
X128323169Y-89666815D01*
X128319659Y-89690779D01*
X128319659Y-89690794D01*
X128324260Y-89743372D01*
X128324500Y-89748866D01*
X128324500Y-89757184D01*
X128328242Y-89789199D01*
X128328428Y-89791020D01*
X128335112Y-89867419D01*
X128336596Y-89874606D01*
X128336531Y-89874619D01*
X128338165Y-89881989D01*
X128338229Y-89881975D01*
X128339921Y-89889115D01*
X128352193Y-89922831D01*
X128366175Y-89961247D01*
X128366761Y-89962934D01*
X128390885Y-90035736D01*
X128393987Y-90042388D01*
X128393926Y-90042416D01*
X128397211Y-90049202D01*
X128397270Y-90049173D01*
X128400563Y-90055730D01*
X128442736Y-90119850D01*
X128443717Y-90121390D01*
X128483970Y-90186651D01*
X128483972Y-90186653D01*
X128488522Y-90192408D01*
X128488468Y-90192450D01*
X128493228Y-90198292D01*
X128493279Y-90198250D01*
X128497997Y-90203872D01*
X128497998Y-90203873D01*
X128497999Y-90203874D01*
X128546107Y-90249262D01*
X128553805Y-90256524D01*
X128555119Y-90257800D01*
X128664210Y-90366891D01*
X128744595Y-90447275D01*
X128778620Y-90509587D01*
X128781500Y-90536371D01*
X128781500Y-91289773D01*
X128761498Y-91357894D01*
X128707842Y-91404387D01*
X128637568Y-91414491D01*
X128572988Y-91384997D01*
X128545004Y-91350326D01*
X128527987Y-91319274D01*
X128444175Y-91166335D01*
X128411607Y-91122134D01*
X128265445Y-90923761D01*
X128233650Y-90890885D01*
X128055980Y-90707176D01*
X127819519Y-90520445D01*
X127819517Y-90520443D01*
X127682574Y-90439332D01*
X127560270Y-90366891D01*
X127282872Y-90249264D01*
X126992271Y-90169660D01*
X126693653Y-90129500D01*
X126467756Y-90129500D01*
X126262856Y-90143216D01*
X126242365Y-90144588D01*
X126242357Y-90144589D01*
X125947100Y-90204603D01*
X125947092Y-90204605D01*
X125662467Y-90303438D01*
X125662458Y-90303442D01*
X125393539Y-90439332D01*
X125145129Y-90609857D01*
X125145123Y-90609862D01*
X124921666Y-90811968D01*
X124921665Y-90811970D01*
X124727135Y-91042060D01*
X124727129Y-91042068D01*
X124565008Y-91296026D01*
X124438178Y-91569336D01*
X124438177Y-91569341D01*
X124348907Y-91857119D01*
X124298791Y-92154226D01*
X124295129Y-92263735D01*
X124293002Y-92327398D01*
X124288723Y-92455376D01*
X124318880Y-92755153D01*
X124388731Y-93048263D01*
X124388732Y-93048264D01*
X124497020Y-93329429D01*
X124641826Y-93593667D01*
X124820553Y-93836238D01*
X124820554Y-93836238D01*
X125030020Y-94052824D01*
X125266485Y-94239558D01*
X125525730Y-94393109D01*
X125803128Y-94510736D01*
X126093729Y-94590340D01*
X126392347Y-94630500D01*
X126392351Y-94630500D01*
X126618234Y-94630500D01*
X126618244Y-94630500D01*
X126843634Y-94615412D01*
X127138903Y-94555396D01*
X127423537Y-94456560D01*
X127692459Y-94320668D01*
X127940869Y-94150144D01*
X128164333Y-93948032D01*
X128358865Y-93717939D01*
X128520993Y-93463970D01*
X128541208Y-93420407D01*
X128588024Y-93367038D01*
X128656265Y-93347450D01*
X128724263Y-93367866D01*
X128770429Y-93421803D01*
X128781500Y-93473448D01*
X128781500Y-97018628D01*
X128761498Y-97086749D01*
X128744595Y-97107723D01*
X128378722Y-97473596D01*
X128316412Y-97507620D01*
X128289629Y-97510500D01*
X128032120Y-97510500D01*
X127931666Y-97520763D01*
X127768899Y-97574698D01*
X127622959Y-97664715D01*
X127622953Y-97664720D01*
X127501720Y-97785953D01*
X127501715Y-97785959D01*
X127411698Y-97931899D01*
X127357763Y-98094666D01*
X127347500Y-98195119D01*
X127347500Y-99042879D01*
X127350444Y-99071692D01*
X127337470Y-99141493D01*
X127288818Y-99193199D01*
X127225097Y-99210500D01*
X126722371Y-99210500D01*
X126654250Y-99190498D01*
X126633276Y-99173595D01*
X126001404Y-98541723D01*
X125967378Y-98479411D01*
X125964500Y-98452637D01*
X125964500Y-98195128D01*
X125964499Y-98195119D01*
X125964500Y-98195119D01*
X125954236Y-98094666D01*
X125954236Y-98094664D01*
X125900302Y-97931899D01*
X125810285Y-97785960D01*
X125810284Y-97785959D01*
X125810279Y-97785953D01*
X125689046Y-97664720D01*
X125689040Y-97664715D01*
X125647859Y-97639314D01*
X125543101Y-97574698D01*
X125380336Y-97520764D01*
X125380333Y-97520763D01*
X125279880Y-97510500D01*
X125279872Y-97510500D01*
X124732128Y-97510500D01*
X124732120Y-97510500D01*
X124631666Y-97520763D01*
X124468899Y-97574698D01*
X124322959Y-97664715D01*
X124322953Y-97664720D01*
X124201720Y-97785953D01*
X124201713Y-97785962D01*
X124192655Y-97800648D01*
X124139869Y-97848126D01*
X124085415Y-97860500D01*
X121845371Y-97860500D01*
X121777250Y-97840498D01*
X121756276Y-97823595D01*
X120175405Y-96242724D01*
X120141379Y-96180412D01*
X120138500Y-96153629D01*
X120138500Y-92642064D01*
X120158502Y-92573943D01*
X120212158Y-92527450D01*
X120282432Y-92517346D01*
X120347012Y-92546840D01*
X120385396Y-92606566D01*
X120386945Y-92612348D01*
X120414807Y-92727194D01*
X120418295Y-92741572D01*
X120418298Y-92741583D01*
X120488885Y-92896144D01*
X120505604Y-92932753D01*
X120627514Y-93103952D01*
X120779622Y-93248986D01*
X120956428Y-93362613D01*
X121151543Y-93440725D01*
X121357915Y-93480500D01*
X121357919Y-93480500D01*
X121515423Y-93480500D01*
X121515425Y-93480500D01*
X121672218Y-93465528D01*
X121873875Y-93406316D01*
X122060682Y-93310011D01*
X122225886Y-93180092D01*
X122363519Y-93021256D01*
X122468604Y-92839244D01*
X122537344Y-92640633D01*
X122567254Y-92432602D01*
X122562243Y-92327396D01*
X122557255Y-92222680D01*
X122557254Y-92222675D01*
X122557254Y-92222670D01*
X122507704Y-92018424D01*
X122507701Y-92018419D01*
X122507701Y-92018416D01*
X122463100Y-91920755D01*
X122420396Y-91827247D01*
X122298486Y-91656048D01*
X122264124Y-91623284D01*
X122228626Y-91561799D01*
X122232004Y-91490883D01*
X122273186Y-91433050D01*
X122339097Y-91406664D01*
X122380481Y-91409573D01*
X122480597Y-91433609D01*
X122733000Y-91453474D01*
X122985403Y-91433609D01*
X123231591Y-91374505D01*
X123465502Y-91277616D01*
X123681376Y-91145328D01*
X123873898Y-90980898D01*
X124038328Y-90788376D01*
X124170616Y-90572502D01*
X124267505Y-90338591D01*
X124326609Y-90092403D01*
X124346474Y-89840000D01*
X124326609Y-89587597D01*
X124291094Y-89439668D01*
X124294643Y-89368760D01*
X124324517Y-89321162D01*
X127760275Y-85885405D01*
X127822588Y-85851379D01*
X127849371Y-85848500D01*
X127964232Y-85848500D01*
X128032353Y-85868502D01*
G37*
%TD.AperFunction*%
M02*
