M48
; DRILL file {KiCad 7.0.3} date Tue 20 Jun 2023 01:58:56 PM
; FORMAT={-:-/ absolute / inch / decimal}
; #@! TF.CreationDate,2023-06-20T13:58:56-06:00
; #@! TF.GenerationSoftware,Kicad,Pcbnew,7.0.3
; #@! TF.FileFunction,NonPlated,1,2,NPTH
FMAT,2
INCH
; #@! TA.AperFunction,NonPlated,NPTH,ComponentDrill
T1C0.0669
; #@! TA.AperFunction,NonPlated,NPTH,ComponentDrill
T2C0.1260
; #@! TA.AperFunction,NonPlated,NPTH,ComponentDrill
T3C0.1575
%
G90
G05
T1
X4.782Y-3.637
X4.782Y-4.387
X5.182Y-3.637
X5.182Y-4.387
X5.532Y-2.887
X5.532Y-3.637
X5.532Y-4.387
X5.932Y-2.887
X5.932Y-3.637
X5.932Y-4.387
X6.282Y-2.887
X6.282Y-3.637
X6.282Y-4.387
X6.682Y-2.887
X6.682Y-3.637
X6.682Y-4.387
T2
X4.8698Y-2.8732
T3
X4.982Y-3.637
X4.982Y-4.387
X5.732Y-2.887
X5.732Y-3.637
X5.732Y-4.387
X6.482Y-2.887
X6.482Y-3.637
X6.482Y-4.387
T0
M30
