M48
; DRILL file {KiCad (6.0.11)} date Thu 16 Feb 2023 03:46:29 PM
; FORMAT={-:-/ absolute / metric / decimal}
; #@! TF.CreationDate,2023-02-16T15:46:29-07:00
; #@! TF.GenerationSoftware,Kicad,Pcbnew,(6.0.11)
; #@! TF.FileFunction,MixedPlating,1,2
FMAT,2
METRIC
; #@! TA.AperFunction,Plated,PTH,ComponentDrill
T1C1.000
; #@! TA.AperFunction,Plated,PTH,ComponentDrill
T2C1.500
; #@! TA.AperFunction,NonPlated,NPTH,ComponentDrill
T3C1.700
; #@! TA.AperFunction,NonPlated,NPTH,ComponentDrill
T4C3.200
; #@! TA.AperFunction,NonPlated,NPTH,ComponentDrill
T5C4.000
%
G90
G05
T1
X-29.272Y28.342
X-29.272Y25.802
X-29.272Y23.262
X-29.272Y20.722
X-29.272Y18.182
X-29.272Y15.642
X-29.272Y13.102
X-14.032Y28.342
X-14.032Y25.802
X-14.032Y23.262
X-14.032Y20.722
X-14.032Y18.182
X-14.032Y15.642
X-14.032Y13.102
T2
X-22.86Y2.54
X-22.86Y-16.51
X-16.51Y5.08
X-16.51Y-13.97
X-3.81Y21.59
X-3.81Y2.54
X-3.81Y-16.51
X2.54Y24.13
X2.54Y5.08
X2.54Y-13.97
X15.24Y21.59
X15.24Y2.54
X15.24Y-16.51
X21.59Y24.13
X21.59Y5.08
X21.59Y-13.97
T3
X-24.13Y0.0
X-24.13Y-19.05
X-13.97Y0.0
X-13.97Y-19.05
X-5.08Y19.05
X-5.08Y0.0
X-5.08Y-19.05
X5.08Y19.05
X5.08Y0.0
X5.08Y-19.05
X13.97Y19.05
X13.97Y0.0
X13.97Y-19.05
X24.13Y19.05
X24.13Y0.0
X24.13Y-19.05
T4
X-21.9Y19.4
T5
X-19.05Y0.0
X-19.05Y-19.05
X0.0Y19.05
X0.0Y0.0
X0.0Y-19.05
X19.05Y19.05
X19.05Y0.0
X19.05Y-19.05
T0
M30
