%TF.GenerationSoftware,KiCad,Pcbnew,7.0.3*%
%TF.CreationDate,2023-06-20T13:58:59-06:00*%
%TF.ProjectId,macropad,6d616372-6f70-4616-942e-6b696361645f,rev?*%
%TF.SameCoordinates,Original*%
%TF.FileFunction,Soldermask,Bot*%
%TF.FilePolarity,Negative*%
%FSLAX46Y46*%
G04 Gerber Fmt 4.6, Leading zero omitted, Abs format (unit mm)*
G04 Created by KiCad (PCBNEW 7.0.3) date 2023-06-20 13:58:59*
%MOMM*%
%LPD*%
G01*
G04 APERTURE LIST*
G04 Aperture macros list*
%AMRoundRect*
0 Rectangle with rounded corners*
0 $1 Rounding radius*
0 $2 $3 $4 $5 $6 $7 $8 $9 X,Y pos of 4 corners*
0 Add a 4 corners polygon primitive as box body*
4,1,4,$2,$3,$4,$5,$6,$7,$8,$9,$2,$3,0*
0 Add four circle primitives for the rounded corners*
1,1,$1+$1,$2,$3*
1,1,$1+$1,$4,$5*
1,1,$1+$1,$6,$7*
1,1,$1+$1,$8,$9*
0 Add four rect primitives between the rounded corners*
20,1,$1+$1,$2,$3,$4,$5,0*
20,1,$1+$1,$4,$5,$6,$7,0*
20,1,$1+$1,$6,$7,$8,$9,0*
20,1,$1+$1,$8,$9,$2,$3,0*%
G04 Aperture macros list end*
%ADD10RoundRect,0.225000X-0.225000X-0.375000X0.225000X-0.375000X0.225000X0.375000X-0.225000X0.375000X0*%
%ADD11C,4.000000*%
%ADD12C,1.700000*%
%ADD13C,2.200000*%
%ADD14C,3.200000*%
%ADD15R,1.600000X1.600000*%
%ADD16C,1.600000*%
G04 APERTURE END LIST*
D10*
%TO.C,D2*%
X143986000Y-118050000D03*
X147286000Y-118050000D03*
%TD*%
%TO.C,D3*%
X162598000Y-118352000D03*
X165898000Y-118352000D03*
%TD*%
%TO.C,D1*%
X124844000Y-118086000D03*
X128144000Y-118086000D03*
%TD*%
%TO.C,D5*%
X144091000Y-98746000D03*
X147391000Y-98746000D03*
%TD*%
%TO.C,D6*%
X162909000Y-98969000D03*
X166209000Y-98969000D03*
%TD*%
%TO.C,D8*%
X163198000Y-80331000D03*
X166498000Y-80331000D03*
%TD*%
%TO.C,D4*%
X125006000Y-98619000D03*
X128306000Y-98619000D03*
%TD*%
%TO.C,D7*%
X143986000Y-79871000D03*
X147286000Y-79871000D03*
%TD*%
D11*
%TO.C,SW4*%
X126543000Y-92380000D03*
D12*
X131623000Y-92380000D03*
X121463000Y-92380000D03*
D13*
X129083000Y-87300000D03*
X122733000Y-89840000D03*
%TD*%
D14*
%TO.C, *%
X123693000Y-72980000D03*
%TD*%
D12*
%TO.C,SW1*%
X131623000Y-111430000D03*
D11*
X126543000Y-111430000D03*
D12*
X121463000Y-111430000D03*
D13*
X129083000Y-106350000D03*
X122733000Y-108890000D03*
%TD*%
D12*
%TO.C,SW3*%
X169723000Y-111430000D03*
D11*
X164643000Y-111430000D03*
D12*
X159563000Y-111430000D03*
D13*
X167183000Y-106350000D03*
X160833000Y-108890000D03*
%TD*%
D12*
%TO.C,SW7*%
X150673000Y-73330000D03*
X140513000Y-73330000D03*
D11*
X145593000Y-73330000D03*
D13*
X148133000Y-68250000D03*
X141783000Y-70790000D03*
%TD*%
D11*
%TO.C,SW5*%
X145593000Y-92380000D03*
D12*
X150673000Y-92380000D03*
X140513000Y-92380000D03*
D13*
X148133000Y-87300000D03*
X141783000Y-89840000D03*
%TD*%
D15*
%TO.C,U1*%
X116321000Y-64038000D03*
D16*
X116321000Y-66578000D03*
X116321000Y-69118000D03*
X116321000Y-71658000D03*
X116321000Y-74198000D03*
X116321000Y-76738000D03*
X116321000Y-79278000D03*
X131561000Y-79278000D03*
X131561000Y-76738000D03*
X131561000Y-74198000D03*
X131561000Y-71658000D03*
X131561000Y-69118000D03*
X131561000Y-66578000D03*
X131561000Y-64038000D03*
%TD*%
D12*
%TO.C,SW6*%
X159563000Y-92380000D03*
D11*
X164643000Y-92380000D03*
D12*
X169723000Y-92380000D03*
D13*
X167183000Y-87300000D03*
X160833000Y-89840000D03*
%TD*%
D12*
%TO.C,SW8*%
X159563000Y-73330000D03*
D11*
X164643000Y-73330000D03*
D12*
X169723000Y-73330000D03*
D13*
X167183000Y-68250000D03*
X160833000Y-70790000D03*
%TD*%
D11*
%TO.C,SW2*%
X145593000Y-111430000D03*
D12*
X140513000Y-111430000D03*
X150673000Y-111430000D03*
D13*
X148133000Y-106350000D03*
X141783000Y-108890000D03*
%TD*%
M02*
