%TF.GenerationSoftware,KiCad,Pcbnew,7.0.3*%
%TF.CreationDate,2023-06-20T13:58:59-06:00*%
%TF.ProjectId,macropad,6d616372-6f70-4616-942e-6b696361645f,rev?*%
%TF.SameCoordinates,Original*%
%TF.FileFunction,Soldermask,Top*%
%TF.FilePolarity,Negative*%
%FSLAX46Y46*%
G04 Gerber Fmt 4.6, Leading zero omitted, Abs format (unit mm)*
G04 Created by KiCad (PCBNEW 7.0.3) date 2023-06-20 13:58:59*
%MOMM*%
%LPD*%
G01*
G04 APERTURE LIST*
%ADD10C,4.000000*%
%ADD11C,1.700000*%
%ADD12C,2.200000*%
%ADD13C,3.200000*%
%ADD14R,1.600000X1.600000*%
%ADD15C,1.600000*%
G04 APERTURE END LIST*
D10*
%TO.C,SW4*%
X126543000Y-92380000D03*
D11*
X131623000Y-92380000D03*
X121463000Y-92380000D03*
D12*
X129083000Y-87300000D03*
X122733000Y-89840000D03*
%TD*%
D13*
%TO.C, *%
X123693000Y-72980000D03*
%TD*%
D11*
%TO.C,SW1*%
X131623000Y-111430000D03*
D10*
X126543000Y-111430000D03*
D11*
X121463000Y-111430000D03*
D12*
X129083000Y-106350000D03*
X122733000Y-108890000D03*
%TD*%
D11*
%TO.C,SW3*%
X169723000Y-111430000D03*
D10*
X164643000Y-111430000D03*
D11*
X159563000Y-111430000D03*
D12*
X167183000Y-106350000D03*
X160833000Y-108890000D03*
%TD*%
D11*
%TO.C,SW7*%
X150673000Y-73330000D03*
X140513000Y-73330000D03*
D10*
X145593000Y-73330000D03*
D12*
X148133000Y-68250000D03*
X141783000Y-70790000D03*
%TD*%
D10*
%TO.C,SW5*%
X145593000Y-92380000D03*
D11*
X150673000Y-92380000D03*
X140513000Y-92380000D03*
D12*
X148133000Y-87300000D03*
X141783000Y-89840000D03*
%TD*%
D14*
%TO.C,U1*%
X116321000Y-64038000D03*
D15*
X116321000Y-66578000D03*
X116321000Y-69118000D03*
X116321000Y-71658000D03*
X116321000Y-74198000D03*
X116321000Y-76738000D03*
X116321000Y-79278000D03*
X131561000Y-79278000D03*
X131561000Y-76738000D03*
X131561000Y-74198000D03*
X131561000Y-71658000D03*
X131561000Y-69118000D03*
X131561000Y-66578000D03*
X131561000Y-64038000D03*
%TD*%
D11*
%TO.C,SW6*%
X159563000Y-92380000D03*
D10*
X164643000Y-92380000D03*
D11*
X169723000Y-92380000D03*
D12*
X167183000Y-87300000D03*
X160833000Y-89840000D03*
%TD*%
D11*
%TO.C,SW8*%
X159563000Y-73330000D03*
D10*
X164643000Y-73330000D03*
D11*
X169723000Y-73330000D03*
D12*
X167183000Y-68250000D03*
X160833000Y-70790000D03*
%TD*%
D10*
%TO.C,SW2*%
X145593000Y-111430000D03*
D11*
X140513000Y-111430000D03*
X150673000Y-111430000D03*
D12*
X148133000Y-106350000D03*
X141783000Y-108890000D03*
%TD*%
M02*
