M48
; DRILL file {KiCad 7.0.3} date Tue 20 Jun 2023 01:58:56 PM
; FORMAT={-:-/ absolute / inch / decimal}
; #@! TF.CreationDate,2023-06-20T13:58:56-06:00
; #@! TF.GenerationSoftware,Kicad,Pcbnew,7.0.3
; #@! TF.FileFunction,Plated,1,2,PTH
FMAT,2
INCH
; #@! TA.AperFunction,Plated,PTH,ComponentDrill
T1C0.0394
; #@! TA.AperFunction,Plated,PTH,ComponentDrill
T2C0.0591
%
G90
G05
T1
X4.5796Y-2.5212
X4.5796Y-2.6212
X4.5796Y-2.7212
X4.5796Y-2.8212
X4.5796Y-2.9212
X4.5796Y-3.0212
X4.5796Y-3.1212
X5.1796Y-2.5212
X5.1796Y-2.6212
X5.1796Y-2.7212
X5.1796Y-2.8212
X5.1796Y-2.9212
X5.1796Y-3.0212
X5.1796Y-3.1212
T2
X4.832Y-3.537
X4.832Y-4.287
X5.082Y-3.437
X5.082Y-4.187
X5.582Y-2.787
X5.582Y-3.537
X5.582Y-4.287
X5.832Y-2.687
X5.832Y-3.437
X5.832Y-4.187
X6.332Y-2.787
X6.332Y-3.537
X6.332Y-4.287
X6.582Y-2.687
X6.582Y-3.437
X6.582Y-4.187
T0
M30
