%TF.GenerationSoftware,KiCad,Pcbnew,7.0.3*%
%TF.CreationDate,2023-06-20T13:58:59-06:00*%
%TF.ProjectId,macropad,6d616372-6f70-4616-942e-6b696361645f,rev?*%
%TF.SameCoordinates,Original*%
%TF.FileFunction,Legend,Bot*%
%TF.FilePolarity,Positive*%
%FSLAX46Y46*%
G04 Gerber Fmt 4.6, Leading zero omitted, Abs format (unit mm)*
G04 Created by KiCad (PCBNEW 7.0.3) date 2023-06-20 13:58:59*
%MOMM*%
%LPD*%
G01*
G04 APERTURE LIST*
%ADD10C,0.000000*%
%ADD11C,0.150000*%
%ADD12C,0.400000*%
%ADD13C,0.120000*%
G04 APERTURE END LIST*
D10*
G36*
X125093000Y-62880000D02*
G01*
X125103011Y-62880757D01*
X125112874Y-62882003D01*
X125122575Y-62883726D01*
X125132103Y-62885915D01*
X125141446Y-62888557D01*
X125150592Y-62891640D01*
X125159528Y-62895151D01*
X125168243Y-62899079D01*
X125176723Y-62903411D01*
X125184957Y-62908136D01*
X125192934Y-62913240D01*
X125200639Y-62918712D01*
X125208062Y-62924540D01*
X125215191Y-62930711D01*
X125222012Y-62937213D01*
X125228514Y-62944035D01*
X125234685Y-62951163D01*
X125240513Y-62958587D01*
X125245985Y-62966292D01*
X125251089Y-62974269D01*
X125255813Y-62982503D01*
X125260145Y-62990983D01*
X125264073Y-62999698D01*
X125267584Y-63008634D01*
X125270666Y-63017779D01*
X125273308Y-63027122D01*
X125275497Y-63036650D01*
X125277220Y-63046351D01*
X125278466Y-63056213D01*
X125279223Y-63066223D01*
X125279478Y-63076370D01*
X125279478Y-63898231D01*
X125092756Y-63898231D01*
X125092756Y-63555908D01*
X124449133Y-63555908D01*
X124449133Y-63898231D01*
X124260992Y-63898231D01*
X124260992Y-63369178D01*
X124449133Y-63369178D01*
X125092756Y-63369178D01*
X125092756Y-63076370D01*
X125092744Y-63075817D01*
X125092707Y-63075277D01*
X125092647Y-63074749D01*
X125092563Y-63074234D01*
X125092456Y-63073733D01*
X125092328Y-63073245D01*
X125092177Y-63072771D01*
X125092006Y-63072311D01*
X125091813Y-63071866D01*
X125091601Y-63071436D01*
X125091369Y-63071022D01*
X125091117Y-63070623D01*
X125090847Y-63070240D01*
X125090559Y-63069874D01*
X125090253Y-63069524D01*
X125089930Y-63069191D01*
X125089591Y-63068876D01*
X125089235Y-63068579D01*
X125088864Y-63068300D01*
X125088477Y-63068039D01*
X125088077Y-63067798D01*
X125087662Y-63067575D01*
X125087233Y-63067372D01*
X125086792Y-63067189D01*
X125086338Y-63067026D01*
X125085872Y-63066884D01*
X125085394Y-63066763D01*
X125084906Y-63066663D01*
X125084407Y-63066584D01*
X125083898Y-63066528D01*
X125083380Y-63066493D01*
X125082853Y-63066482D01*
X124459035Y-63066482D01*
X124458509Y-63066494D01*
X124457991Y-63066530D01*
X124457483Y-63066590D01*
X124456985Y-63066672D01*
X124456497Y-63066777D01*
X124456019Y-63066904D01*
X124455554Y-63067053D01*
X124455100Y-63067222D01*
X124454659Y-63067413D01*
X124454230Y-63067623D01*
X124453815Y-63067853D01*
X124453414Y-63068102D01*
X124453028Y-63068370D01*
X124452657Y-63068656D01*
X124452301Y-63068959D01*
X124451961Y-63069280D01*
X124451638Y-63069618D01*
X124451332Y-63069972D01*
X124451044Y-63070342D01*
X124450773Y-63070727D01*
X124450522Y-63071127D01*
X124450289Y-63071541D01*
X124450076Y-63071969D01*
X124449884Y-63072411D01*
X124449712Y-63072865D01*
X124449561Y-63073332D01*
X124449432Y-63073811D01*
X124449326Y-63074302D01*
X124449242Y-63074804D01*
X124449182Y-63075316D01*
X124449145Y-63075838D01*
X124449133Y-63076370D01*
X124449133Y-63369178D01*
X124260992Y-63369178D01*
X124260992Y-63076370D01*
X124261251Y-63066223D01*
X124262019Y-63056213D01*
X124263284Y-63046351D01*
X124265034Y-63036650D01*
X124267254Y-63027122D01*
X124269934Y-63017779D01*
X124273059Y-63008634D01*
X124276618Y-62999698D01*
X124280598Y-62990983D01*
X124284985Y-62982503D01*
X124289768Y-62974269D01*
X124294933Y-62966292D01*
X124300468Y-62958587D01*
X124306360Y-62951163D01*
X124312597Y-62944035D01*
X124319166Y-62937213D01*
X124326053Y-62930711D01*
X124333247Y-62924540D01*
X124340735Y-62918712D01*
X124348504Y-62913240D01*
X124356541Y-62908136D01*
X124364834Y-62903411D01*
X124373369Y-62899079D01*
X124382135Y-62895151D01*
X124391119Y-62891640D01*
X124400307Y-62888557D01*
X124409687Y-62885915D01*
X124419247Y-62883726D01*
X124428974Y-62882003D01*
X124438855Y-62880757D01*
X124448877Y-62880000D01*
X124459028Y-62879745D01*
X125082853Y-62879745D01*
X125093000Y-62880000D01*
G37*
G36*
X124260992Y-63898231D02*
G01*
X124260992Y-64916709D01*
X123440549Y-64916709D01*
X123430399Y-64916454D01*
X123420376Y-64915698D01*
X123410496Y-64914452D01*
X123400769Y-64912728D01*
X123391209Y-64910540D01*
X123381829Y-64907898D01*
X123372640Y-64904815D01*
X123363657Y-64901304D01*
X123354891Y-64897377D01*
X123346355Y-64893045D01*
X123338063Y-64888321D01*
X123330026Y-64883217D01*
X123322257Y-64877745D01*
X123314769Y-64871917D01*
X123307575Y-64865746D01*
X123300687Y-64859244D01*
X123294119Y-64852422D01*
X123287882Y-64845294D01*
X123281990Y-64837871D01*
X123276455Y-64830165D01*
X123271289Y-64822189D01*
X123266507Y-64813955D01*
X123262119Y-64805474D01*
X123258140Y-64796760D01*
X123254581Y-64787824D01*
X123251456Y-64778678D01*
X123248776Y-64769335D01*
X123246555Y-64759807D01*
X123244806Y-64750105D01*
X123243541Y-64740243D01*
X123242772Y-64730232D01*
X123242513Y-64720085D01*
X123430654Y-64720085D01*
X123430666Y-64720585D01*
X123430703Y-64721080D01*
X123430763Y-64721568D01*
X123430847Y-64722049D01*
X123430953Y-64722523D01*
X123431082Y-64722989D01*
X123431232Y-64723445D01*
X123431403Y-64723892D01*
X123431595Y-64724329D01*
X123431807Y-64724755D01*
X123432039Y-64725169D01*
X123432290Y-64725570D01*
X123432560Y-64725959D01*
X123432848Y-64726334D01*
X123433153Y-64726694D01*
X123433476Y-64727040D01*
X123433815Y-64727370D01*
X123434171Y-64727683D01*
X123434541Y-64727979D01*
X123434927Y-64728258D01*
X123435328Y-64728518D01*
X123435743Y-64728759D01*
X123436171Y-64728981D01*
X123436612Y-64729182D01*
X123437066Y-64729361D01*
X123437531Y-64729519D01*
X123438009Y-64729655D01*
X123438497Y-64729767D01*
X123438995Y-64729856D01*
X123439504Y-64729920D01*
X123440022Y-64729959D01*
X123440549Y-64729972D01*
X124064367Y-64729972D01*
X124064893Y-64729960D01*
X124065411Y-64729924D01*
X124065919Y-64729864D01*
X124066418Y-64729782D01*
X124066906Y-64729677D01*
X124067383Y-64729550D01*
X124067849Y-64729401D01*
X124068302Y-64729231D01*
X124068744Y-64729041D01*
X124069172Y-64728830D01*
X124069587Y-64728600D01*
X124069988Y-64728351D01*
X124070374Y-64728083D01*
X124070746Y-64727796D01*
X124071102Y-64727493D01*
X124071441Y-64727171D01*
X124071764Y-64726834D01*
X124072070Y-64726479D01*
X124072359Y-64726110D01*
X124072629Y-64725724D01*
X124072881Y-64725324D01*
X124073113Y-64724910D01*
X124073326Y-64724482D01*
X124073519Y-64724040D01*
X124073690Y-64723586D01*
X124073841Y-64723119D01*
X124073970Y-64722640D01*
X124074077Y-64722150D01*
X124074160Y-64721649D01*
X124074221Y-64721137D01*
X124074258Y-64720616D01*
X124074270Y-64720085D01*
X124074270Y-64094848D01*
X124074258Y-64094296D01*
X124074221Y-64093756D01*
X124074161Y-64093229D01*
X124074077Y-64092715D01*
X124073971Y-64092214D01*
X124073842Y-64091727D01*
X124073692Y-64091253D01*
X124073521Y-64090794D01*
X124073329Y-64090349D01*
X124073116Y-64089920D01*
X124072884Y-64089505D01*
X124072633Y-64089107D01*
X124072363Y-64088724D01*
X124072075Y-64088358D01*
X124071770Y-64088009D01*
X124071447Y-64087677D01*
X124071108Y-64087362D01*
X124070752Y-64087065D01*
X124070381Y-64086786D01*
X124069995Y-64086525D01*
X124069594Y-64086283D01*
X124069179Y-64086061D01*
X124068750Y-64085858D01*
X124068309Y-64085675D01*
X124067855Y-64085512D01*
X124067389Y-64085370D01*
X124066911Y-64085249D01*
X124066422Y-64085149D01*
X124065923Y-64085070D01*
X124065414Y-64085014D01*
X124064895Y-64084980D01*
X124064367Y-64084968D01*
X123440549Y-64084968D01*
X123440024Y-64084980D01*
X123439507Y-64085016D01*
X123438999Y-64085076D01*
X123438501Y-64085158D01*
X123438014Y-64085263D01*
X123437537Y-64085390D01*
X123437072Y-64085539D01*
X123436618Y-64085708D01*
X123436177Y-64085898D01*
X123435749Y-64086109D01*
X123435335Y-64086338D01*
X123434934Y-64086587D01*
X123434548Y-64086855D01*
X123434177Y-64087141D01*
X123433821Y-64087444D01*
X123433482Y-64087765D01*
X123433159Y-64088103D01*
X123432853Y-64088456D01*
X123432565Y-64088826D01*
X123432294Y-64089211D01*
X123432043Y-64089610D01*
X123431810Y-64090024D01*
X123431598Y-64090452D01*
X123431405Y-64090894D01*
X123431233Y-64091348D01*
X123431083Y-64091814D01*
X123430954Y-64092293D01*
X123430847Y-64092783D01*
X123430764Y-64093284D01*
X123430703Y-64093795D01*
X123430666Y-64094317D01*
X123430654Y-64094848D01*
X123430654Y-64720085D01*
X123242513Y-64720085D01*
X123242513Y-64094848D01*
X123242772Y-64084701D01*
X123243541Y-64074690D01*
X123244806Y-64064827D01*
X123246555Y-64055126D01*
X123248776Y-64045598D01*
X123251455Y-64036255D01*
X123254580Y-64027109D01*
X123258139Y-64018173D01*
X123262118Y-64009458D01*
X123266505Y-64000978D01*
X123271288Y-63992744D01*
X123276453Y-63984767D01*
X123281988Y-63977062D01*
X123287880Y-63969639D01*
X123294116Y-63962510D01*
X123300685Y-63955689D01*
X123307572Y-63949187D01*
X123314766Y-63943016D01*
X123322254Y-63937188D01*
X123330022Y-63931716D01*
X123338059Y-63926612D01*
X123346352Y-63921888D01*
X123354888Y-63917556D01*
X123363654Y-63913628D01*
X123372637Y-63910117D01*
X123381826Y-63907035D01*
X123391206Y-63904393D01*
X123400767Y-63902204D01*
X123410494Y-63900481D01*
X123420375Y-63899235D01*
X123430398Y-63898478D01*
X123440549Y-63898223D01*
X124260992Y-63898231D01*
G37*
G36*
X122467611Y-65603378D02*
G01*
X123094259Y-64856491D01*
X123297948Y-64856491D01*
X123297948Y-65874969D01*
X123111234Y-65874969D01*
X123111234Y-65128082D01*
X122483167Y-65874969D01*
X122279470Y-65874969D01*
X122279470Y-64856491D01*
X122467611Y-64856491D01*
X122467611Y-65603378D01*
G37*
D11*
X117047819Y-82907254D02*
X118047819Y-83145349D01*
X118047819Y-83145349D02*
X117333533Y-83335825D01*
X117333533Y-83335825D02*
X118047819Y-83526301D01*
X118047819Y-83526301D02*
X117047819Y-83764397D01*
X118047819Y-84145349D02*
X117047819Y-84145349D01*
X118047819Y-84573920D02*
X117524009Y-84573920D01*
X117524009Y-84573920D02*
X117428771Y-84526301D01*
X117428771Y-84526301D02*
X117381152Y-84431063D01*
X117381152Y-84431063D02*
X117381152Y-84288206D01*
X117381152Y-84288206D02*
X117428771Y-84192968D01*
X117428771Y-84192968D02*
X117476390Y-84145349D01*
X118047819Y-85050111D02*
X117381152Y-85050111D01*
X117047819Y-85050111D02*
X117095438Y-85002492D01*
X117095438Y-85002492D02*
X117143057Y-85050111D01*
X117143057Y-85050111D02*
X117095438Y-85097730D01*
X117095438Y-85097730D02*
X117047819Y-85050111D01*
X117047819Y-85050111D02*
X117143057Y-85050111D01*
X117381152Y-85383444D02*
X117381152Y-85764396D01*
X117047819Y-85526301D02*
X117904961Y-85526301D01*
X117904961Y-85526301D02*
X118000200Y-85573920D01*
X118000200Y-85573920D02*
X118047819Y-85669158D01*
X118047819Y-85669158D02*
X118047819Y-85764396D01*
X118000200Y-86478682D02*
X118047819Y-86383444D01*
X118047819Y-86383444D02*
X118047819Y-86192968D01*
X118047819Y-86192968D02*
X118000200Y-86097730D01*
X118000200Y-86097730D02*
X117904961Y-86050111D01*
X117904961Y-86050111D02*
X117524009Y-86050111D01*
X117524009Y-86050111D02*
X117428771Y-86097730D01*
X117428771Y-86097730D02*
X117381152Y-86192968D01*
X117381152Y-86192968D02*
X117381152Y-86383444D01*
X117381152Y-86383444D02*
X117428771Y-86478682D01*
X117428771Y-86478682D02*
X117524009Y-86526301D01*
X117524009Y-86526301D02*
X117619247Y-86526301D01*
X117619247Y-86526301D02*
X117714485Y-86050111D01*
X118047819Y-87716778D02*
X117381152Y-87716778D01*
X117476390Y-87716778D02*
X117428771Y-87764397D01*
X117428771Y-87764397D02*
X117381152Y-87859635D01*
X117381152Y-87859635D02*
X117381152Y-88002492D01*
X117381152Y-88002492D02*
X117428771Y-88097730D01*
X117428771Y-88097730D02*
X117524009Y-88145349D01*
X117524009Y-88145349D02*
X118047819Y-88145349D01*
X117524009Y-88145349D02*
X117428771Y-88192968D01*
X117428771Y-88192968D02*
X117381152Y-88288206D01*
X117381152Y-88288206D02*
X117381152Y-88431063D01*
X117381152Y-88431063D02*
X117428771Y-88526302D01*
X117428771Y-88526302D02*
X117524009Y-88573921D01*
X117524009Y-88573921D02*
X118047819Y-88573921D01*
X118047819Y-89478682D02*
X117524009Y-89478682D01*
X117524009Y-89478682D02*
X117428771Y-89431063D01*
X117428771Y-89431063D02*
X117381152Y-89335825D01*
X117381152Y-89335825D02*
X117381152Y-89145349D01*
X117381152Y-89145349D02*
X117428771Y-89050111D01*
X118000200Y-89478682D02*
X118047819Y-89383444D01*
X118047819Y-89383444D02*
X118047819Y-89145349D01*
X118047819Y-89145349D02*
X118000200Y-89050111D01*
X118000200Y-89050111D02*
X117904961Y-89002492D01*
X117904961Y-89002492D02*
X117809723Y-89002492D01*
X117809723Y-89002492D02*
X117714485Y-89050111D01*
X117714485Y-89050111D02*
X117666866Y-89145349D01*
X117666866Y-89145349D02*
X117666866Y-89383444D01*
X117666866Y-89383444D02*
X117619247Y-89478682D01*
X118047819Y-89954873D02*
X117381152Y-89954873D01*
X117571628Y-89954873D02*
X117476390Y-90002492D01*
X117476390Y-90002492D02*
X117428771Y-90050111D01*
X117428771Y-90050111D02*
X117381152Y-90145349D01*
X117381152Y-90145349D02*
X117381152Y-90240587D01*
X118047819Y-90573921D02*
X117047819Y-90573921D01*
X117666866Y-90669159D02*
X118047819Y-90954873D01*
X117381152Y-90954873D02*
X117762104Y-90573921D01*
X118000200Y-91335826D02*
X118047819Y-91431064D01*
X118047819Y-91431064D02*
X118047819Y-91621540D01*
X118047819Y-91621540D02*
X118000200Y-91716778D01*
X118000200Y-91716778D02*
X117904961Y-91764397D01*
X117904961Y-91764397D02*
X117857342Y-91764397D01*
X117857342Y-91764397D02*
X117762104Y-91716778D01*
X117762104Y-91716778D02*
X117714485Y-91621540D01*
X117714485Y-91621540D02*
X117714485Y-91478683D01*
X117714485Y-91478683D02*
X117666866Y-91383445D01*
X117666866Y-91383445D02*
X117571628Y-91335826D01*
X117571628Y-91335826D02*
X117524009Y-91335826D01*
X117524009Y-91335826D02*
X117428771Y-91383445D01*
X117428771Y-91383445D02*
X117381152Y-91478683D01*
X117381152Y-91478683D02*
X117381152Y-91621540D01*
X117381152Y-91621540D02*
X117428771Y-91716778D01*
X118047819Y-93097731D02*
X118000200Y-93002493D01*
X118000200Y-93002493D02*
X117952580Y-92954874D01*
X117952580Y-92954874D02*
X117857342Y-92907255D01*
X117857342Y-92907255D02*
X117571628Y-92907255D01*
X117571628Y-92907255D02*
X117476390Y-92954874D01*
X117476390Y-92954874D02*
X117428771Y-93002493D01*
X117428771Y-93002493D02*
X117381152Y-93097731D01*
X117381152Y-93097731D02*
X117381152Y-93240588D01*
X117381152Y-93240588D02*
X117428771Y-93335826D01*
X117428771Y-93335826D02*
X117476390Y-93383445D01*
X117476390Y-93383445D02*
X117571628Y-93431064D01*
X117571628Y-93431064D02*
X117857342Y-93431064D01*
X117857342Y-93431064D02*
X117952580Y-93383445D01*
X117952580Y-93383445D02*
X118000200Y-93335826D01*
X118000200Y-93335826D02*
X118047819Y-93240588D01*
X118047819Y-93240588D02*
X118047819Y-93097731D01*
X117381152Y-93859636D02*
X118047819Y-93859636D01*
X117476390Y-93859636D02*
X117428771Y-93907255D01*
X117428771Y-93907255D02*
X117381152Y-94002493D01*
X117381152Y-94002493D02*
X117381152Y-94145350D01*
X117381152Y-94145350D02*
X117428771Y-94240588D01*
X117428771Y-94240588D02*
X117524009Y-94288207D01*
X117524009Y-94288207D02*
X118047819Y-94288207D01*
X118047819Y-95954874D02*
X117047819Y-95954874D01*
X118000200Y-95954874D02*
X118047819Y-95859636D01*
X118047819Y-95859636D02*
X118047819Y-95669160D01*
X118047819Y-95669160D02*
X118000200Y-95573922D01*
X118000200Y-95573922D02*
X117952580Y-95526303D01*
X117952580Y-95526303D02*
X117857342Y-95478684D01*
X117857342Y-95478684D02*
X117571628Y-95478684D01*
X117571628Y-95478684D02*
X117476390Y-95526303D01*
X117476390Y-95526303D02*
X117428771Y-95573922D01*
X117428771Y-95573922D02*
X117381152Y-95669160D01*
X117381152Y-95669160D02*
X117381152Y-95859636D01*
X117381152Y-95859636D02*
X117428771Y-95954874D01*
X118047819Y-96431065D02*
X117381152Y-96431065D01*
X117047819Y-96431065D02*
X117095438Y-96383446D01*
X117095438Y-96383446D02*
X117143057Y-96431065D01*
X117143057Y-96431065D02*
X117095438Y-96478684D01*
X117095438Y-96478684D02*
X117047819Y-96431065D01*
X117047819Y-96431065D02*
X117143057Y-96431065D01*
X118047819Y-97050112D02*
X118000200Y-96954874D01*
X118000200Y-96954874D02*
X117952580Y-96907255D01*
X117952580Y-96907255D02*
X117857342Y-96859636D01*
X117857342Y-96859636D02*
X117571628Y-96859636D01*
X117571628Y-96859636D02*
X117476390Y-96907255D01*
X117476390Y-96907255D02*
X117428771Y-96954874D01*
X117428771Y-96954874D02*
X117381152Y-97050112D01*
X117381152Y-97050112D02*
X117381152Y-97192969D01*
X117381152Y-97192969D02*
X117428771Y-97288207D01*
X117428771Y-97288207D02*
X117476390Y-97335826D01*
X117476390Y-97335826D02*
X117571628Y-97383445D01*
X117571628Y-97383445D02*
X117857342Y-97383445D01*
X117857342Y-97383445D02*
X117952580Y-97335826D01*
X117952580Y-97335826D02*
X118000200Y-97288207D01*
X118000200Y-97288207D02*
X118047819Y-97192969D01*
X118047819Y-97192969D02*
X118047819Y-97050112D01*
X118047819Y-98240588D02*
X117047819Y-98240588D01*
X118000200Y-98240588D02*
X118047819Y-98145350D01*
X118047819Y-98145350D02*
X118047819Y-97954874D01*
X118047819Y-97954874D02*
X118000200Y-97859636D01*
X118000200Y-97859636D02*
X117952580Y-97812017D01*
X117952580Y-97812017D02*
X117857342Y-97764398D01*
X117857342Y-97764398D02*
X117571628Y-97764398D01*
X117571628Y-97764398D02*
X117476390Y-97812017D01*
X117476390Y-97812017D02*
X117428771Y-97859636D01*
X117428771Y-97859636D02*
X117381152Y-97954874D01*
X117381152Y-97954874D02*
X117381152Y-98145350D01*
X117381152Y-98145350D02*
X117428771Y-98240588D01*
X118000200Y-99097731D02*
X118047819Y-99002493D01*
X118047819Y-99002493D02*
X118047819Y-98812017D01*
X118047819Y-98812017D02*
X118000200Y-98716779D01*
X118000200Y-98716779D02*
X117904961Y-98669160D01*
X117904961Y-98669160D02*
X117524009Y-98669160D01*
X117524009Y-98669160D02*
X117428771Y-98716779D01*
X117428771Y-98716779D02*
X117381152Y-98812017D01*
X117381152Y-98812017D02*
X117381152Y-99002493D01*
X117381152Y-99002493D02*
X117428771Y-99097731D01*
X117428771Y-99097731D02*
X117524009Y-99145350D01*
X117524009Y-99145350D02*
X117619247Y-99145350D01*
X117619247Y-99145350D02*
X117714485Y-98669160D01*
X118000200Y-99526303D02*
X118047819Y-99621541D01*
X118047819Y-99621541D02*
X118047819Y-99812017D01*
X118047819Y-99812017D02*
X118000200Y-99907255D01*
X118000200Y-99907255D02*
X117904961Y-99954874D01*
X117904961Y-99954874D02*
X117857342Y-99954874D01*
X117857342Y-99954874D02*
X117762104Y-99907255D01*
X117762104Y-99907255D02*
X117714485Y-99812017D01*
X117714485Y-99812017D02*
X117714485Y-99669160D01*
X117714485Y-99669160D02*
X117666866Y-99573922D01*
X117666866Y-99573922D02*
X117571628Y-99526303D01*
X117571628Y-99526303D02*
X117524009Y-99526303D01*
X117524009Y-99526303D02*
X117428771Y-99573922D01*
X117428771Y-99573922D02*
X117381152Y-99669160D01*
X117381152Y-99669160D02*
X117381152Y-99812017D01*
X117381152Y-99812017D02*
X117428771Y-99907255D01*
X117381152Y-101002494D02*
X117381152Y-101383446D01*
X117047819Y-101145351D02*
X117904961Y-101145351D01*
X117904961Y-101145351D02*
X118000200Y-101192970D01*
X118000200Y-101192970D02*
X118047819Y-101288208D01*
X118047819Y-101288208D02*
X118047819Y-101383446D01*
X118047819Y-101859637D02*
X118000200Y-101764399D01*
X118000200Y-101764399D02*
X117952580Y-101716780D01*
X117952580Y-101716780D02*
X117857342Y-101669161D01*
X117857342Y-101669161D02*
X117571628Y-101669161D01*
X117571628Y-101669161D02*
X117476390Y-101716780D01*
X117476390Y-101716780D02*
X117428771Y-101764399D01*
X117428771Y-101764399D02*
X117381152Y-101859637D01*
X117381152Y-101859637D02*
X117381152Y-102002494D01*
X117381152Y-102002494D02*
X117428771Y-102097732D01*
X117428771Y-102097732D02*
X117476390Y-102145351D01*
X117476390Y-102145351D02*
X117571628Y-102192970D01*
X117571628Y-102192970D02*
X117857342Y-102192970D01*
X117857342Y-102192970D02*
X117952580Y-102145351D01*
X117952580Y-102145351D02*
X118000200Y-102097732D01*
X118000200Y-102097732D02*
X118047819Y-102002494D01*
X118047819Y-102002494D02*
X118047819Y-101859637D01*
X117381152Y-103240590D02*
X117381152Y-103621542D01*
X117047819Y-103383447D02*
X117904961Y-103383447D01*
X117904961Y-103383447D02*
X118000200Y-103431066D01*
X118000200Y-103431066D02*
X118047819Y-103526304D01*
X118047819Y-103526304D02*
X118047819Y-103621542D01*
X118047819Y-103954876D02*
X117047819Y-103954876D01*
X118047819Y-104383447D02*
X117524009Y-104383447D01*
X117524009Y-104383447D02*
X117428771Y-104335828D01*
X117428771Y-104335828D02*
X117381152Y-104240590D01*
X117381152Y-104240590D02*
X117381152Y-104097733D01*
X117381152Y-104097733D02*
X117428771Y-104002495D01*
X117428771Y-104002495D02*
X117476390Y-103954876D01*
X118047819Y-104859638D02*
X117381152Y-104859638D01*
X117047819Y-104859638D02*
X117095438Y-104812019D01*
X117095438Y-104812019D02*
X117143057Y-104859638D01*
X117143057Y-104859638D02*
X117095438Y-104907257D01*
X117095438Y-104907257D02*
X117047819Y-104859638D01*
X117047819Y-104859638D02*
X117143057Y-104859638D01*
X118000200Y-105288209D02*
X118047819Y-105383447D01*
X118047819Y-105383447D02*
X118047819Y-105573923D01*
X118047819Y-105573923D02*
X118000200Y-105669161D01*
X118000200Y-105669161D02*
X117904961Y-105716780D01*
X117904961Y-105716780D02*
X117857342Y-105716780D01*
X117857342Y-105716780D02*
X117762104Y-105669161D01*
X117762104Y-105669161D02*
X117714485Y-105573923D01*
X117714485Y-105573923D02*
X117714485Y-105431066D01*
X117714485Y-105431066D02*
X117666866Y-105335828D01*
X117666866Y-105335828D02*
X117571628Y-105288209D01*
X117571628Y-105288209D02*
X117524009Y-105288209D01*
X117524009Y-105288209D02*
X117428771Y-105335828D01*
X117428771Y-105335828D02*
X117381152Y-105431066D01*
X117381152Y-105431066D02*
X117381152Y-105573923D01*
X117381152Y-105573923D02*
X117428771Y-105669161D01*
X118000200Y-106859638D02*
X118047819Y-106954876D01*
X118047819Y-106954876D02*
X118047819Y-107145352D01*
X118047819Y-107145352D02*
X118000200Y-107240590D01*
X118000200Y-107240590D02*
X117904961Y-107288209D01*
X117904961Y-107288209D02*
X117857342Y-107288209D01*
X117857342Y-107288209D02*
X117762104Y-107240590D01*
X117762104Y-107240590D02*
X117714485Y-107145352D01*
X117714485Y-107145352D02*
X117714485Y-107002495D01*
X117714485Y-107002495D02*
X117666866Y-106907257D01*
X117666866Y-106907257D02*
X117571628Y-106859638D01*
X117571628Y-106859638D02*
X117524009Y-106859638D01*
X117524009Y-106859638D02*
X117428771Y-106907257D01*
X117428771Y-106907257D02*
X117381152Y-107002495D01*
X117381152Y-107002495D02*
X117381152Y-107145352D01*
X117381152Y-107145352D02*
X117428771Y-107240590D01*
X118047819Y-107716781D02*
X117381152Y-107716781D01*
X117047819Y-107716781D02*
X117095438Y-107669162D01*
X117095438Y-107669162D02*
X117143057Y-107716781D01*
X117143057Y-107716781D02*
X117095438Y-107764400D01*
X117095438Y-107764400D02*
X117047819Y-107716781D01*
X117047819Y-107716781D02*
X117143057Y-107716781D01*
X118047819Y-108621542D02*
X117047819Y-108621542D01*
X118000200Y-108621542D02*
X118047819Y-108526304D01*
X118047819Y-108526304D02*
X118047819Y-108335828D01*
X118047819Y-108335828D02*
X118000200Y-108240590D01*
X118000200Y-108240590D02*
X117952580Y-108192971D01*
X117952580Y-108192971D02*
X117857342Y-108145352D01*
X117857342Y-108145352D02*
X117571628Y-108145352D01*
X117571628Y-108145352D02*
X117476390Y-108192971D01*
X117476390Y-108192971D02*
X117428771Y-108240590D01*
X117428771Y-108240590D02*
X117381152Y-108335828D01*
X117381152Y-108335828D02*
X117381152Y-108526304D01*
X117381152Y-108526304D02*
X117428771Y-108621542D01*
X118000200Y-109478685D02*
X118047819Y-109383447D01*
X118047819Y-109383447D02*
X118047819Y-109192971D01*
X118047819Y-109192971D02*
X118000200Y-109097733D01*
X118000200Y-109097733D02*
X117904961Y-109050114D01*
X117904961Y-109050114D02*
X117524009Y-109050114D01*
X117524009Y-109050114D02*
X117428771Y-109097733D01*
X117428771Y-109097733D02*
X117381152Y-109192971D01*
X117381152Y-109192971D02*
X117381152Y-109383447D01*
X117381152Y-109383447D02*
X117428771Y-109478685D01*
X117428771Y-109478685D02*
X117524009Y-109526304D01*
X117524009Y-109526304D02*
X117619247Y-109526304D01*
X117619247Y-109526304D02*
X117714485Y-109050114D01*
X117952580Y-109954876D02*
X118000200Y-110002495D01*
X118000200Y-110002495D02*
X118047819Y-109954876D01*
X118047819Y-109954876D02*
X118000200Y-109907257D01*
X118000200Y-109907257D02*
X117952580Y-109954876D01*
X117952580Y-109954876D02*
X118047819Y-109954876D01*
X117666866Y-109954876D02*
X117095438Y-109907257D01*
X117095438Y-109907257D02*
X117047819Y-109954876D01*
X117047819Y-109954876D02*
X117095438Y-110002495D01*
X117095438Y-110002495D02*
X117666866Y-109954876D01*
X117666866Y-109954876D02*
X117047819Y-109954876D01*
X173047819Y-74050110D02*
X172047819Y-74050110D01*
X172047819Y-74050110D02*
X172762104Y-74383443D01*
X172762104Y-74383443D02*
X172047819Y-74716776D01*
X172047819Y-74716776D02*
X173047819Y-74716776D01*
X173047819Y-75621538D02*
X172524009Y-75621538D01*
X172524009Y-75621538D02*
X172428771Y-75573919D01*
X172428771Y-75573919D02*
X172381152Y-75478681D01*
X172381152Y-75478681D02*
X172381152Y-75288205D01*
X172381152Y-75288205D02*
X172428771Y-75192967D01*
X173000200Y-75621538D02*
X173047819Y-75526300D01*
X173047819Y-75526300D02*
X173047819Y-75288205D01*
X173047819Y-75288205D02*
X173000200Y-75192967D01*
X173000200Y-75192967D02*
X172904961Y-75145348D01*
X172904961Y-75145348D02*
X172809723Y-75145348D01*
X172809723Y-75145348D02*
X172714485Y-75192967D01*
X172714485Y-75192967D02*
X172666866Y-75288205D01*
X172666866Y-75288205D02*
X172666866Y-75526300D01*
X172666866Y-75526300D02*
X172619247Y-75621538D01*
X173000200Y-76526300D02*
X173047819Y-76431062D01*
X173047819Y-76431062D02*
X173047819Y-76240586D01*
X173047819Y-76240586D02*
X173000200Y-76145348D01*
X173000200Y-76145348D02*
X172952580Y-76097729D01*
X172952580Y-76097729D02*
X172857342Y-76050110D01*
X172857342Y-76050110D02*
X172571628Y-76050110D01*
X172571628Y-76050110D02*
X172476390Y-76097729D01*
X172476390Y-76097729D02*
X172428771Y-76145348D01*
X172428771Y-76145348D02*
X172381152Y-76240586D01*
X172381152Y-76240586D02*
X172381152Y-76431062D01*
X172381152Y-76431062D02*
X172428771Y-76526300D01*
X173047819Y-76954872D02*
X172381152Y-76954872D01*
X172571628Y-76954872D02*
X172476390Y-77002491D01*
X172476390Y-77002491D02*
X172428771Y-77050110D01*
X172428771Y-77050110D02*
X172381152Y-77145348D01*
X172381152Y-77145348D02*
X172381152Y-77240586D01*
X173047819Y-77716777D02*
X173000200Y-77621539D01*
X173000200Y-77621539D02*
X172952580Y-77573920D01*
X172952580Y-77573920D02*
X172857342Y-77526301D01*
X172857342Y-77526301D02*
X172571628Y-77526301D01*
X172571628Y-77526301D02*
X172476390Y-77573920D01*
X172476390Y-77573920D02*
X172428771Y-77621539D01*
X172428771Y-77621539D02*
X172381152Y-77716777D01*
X172381152Y-77716777D02*
X172381152Y-77859634D01*
X172381152Y-77859634D02*
X172428771Y-77954872D01*
X172428771Y-77954872D02*
X172476390Y-78002491D01*
X172476390Y-78002491D02*
X172571628Y-78050110D01*
X172571628Y-78050110D02*
X172857342Y-78050110D01*
X172857342Y-78050110D02*
X172952580Y-78002491D01*
X172952580Y-78002491D02*
X173000200Y-77954872D01*
X173000200Y-77954872D02*
X173047819Y-77859634D01*
X173047819Y-77859634D02*
X173047819Y-77716777D01*
X172381152Y-78478682D02*
X173381152Y-78478682D01*
X172428771Y-78478682D02*
X172381152Y-78573920D01*
X172381152Y-78573920D02*
X172381152Y-78764396D01*
X172381152Y-78764396D02*
X172428771Y-78859634D01*
X172428771Y-78859634D02*
X172476390Y-78907253D01*
X172476390Y-78907253D02*
X172571628Y-78954872D01*
X172571628Y-78954872D02*
X172857342Y-78954872D01*
X172857342Y-78954872D02*
X172952580Y-78907253D01*
X172952580Y-78907253D02*
X173000200Y-78859634D01*
X173000200Y-78859634D02*
X173047819Y-78764396D01*
X173047819Y-78764396D02*
X173047819Y-78573920D01*
X173047819Y-78573920D02*
X173000200Y-78478682D01*
X173047819Y-79812015D02*
X172524009Y-79812015D01*
X172524009Y-79812015D02*
X172428771Y-79764396D01*
X172428771Y-79764396D02*
X172381152Y-79669158D01*
X172381152Y-79669158D02*
X172381152Y-79478682D01*
X172381152Y-79478682D02*
X172428771Y-79383444D01*
X173000200Y-79812015D02*
X173047819Y-79716777D01*
X173047819Y-79716777D02*
X173047819Y-79478682D01*
X173047819Y-79478682D02*
X173000200Y-79383444D01*
X173000200Y-79383444D02*
X172904961Y-79335825D01*
X172904961Y-79335825D02*
X172809723Y-79335825D01*
X172809723Y-79335825D02*
X172714485Y-79383444D01*
X172714485Y-79383444D02*
X172666866Y-79478682D01*
X172666866Y-79478682D02*
X172666866Y-79716777D01*
X172666866Y-79716777D02*
X172619247Y-79812015D01*
X173047819Y-80716777D02*
X172047819Y-80716777D01*
X173000200Y-80716777D02*
X173047819Y-80621539D01*
X173047819Y-80621539D02*
X173047819Y-80431063D01*
X173047819Y-80431063D02*
X173000200Y-80335825D01*
X173000200Y-80335825D02*
X172952580Y-80288206D01*
X172952580Y-80288206D02*
X172857342Y-80240587D01*
X172857342Y-80240587D02*
X172571628Y-80240587D01*
X172571628Y-80240587D02*
X172476390Y-80288206D01*
X172476390Y-80288206D02*
X172428771Y-80335825D01*
X172428771Y-80335825D02*
X172381152Y-80431063D01*
X172381152Y-80431063D02*
X172381152Y-80621539D01*
X172381152Y-80621539D02*
X172428771Y-80716777D01*
X173047819Y-81954873D02*
X172047819Y-81954873D01*
X172047819Y-81954873D02*
X172047819Y-82335825D01*
X172047819Y-82335825D02*
X172095438Y-82431063D01*
X172095438Y-82431063D02*
X172143057Y-82478682D01*
X172143057Y-82478682D02*
X172238295Y-82526301D01*
X172238295Y-82526301D02*
X172381152Y-82526301D01*
X172381152Y-82526301D02*
X172476390Y-82478682D01*
X172476390Y-82478682D02*
X172524009Y-82431063D01*
X172524009Y-82431063D02*
X172571628Y-82335825D01*
X172571628Y-82335825D02*
X172571628Y-81954873D01*
X173047819Y-82954873D02*
X172381152Y-82954873D01*
X172571628Y-82954873D02*
X172476390Y-83002492D01*
X172476390Y-83002492D02*
X172428771Y-83050111D01*
X172428771Y-83050111D02*
X172381152Y-83145349D01*
X172381152Y-83145349D02*
X172381152Y-83240587D01*
X173047819Y-83716778D02*
X173000200Y-83621540D01*
X173000200Y-83621540D02*
X172952580Y-83573921D01*
X172952580Y-83573921D02*
X172857342Y-83526302D01*
X172857342Y-83526302D02*
X172571628Y-83526302D01*
X172571628Y-83526302D02*
X172476390Y-83573921D01*
X172476390Y-83573921D02*
X172428771Y-83621540D01*
X172428771Y-83621540D02*
X172381152Y-83716778D01*
X172381152Y-83716778D02*
X172381152Y-83859635D01*
X172381152Y-83859635D02*
X172428771Y-83954873D01*
X172428771Y-83954873D02*
X172476390Y-84002492D01*
X172476390Y-84002492D02*
X172571628Y-84050111D01*
X172571628Y-84050111D02*
X172857342Y-84050111D01*
X172857342Y-84050111D02*
X172952580Y-84002492D01*
X172952580Y-84002492D02*
X173000200Y-83954873D01*
X173000200Y-83954873D02*
X173047819Y-83859635D01*
X173047819Y-83859635D02*
X173047819Y-83716778D01*
X172381152Y-84478683D02*
X173238295Y-84478683D01*
X173238295Y-84478683D02*
X173333533Y-84431064D01*
X173333533Y-84431064D02*
X173381152Y-84335826D01*
X173381152Y-84335826D02*
X173381152Y-84288207D01*
X172047819Y-84478683D02*
X172095438Y-84431064D01*
X172095438Y-84431064D02*
X172143057Y-84478683D01*
X172143057Y-84478683D02*
X172095438Y-84526302D01*
X172095438Y-84526302D02*
X172047819Y-84478683D01*
X172047819Y-84478683D02*
X172143057Y-84478683D01*
X173000200Y-85335825D02*
X173047819Y-85240587D01*
X173047819Y-85240587D02*
X173047819Y-85050111D01*
X173047819Y-85050111D02*
X173000200Y-84954873D01*
X173000200Y-84954873D02*
X172904961Y-84907254D01*
X172904961Y-84907254D02*
X172524009Y-84907254D01*
X172524009Y-84907254D02*
X172428771Y-84954873D01*
X172428771Y-84954873D02*
X172381152Y-85050111D01*
X172381152Y-85050111D02*
X172381152Y-85240587D01*
X172381152Y-85240587D02*
X172428771Y-85335825D01*
X172428771Y-85335825D02*
X172524009Y-85383444D01*
X172524009Y-85383444D02*
X172619247Y-85383444D01*
X172619247Y-85383444D02*
X172714485Y-84907254D01*
X173000200Y-86240587D02*
X173047819Y-86145349D01*
X173047819Y-86145349D02*
X173047819Y-85954873D01*
X173047819Y-85954873D02*
X173000200Y-85859635D01*
X173000200Y-85859635D02*
X172952580Y-85812016D01*
X172952580Y-85812016D02*
X172857342Y-85764397D01*
X172857342Y-85764397D02*
X172571628Y-85764397D01*
X172571628Y-85764397D02*
X172476390Y-85812016D01*
X172476390Y-85812016D02*
X172428771Y-85859635D01*
X172428771Y-85859635D02*
X172381152Y-85954873D01*
X172381152Y-85954873D02*
X172381152Y-86145349D01*
X172381152Y-86145349D02*
X172428771Y-86240587D01*
X172381152Y-86526302D02*
X172381152Y-86907254D01*
X172047819Y-86669159D02*
X172904961Y-86669159D01*
X172904961Y-86669159D02*
X173000200Y-86716778D01*
X173000200Y-86716778D02*
X173047819Y-86812016D01*
X173047819Y-86812016D02*
X173047819Y-86907254D01*
X173047819Y-88002493D02*
X172047819Y-88002493D01*
X173047819Y-88573921D02*
X172476390Y-88145350D01*
X172047819Y-88573921D02*
X172619247Y-88002493D01*
X173047819Y-89002493D02*
X172381152Y-89002493D01*
X172047819Y-89002493D02*
X172095438Y-88954874D01*
X172095438Y-88954874D02*
X172143057Y-89002493D01*
X172143057Y-89002493D02*
X172095438Y-89050112D01*
X172095438Y-89050112D02*
X172047819Y-89002493D01*
X172047819Y-89002493D02*
X172143057Y-89002493D01*
X172381152Y-89335826D02*
X172381152Y-89716778D01*
X172047819Y-89478683D02*
X172904961Y-89478683D01*
X172904961Y-89478683D02*
X173000200Y-89526302D01*
X173000200Y-89526302D02*
X173047819Y-89621540D01*
X173047819Y-89621540D02*
X173047819Y-89716778D01*
X172666866Y-90812017D02*
X172666866Y-91573922D01*
X172524009Y-92812017D02*
X172524009Y-93145350D01*
X173047819Y-93288207D02*
X173047819Y-92812017D01*
X173047819Y-92812017D02*
X172047819Y-92812017D01*
X172047819Y-92812017D02*
X172047819Y-93288207D01*
X173047819Y-93859636D02*
X173000200Y-93764398D01*
X173000200Y-93764398D02*
X172904961Y-93716779D01*
X172904961Y-93716779D02*
X172047819Y-93716779D01*
X173047819Y-94240589D02*
X172047819Y-94240589D01*
X172666866Y-94335827D02*
X173047819Y-94621541D01*
X172381152Y-94621541D02*
X172762104Y-94240589D01*
X173047819Y-95192970D02*
X173000200Y-95097732D01*
X173000200Y-95097732D02*
X172952580Y-95050113D01*
X172952580Y-95050113D02*
X172857342Y-95002494D01*
X172857342Y-95002494D02*
X172571628Y-95002494D01*
X172571628Y-95002494D02*
X172476390Y-95050113D01*
X172476390Y-95050113D02*
X172428771Y-95097732D01*
X172428771Y-95097732D02*
X172381152Y-95192970D01*
X172381152Y-95192970D02*
X172381152Y-95335827D01*
X172381152Y-95335827D02*
X172428771Y-95431065D01*
X172428771Y-95431065D02*
X172476390Y-95478684D01*
X172476390Y-95478684D02*
X172571628Y-95526303D01*
X172571628Y-95526303D02*
X172857342Y-95526303D01*
X172857342Y-95526303D02*
X172952580Y-95478684D01*
X172952580Y-95478684D02*
X173000200Y-95431065D01*
X173000200Y-95431065D02*
X173047819Y-95335827D01*
X173047819Y-95335827D02*
X173047819Y-95192970D01*
X172524009Y-96716780D02*
X172524009Y-97050113D01*
X173047819Y-97192970D02*
X173047819Y-96716780D01*
X173047819Y-96716780D02*
X172047819Y-96716780D01*
X172047819Y-96716780D02*
X172047819Y-97192970D01*
X172381152Y-97621542D02*
X173047819Y-97621542D01*
X172476390Y-97621542D02*
X172428771Y-97669161D01*
X172428771Y-97669161D02*
X172381152Y-97764399D01*
X172381152Y-97764399D02*
X172381152Y-97907256D01*
X172381152Y-97907256D02*
X172428771Y-98002494D01*
X172428771Y-98002494D02*
X172524009Y-98050113D01*
X172524009Y-98050113D02*
X173047819Y-98050113D01*
X172381152Y-98954875D02*
X173190676Y-98954875D01*
X173190676Y-98954875D02*
X173285914Y-98907256D01*
X173285914Y-98907256D02*
X173333533Y-98859637D01*
X173333533Y-98859637D02*
X173381152Y-98764399D01*
X173381152Y-98764399D02*
X173381152Y-98621542D01*
X173381152Y-98621542D02*
X173333533Y-98526304D01*
X173000200Y-98954875D02*
X173047819Y-98859637D01*
X173047819Y-98859637D02*
X173047819Y-98669161D01*
X173047819Y-98669161D02*
X173000200Y-98573923D01*
X173000200Y-98573923D02*
X172952580Y-98526304D01*
X172952580Y-98526304D02*
X172857342Y-98478685D01*
X172857342Y-98478685D02*
X172571628Y-98478685D01*
X172571628Y-98478685D02*
X172476390Y-98526304D01*
X172476390Y-98526304D02*
X172428771Y-98573923D01*
X172428771Y-98573923D02*
X172381152Y-98669161D01*
X172381152Y-98669161D02*
X172381152Y-98859637D01*
X172381152Y-98859637D02*
X172428771Y-98954875D01*
X173047819Y-99431066D02*
X172381152Y-99431066D01*
X172047819Y-99431066D02*
X172095438Y-99383447D01*
X172095438Y-99383447D02*
X172143057Y-99431066D01*
X172143057Y-99431066D02*
X172095438Y-99478685D01*
X172095438Y-99478685D02*
X172047819Y-99431066D01*
X172047819Y-99431066D02*
X172143057Y-99431066D01*
X172381152Y-99907256D02*
X173047819Y-99907256D01*
X172476390Y-99907256D02*
X172428771Y-99954875D01*
X172428771Y-99954875D02*
X172381152Y-100050113D01*
X172381152Y-100050113D02*
X172381152Y-100192970D01*
X172381152Y-100192970D02*
X172428771Y-100288208D01*
X172428771Y-100288208D02*
X172524009Y-100335827D01*
X172524009Y-100335827D02*
X173047819Y-100335827D01*
X173000200Y-101192970D02*
X173047819Y-101097732D01*
X173047819Y-101097732D02*
X173047819Y-100907256D01*
X173047819Y-100907256D02*
X173000200Y-100812018D01*
X173000200Y-100812018D02*
X172904961Y-100764399D01*
X172904961Y-100764399D02*
X172524009Y-100764399D01*
X172524009Y-100764399D02*
X172428771Y-100812018D01*
X172428771Y-100812018D02*
X172381152Y-100907256D01*
X172381152Y-100907256D02*
X172381152Y-101097732D01*
X172381152Y-101097732D02*
X172428771Y-101192970D01*
X172428771Y-101192970D02*
X172524009Y-101240589D01*
X172524009Y-101240589D02*
X172619247Y-101240589D01*
X172619247Y-101240589D02*
X172714485Y-100764399D01*
X173000200Y-102050113D02*
X173047819Y-101954875D01*
X173047819Y-101954875D02*
X173047819Y-101764399D01*
X173047819Y-101764399D02*
X173000200Y-101669161D01*
X173000200Y-101669161D02*
X172904961Y-101621542D01*
X172904961Y-101621542D02*
X172524009Y-101621542D01*
X172524009Y-101621542D02*
X172428771Y-101669161D01*
X172428771Y-101669161D02*
X172381152Y-101764399D01*
X172381152Y-101764399D02*
X172381152Y-101954875D01*
X172381152Y-101954875D02*
X172428771Y-102050113D01*
X172428771Y-102050113D02*
X172524009Y-102097732D01*
X172524009Y-102097732D02*
X172619247Y-102097732D01*
X172619247Y-102097732D02*
X172714485Y-101621542D01*
X173047819Y-102526304D02*
X172381152Y-102526304D01*
X172571628Y-102526304D02*
X172476390Y-102573923D01*
X172476390Y-102573923D02*
X172428771Y-102621542D01*
X172428771Y-102621542D02*
X172381152Y-102716780D01*
X172381152Y-102716780D02*
X172381152Y-102812018D01*
X173047819Y-103145352D02*
X172381152Y-103145352D01*
X172047819Y-103145352D02*
X172095438Y-103097733D01*
X172095438Y-103097733D02*
X172143057Y-103145352D01*
X172143057Y-103145352D02*
X172095438Y-103192971D01*
X172095438Y-103192971D02*
X172047819Y-103145352D01*
X172047819Y-103145352D02*
X172143057Y-103145352D01*
X172381152Y-103621542D02*
X173047819Y-103621542D01*
X172476390Y-103621542D02*
X172428771Y-103669161D01*
X172428771Y-103669161D02*
X172381152Y-103764399D01*
X172381152Y-103764399D02*
X172381152Y-103907256D01*
X172381152Y-103907256D02*
X172428771Y-104002494D01*
X172428771Y-104002494D02*
X172524009Y-104050113D01*
X172524009Y-104050113D02*
X173047819Y-104050113D01*
X172381152Y-104954875D02*
X173190676Y-104954875D01*
X173190676Y-104954875D02*
X173285914Y-104907256D01*
X173285914Y-104907256D02*
X173333533Y-104859637D01*
X173333533Y-104859637D02*
X173381152Y-104764399D01*
X173381152Y-104764399D02*
X173381152Y-104621542D01*
X173381152Y-104621542D02*
X173333533Y-104526304D01*
X173000200Y-104954875D02*
X173047819Y-104859637D01*
X173047819Y-104859637D02*
X173047819Y-104669161D01*
X173047819Y-104669161D02*
X173000200Y-104573923D01*
X173000200Y-104573923D02*
X172952580Y-104526304D01*
X172952580Y-104526304D02*
X172857342Y-104478685D01*
X172857342Y-104478685D02*
X172571628Y-104478685D01*
X172571628Y-104478685D02*
X172476390Y-104526304D01*
X172476390Y-104526304D02*
X172428771Y-104573923D01*
X172428771Y-104573923D02*
X172381152Y-104669161D01*
X172381152Y-104669161D02*
X172381152Y-104859637D01*
X172381152Y-104859637D02*
X172428771Y-104954875D01*
X172095438Y-106716780D02*
X172047819Y-106621542D01*
X172047819Y-106621542D02*
X172047819Y-106478685D01*
X172047819Y-106478685D02*
X172095438Y-106335828D01*
X172095438Y-106335828D02*
X172190676Y-106240590D01*
X172190676Y-106240590D02*
X172285914Y-106192971D01*
X172285914Y-106192971D02*
X172476390Y-106145352D01*
X172476390Y-106145352D02*
X172619247Y-106145352D01*
X172619247Y-106145352D02*
X172809723Y-106192971D01*
X172809723Y-106192971D02*
X172904961Y-106240590D01*
X172904961Y-106240590D02*
X173000200Y-106335828D01*
X173000200Y-106335828D02*
X173047819Y-106478685D01*
X173047819Y-106478685D02*
X173047819Y-106573923D01*
X173047819Y-106573923D02*
X173000200Y-106716780D01*
X173000200Y-106716780D02*
X172952580Y-106764399D01*
X172952580Y-106764399D02*
X172619247Y-106764399D01*
X172619247Y-106764399D02*
X172619247Y-106573923D01*
X173047819Y-107621542D02*
X172524009Y-107621542D01*
X172524009Y-107621542D02*
X172428771Y-107573923D01*
X172428771Y-107573923D02*
X172381152Y-107478685D01*
X172381152Y-107478685D02*
X172381152Y-107288209D01*
X172381152Y-107288209D02*
X172428771Y-107192971D01*
X173000200Y-107621542D02*
X173047819Y-107526304D01*
X173047819Y-107526304D02*
X173047819Y-107288209D01*
X173047819Y-107288209D02*
X173000200Y-107192971D01*
X173000200Y-107192971D02*
X172904961Y-107145352D01*
X172904961Y-107145352D02*
X172809723Y-107145352D01*
X172809723Y-107145352D02*
X172714485Y-107192971D01*
X172714485Y-107192971D02*
X172666866Y-107288209D01*
X172666866Y-107288209D02*
X172666866Y-107526304D01*
X172666866Y-107526304D02*
X172619247Y-107621542D01*
X173047819Y-108097733D02*
X172381152Y-108097733D01*
X172571628Y-108097733D02*
X172476390Y-108145352D01*
X172476390Y-108145352D02*
X172428771Y-108192971D01*
X172428771Y-108192971D02*
X172381152Y-108288209D01*
X172381152Y-108288209D02*
X172381152Y-108383447D01*
X173047819Y-109145352D02*
X172524009Y-109145352D01*
X172524009Y-109145352D02*
X172428771Y-109097733D01*
X172428771Y-109097733D02*
X172381152Y-109002495D01*
X172381152Y-109002495D02*
X172381152Y-108812019D01*
X172381152Y-108812019D02*
X172428771Y-108716781D01*
X173000200Y-109145352D02*
X173047819Y-109050114D01*
X173047819Y-109050114D02*
X173047819Y-108812019D01*
X173047819Y-108812019D02*
X173000200Y-108716781D01*
X173000200Y-108716781D02*
X172904961Y-108669162D01*
X172904961Y-108669162D02*
X172809723Y-108669162D01*
X172809723Y-108669162D02*
X172714485Y-108716781D01*
X172714485Y-108716781D02*
X172666866Y-108812019D01*
X172666866Y-108812019D02*
X172666866Y-109050114D01*
X172666866Y-109050114D02*
X172619247Y-109145352D01*
X172381152Y-110050114D02*
X173190676Y-110050114D01*
X173190676Y-110050114D02*
X173285914Y-110002495D01*
X173285914Y-110002495D02*
X173333533Y-109954876D01*
X173333533Y-109954876D02*
X173381152Y-109859638D01*
X173381152Y-109859638D02*
X173381152Y-109716781D01*
X173381152Y-109716781D02*
X173333533Y-109621543D01*
X173000200Y-110050114D02*
X173047819Y-109954876D01*
X173047819Y-109954876D02*
X173047819Y-109764400D01*
X173047819Y-109764400D02*
X173000200Y-109669162D01*
X173000200Y-109669162D02*
X172952580Y-109621543D01*
X172952580Y-109621543D02*
X172857342Y-109573924D01*
X172857342Y-109573924D02*
X172571628Y-109573924D01*
X172571628Y-109573924D02*
X172476390Y-109621543D01*
X172476390Y-109621543D02*
X172428771Y-109669162D01*
X172428771Y-109669162D02*
X172381152Y-109764400D01*
X172381152Y-109764400D02*
X172381152Y-109954876D01*
X172381152Y-109954876D02*
X172428771Y-110050114D01*
X173000200Y-110907257D02*
X173047819Y-110812019D01*
X173047819Y-110812019D02*
X173047819Y-110621543D01*
X173047819Y-110621543D02*
X173000200Y-110526305D01*
X173000200Y-110526305D02*
X172904961Y-110478686D01*
X172904961Y-110478686D02*
X172524009Y-110478686D01*
X172524009Y-110478686D02*
X172428771Y-110526305D01*
X172428771Y-110526305D02*
X172381152Y-110621543D01*
X172381152Y-110621543D02*
X172381152Y-110812019D01*
X172381152Y-110812019D02*
X172428771Y-110907257D01*
X172428771Y-110907257D02*
X172524009Y-110954876D01*
X172524009Y-110954876D02*
X172619247Y-110954876D01*
X172619247Y-110954876D02*
X172714485Y-110478686D01*
%TO.C,D2*%
X146275410Y-120504819D02*
X146275410Y-119504819D01*
X146275410Y-119504819D02*
X146037315Y-119504819D01*
X146037315Y-119504819D02*
X145894458Y-119552438D01*
X145894458Y-119552438D02*
X145799220Y-119647676D01*
X145799220Y-119647676D02*
X145751601Y-119742914D01*
X145751601Y-119742914D02*
X145703982Y-119933390D01*
X145703982Y-119933390D02*
X145703982Y-120076247D01*
X145703982Y-120076247D02*
X145751601Y-120266723D01*
X145751601Y-120266723D02*
X145799220Y-120361961D01*
X145799220Y-120361961D02*
X145894458Y-120457200D01*
X145894458Y-120457200D02*
X146037315Y-120504819D01*
X146037315Y-120504819D02*
X146275410Y-120504819D01*
X145323029Y-119600057D02*
X145275410Y-119552438D01*
X145275410Y-119552438D02*
X145180172Y-119504819D01*
X145180172Y-119504819D02*
X144942077Y-119504819D01*
X144942077Y-119504819D02*
X144846839Y-119552438D01*
X144846839Y-119552438D02*
X144799220Y-119600057D01*
X144799220Y-119600057D02*
X144751601Y-119695295D01*
X144751601Y-119695295D02*
X144751601Y-119790533D01*
X144751601Y-119790533D02*
X144799220Y-119933390D01*
X144799220Y-119933390D02*
X145370648Y-120504819D01*
X145370648Y-120504819D02*
X144751601Y-120504819D01*
%TO.C,D3*%
X164887410Y-120806819D02*
X164887410Y-119806819D01*
X164887410Y-119806819D02*
X164649315Y-119806819D01*
X164649315Y-119806819D02*
X164506458Y-119854438D01*
X164506458Y-119854438D02*
X164411220Y-119949676D01*
X164411220Y-119949676D02*
X164363601Y-120044914D01*
X164363601Y-120044914D02*
X164315982Y-120235390D01*
X164315982Y-120235390D02*
X164315982Y-120378247D01*
X164315982Y-120378247D02*
X164363601Y-120568723D01*
X164363601Y-120568723D02*
X164411220Y-120663961D01*
X164411220Y-120663961D02*
X164506458Y-120759200D01*
X164506458Y-120759200D02*
X164649315Y-120806819D01*
X164649315Y-120806819D02*
X164887410Y-120806819D01*
X163982648Y-119806819D02*
X163363601Y-119806819D01*
X163363601Y-119806819D02*
X163696934Y-120187771D01*
X163696934Y-120187771D02*
X163554077Y-120187771D01*
X163554077Y-120187771D02*
X163458839Y-120235390D01*
X163458839Y-120235390D02*
X163411220Y-120283009D01*
X163411220Y-120283009D02*
X163363601Y-120378247D01*
X163363601Y-120378247D02*
X163363601Y-120616342D01*
X163363601Y-120616342D02*
X163411220Y-120711580D01*
X163411220Y-120711580D02*
X163458839Y-120759200D01*
X163458839Y-120759200D02*
X163554077Y-120806819D01*
X163554077Y-120806819D02*
X163839791Y-120806819D01*
X163839791Y-120806819D02*
X163935029Y-120759200D01*
X163935029Y-120759200D02*
X163982648Y-120711580D01*
%TO.C,D1*%
X127133410Y-120540819D02*
X127133410Y-119540819D01*
X127133410Y-119540819D02*
X126895315Y-119540819D01*
X126895315Y-119540819D02*
X126752458Y-119588438D01*
X126752458Y-119588438D02*
X126657220Y-119683676D01*
X126657220Y-119683676D02*
X126609601Y-119778914D01*
X126609601Y-119778914D02*
X126561982Y-119969390D01*
X126561982Y-119969390D02*
X126561982Y-120112247D01*
X126561982Y-120112247D02*
X126609601Y-120302723D01*
X126609601Y-120302723D02*
X126657220Y-120397961D01*
X126657220Y-120397961D02*
X126752458Y-120493200D01*
X126752458Y-120493200D02*
X126895315Y-120540819D01*
X126895315Y-120540819D02*
X127133410Y-120540819D01*
X125609601Y-120540819D02*
X126181029Y-120540819D01*
X125895315Y-120540819D02*
X125895315Y-119540819D01*
X125895315Y-119540819D02*
X125990553Y-119683676D01*
X125990553Y-119683676D02*
X126085791Y-119778914D01*
X126085791Y-119778914D02*
X126181029Y-119826533D01*
%TO.C,D5*%
X146380410Y-101200819D02*
X146380410Y-100200819D01*
X146380410Y-100200819D02*
X146142315Y-100200819D01*
X146142315Y-100200819D02*
X145999458Y-100248438D01*
X145999458Y-100248438D02*
X145904220Y-100343676D01*
X145904220Y-100343676D02*
X145856601Y-100438914D01*
X145856601Y-100438914D02*
X145808982Y-100629390D01*
X145808982Y-100629390D02*
X145808982Y-100772247D01*
X145808982Y-100772247D02*
X145856601Y-100962723D01*
X145856601Y-100962723D02*
X145904220Y-101057961D01*
X145904220Y-101057961D02*
X145999458Y-101153200D01*
X145999458Y-101153200D02*
X146142315Y-101200819D01*
X146142315Y-101200819D02*
X146380410Y-101200819D01*
X144904220Y-100200819D02*
X145380410Y-100200819D01*
X145380410Y-100200819D02*
X145428029Y-100677009D01*
X145428029Y-100677009D02*
X145380410Y-100629390D01*
X145380410Y-100629390D02*
X145285172Y-100581771D01*
X145285172Y-100581771D02*
X145047077Y-100581771D01*
X145047077Y-100581771D02*
X144951839Y-100629390D01*
X144951839Y-100629390D02*
X144904220Y-100677009D01*
X144904220Y-100677009D02*
X144856601Y-100772247D01*
X144856601Y-100772247D02*
X144856601Y-101010342D01*
X144856601Y-101010342D02*
X144904220Y-101105580D01*
X144904220Y-101105580D02*
X144951839Y-101153200D01*
X144951839Y-101153200D02*
X145047077Y-101200819D01*
X145047077Y-101200819D02*
X145285172Y-101200819D01*
X145285172Y-101200819D02*
X145380410Y-101153200D01*
X145380410Y-101153200D02*
X145428029Y-101105580D01*
%TO.C,D6*%
X165198410Y-101423819D02*
X165198410Y-100423819D01*
X165198410Y-100423819D02*
X164960315Y-100423819D01*
X164960315Y-100423819D02*
X164817458Y-100471438D01*
X164817458Y-100471438D02*
X164722220Y-100566676D01*
X164722220Y-100566676D02*
X164674601Y-100661914D01*
X164674601Y-100661914D02*
X164626982Y-100852390D01*
X164626982Y-100852390D02*
X164626982Y-100995247D01*
X164626982Y-100995247D02*
X164674601Y-101185723D01*
X164674601Y-101185723D02*
X164722220Y-101280961D01*
X164722220Y-101280961D02*
X164817458Y-101376200D01*
X164817458Y-101376200D02*
X164960315Y-101423819D01*
X164960315Y-101423819D02*
X165198410Y-101423819D01*
X163769839Y-100423819D02*
X163960315Y-100423819D01*
X163960315Y-100423819D02*
X164055553Y-100471438D01*
X164055553Y-100471438D02*
X164103172Y-100519057D01*
X164103172Y-100519057D02*
X164198410Y-100661914D01*
X164198410Y-100661914D02*
X164246029Y-100852390D01*
X164246029Y-100852390D02*
X164246029Y-101233342D01*
X164246029Y-101233342D02*
X164198410Y-101328580D01*
X164198410Y-101328580D02*
X164150791Y-101376200D01*
X164150791Y-101376200D02*
X164055553Y-101423819D01*
X164055553Y-101423819D02*
X163865077Y-101423819D01*
X163865077Y-101423819D02*
X163769839Y-101376200D01*
X163769839Y-101376200D02*
X163722220Y-101328580D01*
X163722220Y-101328580D02*
X163674601Y-101233342D01*
X163674601Y-101233342D02*
X163674601Y-100995247D01*
X163674601Y-100995247D02*
X163722220Y-100900009D01*
X163722220Y-100900009D02*
X163769839Y-100852390D01*
X163769839Y-100852390D02*
X163865077Y-100804771D01*
X163865077Y-100804771D02*
X164055553Y-100804771D01*
X164055553Y-100804771D02*
X164150791Y-100852390D01*
X164150791Y-100852390D02*
X164198410Y-100900009D01*
X164198410Y-100900009D02*
X164246029Y-100995247D01*
%TO.C,D8*%
X165487410Y-82785819D02*
X165487410Y-81785819D01*
X165487410Y-81785819D02*
X165249315Y-81785819D01*
X165249315Y-81785819D02*
X165106458Y-81833438D01*
X165106458Y-81833438D02*
X165011220Y-81928676D01*
X165011220Y-81928676D02*
X164963601Y-82023914D01*
X164963601Y-82023914D02*
X164915982Y-82214390D01*
X164915982Y-82214390D02*
X164915982Y-82357247D01*
X164915982Y-82357247D02*
X164963601Y-82547723D01*
X164963601Y-82547723D02*
X165011220Y-82642961D01*
X165011220Y-82642961D02*
X165106458Y-82738200D01*
X165106458Y-82738200D02*
X165249315Y-82785819D01*
X165249315Y-82785819D02*
X165487410Y-82785819D01*
X164344553Y-82214390D02*
X164439791Y-82166771D01*
X164439791Y-82166771D02*
X164487410Y-82119152D01*
X164487410Y-82119152D02*
X164535029Y-82023914D01*
X164535029Y-82023914D02*
X164535029Y-81976295D01*
X164535029Y-81976295D02*
X164487410Y-81881057D01*
X164487410Y-81881057D02*
X164439791Y-81833438D01*
X164439791Y-81833438D02*
X164344553Y-81785819D01*
X164344553Y-81785819D02*
X164154077Y-81785819D01*
X164154077Y-81785819D02*
X164058839Y-81833438D01*
X164058839Y-81833438D02*
X164011220Y-81881057D01*
X164011220Y-81881057D02*
X163963601Y-81976295D01*
X163963601Y-81976295D02*
X163963601Y-82023914D01*
X163963601Y-82023914D02*
X164011220Y-82119152D01*
X164011220Y-82119152D02*
X164058839Y-82166771D01*
X164058839Y-82166771D02*
X164154077Y-82214390D01*
X164154077Y-82214390D02*
X164344553Y-82214390D01*
X164344553Y-82214390D02*
X164439791Y-82262009D01*
X164439791Y-82262009D02*
X164487410Y-82309628D01*
X164487410Y-82309628D02*
X164535029Y-82404866D01*
X164535029Y-82404866D02*
X164535029Y-82595342D01*
X164535029Y-82595342D02*
X164487410Y-82690580D01*
X164487410Y-82690580D02*
X164439791Y-82738200D01*
X164439791Y-82738200D02*
X164344553Y-82785819D01*
X164344553Y-82785819D02*
X164154077Y-82785819D01*
X164154077Y-82785819D02*
X164058839Y-82738200D01*
X164058839Y-82738200D02*
X164011220Y-82690580D01*
X164011220Y-82690580D02*
X163963601Y-82595342D01*
X163963601Y-82595342D02*
X163963601Y-82404866D01*
X163963601Y-82404866D02*
X164011220Y-82309628D01*
X164011220Y-82309628D02*
X164058839Y-82262009D01*
X164058839Y-82262009D02*
X164154077Y-82214390D01*
%TO.C,D4*%
X127295410Y-101073819D02*
X127295410Y-100073819D01*
X127295410Y-100073819D02*
X127057315Y-100073819D01*
X127057315Y-100073819D02*
X126914458Y-100121438D01*
X126914458Y-100121438D02*
X126819220Y-100216676D01*
X126819220Y-100216676D02*
X126771601Y-100311914D01*
X126771601Y-100311914D02*
X126723982Y-100502390D01*
X126723982Y-100502390D02*
X126723982Y-100645247D01*
X126723982Y-100645247D02*
X126771601Y-100835723D01*
X126771601Y-100835723D02*
X126819220Y-100930961D01*
X126819220Y-100930961D02*
X126914458Y-101026200D01*
X126914458Y-101026200D02*
X127057315Y-101073819D01*
X127057315Y-101073819D02*
X127295410Y-101073819D01*
X125866839Y-100407152D02*
X125866839Y-101073819D01*
X126104934Y-100026200D02*
X126343029Y-100740485D01*
X126343029Y-100740485D02*
X125723982Y-100740485D01*
%TO.C,D7*%
X146275410Y-82325819D02*
X146275410Y-81325819D01*
X146275410Y-81325819D02*
X146037315Y-81325819D01*
X146037315Y-81325819D02*
X145894458Y-81373438D01*
X145894458Y-81373438D02*
X145799220Y-81468676D01*
X145799220Y-81468676D02*
X145751601Y-81563914D01*
X145751601Y-81563914D02*
X145703982Y-81754390D01*
X145703982Y-81754390D02*
X145703982Y-81897247D01*
X145703982Y-81897247D02*
X145751601Y-82087723D01*
X145751601Y-82087723D02*
X145799220Y-82182961D01*
X145799220Y-82182961D02*
X145894458Y-82278200D01*
X145894458Y-82278200D02*
X146037315Y-82325819D01*
X146037315Y-82325819D02*
X146275410Y-82325819D01*
X145370648Y-81325819D02*
X144703982Y-81325819D01*
X144703982Y-81325819D02*
X145132553Y-82325819D01*
D12*
%TO.C,D2*%
X142969000Y-119066000D02*
X142969000Y-117034000D01*
D13*
X143276000Y-119050000D02*
X143276000Y-117050000D01*
X143276000Y-119050000D02*
X147286000Y-119050000D01*
X143276000Y-117050000D02*
X147286000Y-117050000D01*
D12*
%TO.C,D3*%
X161581000Y-119368000D02*
X161581000Y-117336000D01*
D13*
X161888000Y-119352000D02*
X161888000Y-117352000D01*
X161888000Y-119352000D02*
X165898000Y-119352000D01*
X161888000Y-117352000D02*
X165898000Y-117352000D01*
D12*
%TO.C,D1*%
X123827000Y-119102000D02*
X123827000Y-117070000D01*
D13*
X124134000Y-119086000D02*
X124134000Y-117086000D01*
X124134000Y-119086000D02*
X128144000Y-119086000D01*
X124134000Y-117086000D02*
X128144000Y-117086000D01*
D12*
%TO.C,D5*%
X143074000Y-99762000D02*
X143074000Y-97730000D01*
D13*
X143381000Y-99746000D02*
X143381000Y-97746000D01*
X143381000Y-99746000D02*
X147391000Y-99746000D01*
X143381000Y-97746000D02*
X147391000Y-97746000D01*
D12*
%TO.C,D6*%
X161892000Y-99985000D02*
X161892000Y-97953000D01*
D13*
X162199000Y-99969000D02*
X162199000Y-97969000D01*
X162199000Y-99969000D02*
X166209000Y-99969000D01*
X162199000Y-97969000D02*
X166209000Y-97969000D01*
D12*
%TO.C,D8*%
X162181000Y-81347000D02*
X162181000Y-79315000D01*
D13*
X162488000Y-81331000D02*
X162488000Y-79331000D01*
X162488000Y-81331000D02*
X166498000Y-81331000D01*
X162488000Y-79331000D02*
X166498000Y-79331000D01*
D12*
%TO.C,D4*%
X123989000Y-99635000D02*
X123989000Y-97603000D01*
D13*
X124296000Y-99619000D02*
X124296000Y-97619000D01*
X124296000Y-99619000D02*
X128306000Y-99619000D01*
X124296000Y-97619000D02*
X128306000Y-97619000D01*
D12*
%TO.C,D7*%
X142969000Y-80887000D02*
X142969000Y-78855000D01*
D13*
X143276000Y-80871000D02*
X143276000Y-78871000D01*
X143276000Y-80871000D02*
X147286000Y-80871000D01*
X143276000Y-78871000D02*
X147286000Y-78871000D01*
%TD*%
M02*
